<?xml version="1.0" encoding="utf-8" ?>
<svg xmlns="http://www.w3.org/2000/svg" xmlns:ev="http://www.w3.org/2001/xml-events" xmlns:xlink="http://www.w3.org/1999/xlink" baseProfile="tiny" height="1900.8331" version="1.2" width="2599.3275">
  <defs/>
  <polyline fill="none" points="1802.2223,834.94 1802.2223,887.5168" stroke="red"/>
  <polyline fill="none" points="1802.2223,887.5168 1802.2223,888.5099 1802.2222,889.503 1802.222,890.4961 1802.2216,891.4893 1802.2209,892.4824 1802.2199,893.4755 1802.2184,894.4686 1802.2165,895.4617 1802.214,896.4548 1802.211,897.4479 1802.2072,898.441 1802.2027,899.434 1802.1974,900.4271 1802.1912,901.4202 1802.184,902.4133 1802.1759,903.4064 1802.1666,904.3994 1802.1562,905.3925 1802.1445,906.3855 1802.1316,907.3785 1802.1173,908.3715 1802.1016,909.3645 1802.0844,910.3575 1802.0656,911.3504 1802.0452,912.3433 1802.0231,913.3361 1801.9992,914.329 1801.9735,915.3217 1801.9458,916.3144 1801.9162,917.3071 1801.8846,918.2997 1801.8509,919.2922 1801.815,920.2847 1801.7768,921.2771 1801.7363,922.2693 1801.6935,923.2615 1801.6482,924.2536 1801.6004,925.2455 1801.55,926.2374 1801.4969,927.2291 1801.4412,928.2206 1801.3826,929.212 1801.3212,930.2032 1801.2569,931.1942 1801.1896,932.185 1801.1193,933.1756 1801.0458,934.166 1800.9692,935.1561 1800.8892,936.146 1800.806,937.1356" stroke="red"/>
  <polyline fill="none" points="1800.806,937.1356 1800.7193,938.1266 1800.6291,939.1173 1800.5355,940.1076 1800.4386,941.0976 1800.3382,942.0873 1800.2345,943.0766 1800.1274,944.0656 1800.0168,945.0542 1799.9029,946.0424 1799.7856,947.0302 1799.6649,948.0177 1799.5408,949.0046 1799.4134,949.9912 1799.2825,950.9773 1799.1483,951.963 1799.0107,952.9482 1798.8697,953.9329 1798.7253,954.9171 1798.5776,955.9008 1798.4265,956.8841 1798.272,957.8667 1798.1141,958.8489 1797.9529,959.8305 1797.7883,960.8116 1797.6204,961.792 1797.449,962.7719 1797.2744,963.7512 1797.0963,964.7299 1796.9149,965.708 1796.7302,966.6855 1796.5421,967.6623 1796.3507,968.6384 1796.1559,969.6139 1795.9577,970.5888 1795.7562,971.5629 1795.5514,972.5363 1795.3433,973.5091 1795.1318,974.4811 1794.9169,975.4524 1794.6988,976.4229 1794.4773,977.3927 1794.2525,978.3617 1794.0243,979.33 1793.7929,980.2974 1793.5581,981.2641 1793.32,982.2299 1793.0786,983.195 1792.8339,984.1591 1792.5859,985.1225 1792.3346,986.085 1792.08,987.0466 1791.8221,988.0073 1791.5609,988.9672 1791.2964,989.9261 1791.0286,990.8842 1790.7575,991.8413 1790.4832,992.7975 1790.2055,993.7527 1789.9246,994.707 1789.6405,995.6603 1789.353,996.6126 1789.0623,997.5639 1788.7683,998.5143 1788.4711,999.4636 1788.1706,1000.4119 1787.8669,1001.3591 1787.5599,1002.3053 1787.2497,1003.2505 1786.9362,1004.1945 1786.6195,1005.1375 1786.2996,1006.0794 1785.9764,1007.0202 1785.65,1007.9599 1785.3204,1008.8985 1784.9876,1009.8359 1784.6515,1010.7722 1784.3123,1011.7073 1783.9698,1012.6413 1783.6242,1013.5741 1783.2753,1014.5056 1782.9232,1015.436 1782.568,1016.3652 1782.2096,1017.2931 1781.848,1018.2198 1781.4832,1019.1453 1781.1152,1020.0695 1780.7441,1020.9924 1780.3698,1021.9141 1779.9924,1022.8345 1779.6118,1023.7535 1779.228,1024.6713 1778.8411,1025.5877 1778.4511,1026.5028 1778.0579,1027.4166 1777.6616,1028.329 1777.2622,1029.24 1776.8596,1030.1497 1776.454,1031.058 1776.0452,1031.9649 1775.6333,1032.8703 1775.2183,1033.7744 1774.8002,1034.677 1774.379,1035.5782 1773.9547,1036.4779 1773.5273,1037.3762 1773.0969,1038.273 1772.6634,1039.1683 1772.2268,1040.0622 1771.7871,1040.9545 1771.3444,1041.8453 1770.8987,1042.7346 1770.4499,1043.6224 1769.998,1044.5086 1769.5431,1045.3932 1769.0852,1046.2763 1768.6243,1047.1579 1768.1603,1048.0378 1767.6933,1048.9161 1767.2233,1049.7928 1766.7503,1050.668 1766.2743,1051.5414 1765.7953,1052.4133 1765.3133,1053.2835 1764.8284,1054.152 1764.3404,1055.0189" stroke="red"/>
  <polyline fill="none" points="1764.3404,1055.0189 1763.8504,1055.8826 1763.3574,1056.7448 1762.8616,1057.6052 1762.363,1058.4641 1761.8617,1059.3214 1761.3578,1060.1772 1760.8513,1061.0314 1760.3423,1061.8842 1759.8309,1062.7354 1759.317,1063.5853 1758.8008,1064.4337 1758.2824,1065.2807 1757.7618,1066.1264 1757.239,1066.9708 1756.7141,1067.8139 1756.1872,1068.6557 1755.6584,1069.4963 1755.1277,1070.3356 1754.5951,1071.1739 1754.0607,1072.011 1753.5247,1072.8469 1752.9869,1073.6819 1752.4476,1074.5158 1751.9067,1075.3486 1751.3644,1076.1806 1750.8206,1077.0116 1750.2754,1077.8417 1749.729,1078.6709 1749.1813,1079.4993 1748.6324,1080.327 1748.0824,1081.1538 1747.5313,1081.98 1746.9791,1082.8055 1746.4261,1083.6303 1745.8721,1084.4546 1745.3173,1085.2782 1744.7616,1086.1013 1744.2053,1086.924 1743.6483,1087.7462 1743.0906,1088.5679 1742.5324,1089.3893 1741.9737,1090.2103 1741.4145,1091.031 1740.855,1091.8515 1740.2951,1092.6717 1739.7349,1093.4918 1739.1745,1094.3116 1738.6139,1095.1314 1738.0532,1095.9511 1737.4925,1096.7707" stroke="red"/>
  <polyline fill="none" points="1737.4925,1096.7707 1714.9068,1129.7842" stroke="red"/>
  <polyline fill="none" points="1714.9068,1129.7842 1714.3578,1130.5866 1713.8087,1131.3889 1713.2594,1132.1911 1712.7099,1132.993 1712.1598,1133.7947 1711.6093,1134.5961 1711.0582,1135.397 1710.5063,1136.1974 1709.9536,1136.9973 1709.4,1137.7965 1708.8454,1138.595 1708.2896,1139.3927 1707.7326,1140.1895 1707.1743,1140.9854 1706.6145,1141.7803 1706.0533,1142.5742 1705.4903,1143.3668 1704.9257,1144.1583 1704.3592,1144.9484 1703.7908,1145.7372 1703.2203,1146.5245 1702.6478,1147.3102 1702.073,1148.0943 1701.4959,1148.8767 1700.9164,1149.6573 1700.3343,1150.4361 1699.7497,1151.2129 1699.1624,1151.9877 1698.5723,1152.7603 1697.9793,1153.5308 1697.3834,1154.2989 1696.7844,1155.0647 1696.1822,1155.828 1695.5768,1156.5887 1694.9681,1157.3468 1694.356,1158.1022" stroke="red"/>
  <polyline fill="none" points="1694.356,1158.1022 1693.7317,1158.8653 1693.1039,1159.6254 1692.4724,1160.3826 1691.8375,1161.1368 1691.199,1161.888 1690.557,1162.6363 1689.9114,1163.3815 1689.2624,1164.1236 1688.6099,1164.8627 1687.954,1165.5988 1687.2946,1166.3317 1686.6317,1167.0616 1685.9655,1167.7883 1685.2958,1168.5119 1684.6227,1169.2323 1683.9463,1169.9496 1683.2665,1170.6637 1682.5834,1171.3745 1681.8969,1172.0822 1681.2072,1172.7866 1680.5141,1173.4878 1679.8177,1174.1858 1679.1181,1174.8804 1678.4152,1175.5718 1677.7091,1176.2598 1676.9997,1176.9446 1676.2872,1177.626 1675.5714,1178.304 1674.8525,1178.9787 1674.1304,1179.65 1673.4052,1180.3179 1672.6769,1180.9823 1671.9454,1181.6434 1671.2109,1182.301 1670.4732,1182.9552 1669.7325,1183.6059 1668.9888,1184.2531 1668.242,1184.8968 1667.4922,1185.537 1666.7394,1186.1736 1665.9837,1186.8067 1665.2249,1187.4363 1664.4633,1188.0623 1663.6986,1188.6847 1662.9311,1189.3035 1662.1607,1189.9187 1661.3874,1190.5303 1660.6112,1191.1383 1659.8322,1191.7426 1659.0504,1192.3432 1658.2657,1192.9402 1657.4783,1193.5334 1656.6881,1194.123 1655.8951,1194.7088 1655.0994,1195.291 1654.3009,1195.8693 1653.4998,1196.4439 1652.696,1197.0148 1651.8895,1197.5819 1651.0803,1198.1451 1650.2685,1198.7046 1649.4541,1199.2603 1648.6371,1199.8121 1647.8175,1200.3601 1646.9953,1200.9042 1646.1706,1201.4445 1645.3434,1201.9809 1644.5136,1202.5134 1643.6814,1203.042 1642.8467,1203.5666 1642.0095,1204.0874" stroke="red"/>
  <polyline fill="none" points="1642.0095,1204.0874 1641.1816,1204.5971 1640.3514,1205.103 1639.519,1205.6054 1638.6845,1206.1042 1637.8479,1206.5995 1637.0094,1207.0915 1636.169,1207.5803 1635.3267,1208.0659 1634.4827,1208.5485 1633.6371,1209.0282 1632.7898,1209.505 1631.941,1209.9791 1631.0908,1210.4506 1630.2391,1210.9196 1629.3862,1211.3861 1628.532,1211.8504 1627.6765,1212.3124 1626.82,1212.7724 1625.9624,1213.2304 1625.1038,1213.6865 1624.2443,1214.1408 1623.3839,1214.5935 1622.5227,1215.0446 1621.6607,1215.4943 1620.798,1215.9426 1619.9347,1216.3898 1619.0708,1216.8358 1618.2064,1217.2808 1617.3416,1217.7249 1616.4763,1218.1683 1615.6108,1218.611 1614.7449,1219.0531 1613.8788,1219.4948 1613.0125,1219.9361 1612.1461,1220.3773 1611.2797,1220.8183" stroke="red"/>
  <polyline fill="none" points="1611.2797,1220.8183 1610.4102,1221.2608 1609.5408,1221.7034 1608.6714,1222.1461 1607.8021,1222.589 1606.933,1223.0322 1606.064,1223.4757 1605.1952,1223.9195 1604.3266,1224.3637 1603.4582,1224.8085 1602.5902,1225.2537 1601.7224,1225.6996 1600.855,1226.1462 1599.9879,1226.5935 1599.1213,1227.0415 1598.2551,1227.4904 1597.3894,1227.9403 1596.5242,1228.3911 1595.6595,1228.8429 1594.7954,1229.2958 1593.9319,1229.7499 1593.069,1230.2052 1592.2068,1230.6617 1591.3454,1231.1196 1590.4846,1231.5788 1589.6246,1232.0395 1588.7654,1232.5017 1587.9071,1232.9655 1587.0497,1233.4309 1586.1931,1233.8979 1585.3375,1234.3667 1584.4829,1234.8373 1583.6293,1235.3098 1582.7768,1235.7842 1581.9254,1236.2605 1581.0751,1236.7388 1580.226,1237.2193 1579.3781,1237.7019 1578.5314,1238.1866 1577.6861,1238.6736 1576.8421,1239.163 1575.9994,1239.6546" stroke="red"/>
  <polyline fill="none" points="1575.9994,1239.6546 1575.1478,1240.1548 1574.2976,1240.6575 1573.4489,1241.1627 1572.6017,1241.6703 1571.756,1242.1803 1570.9117,1242.6929 1570.0689,1243.2078 1569.2276,1243.7253 1568.3879,1244.2451 1567.5496,1244.7674 1566.7129,1245.2921 1565.8777,1245.8193 1565.044,1246.3489 1564.2119,1246.8809 1563.3813,1247.4153 1562.5523,1247.9521 1561.7248,1248.4914 1560.8989,1249.033 1560.0746,1249.577 1559.2519,1250.1234 1558.4308,1250.6723 1557.6112,1251.2234 1556.7933,1251.777 1555.977,1252.333 1555.1623,1252.8913 1554.3492,1253.452 1553.5377,1254.015 1552.7279,1254.5804 1551.9198,1255.1481 1551.1132,1255.7182 1550.3084,1256.2906 1549.5052,1256.8654 1548.7037,1257.4425 1547.9039,1258.0219 1547.1057,1258.6037 1546.3093,1259.1877 1545.5145,1259.7741 1544.7215,1260.3628 1543.9301,1260.9537 1543.1405,1261.547 1542.3526,1262.1426 1541.5665,1262.7404 1540.7821,1263.3406 1539.9994,1263.943 1539.2185,1264.5476 1538.4393,1265.1546 1537.662,1265.7638 1536.8863,1266.3753 1536.1125,1266.989 1535.3405,1267.6049 1534.5702,1268.2231 1533.8017,1268.8436 1533.0351,1269.4662 1532.2703,1270.0911 1531.5072,1270.7182 1530.746,1271.3475 1529.9867,1271.979 1529.2291,1272.6128 1528.4735,1273.2487 1527.7196,1273.8868 1526.9677,1274.5271 1526.2175,1275.1696 1525.4693,1275.8143 1524.7229,1276.4611 1523.9784,1277.1101 1523.2359,1277.7613 1522.4952,1278.4146 1521.7563,1279.0701 1521.0195,1279.7277 1520.2845,1280.3874 1519.5514,1281.0493 1518.8203,1281.7133 1518.0911,1282.3794 1517.3638,1283.0477 1516.6385,1283.718 1515.9151,1284.3905 1515.1937,1285.065 1514.4743,1285.7417 1513.7568,1286.4204 1513.0413,1287.1012 1512.3277,1287.7841" stroke="red"/>
  <polyline fill="none" points="1512.3277,1287.7841 1511.6248,1288.4607 1510.9239,1289.1392 1510.2247,1289.8197 1509.5274,1290.502 1508.8319,1291.1862 1508.138,1291.872 1507.4459,1292.5596 1506.7554,1293.2488 1506.0665,1293.9396 1505.3791,1294.632 1504.6933,1295.3258 1504.0089,1296.0211 1503.3259,1296.7177 1502.6442,1297.4157 1501.9639,1298.115 1501.2849,1298.8156 1500.6071,1299.5173 1499.9305,1300.2201 1499.255,1300.9241 1498.5806,1301.629 1497.9072,1302.335 1497.2349,1303.0419 1496.5634,1303.7497 1495.8929,1304.4584 1495.2232,1305.1678 1494.5543,1305.878 1493.8861,1306.5889 1493.2186,1307.3005 1492.5518,1308.0126 1491.8856,1308.7253 1491.2199,1309.4386 1490.5548,1310.1523 1489.89,1310.8664 1489.2257,1311.5809 1488.5618,1312.2957 1487.8981,1313.0108 1487.2347,1313.7261 1486.5714,1314.4416 1485.9084,1315.1573 1485.2454,1315.873 1484.5825,1316.5888" stroke="red"/>
  <polyline fill="none" points="1484.5825,1316.5888 1463.708,1339.1286" stroke="red"/>
  <polyline fill="none" points="1463.708,1339.1286 1463.036,1339.8542 1462.3639,1340.5798 1461.6917,1341.3053 1461.0194,1342.0306 1460.3469,1342.7558 1459.6741,1343.4807 1459.001,1344.2054 1458.3276,1344.9297 1457.6538,1345.6537 1456.9796,1346.3772 1456.3049,1347.1003 1455.6296,1347.8229 1454.9537,1348.545 1454.2772,1349.2664 1453.6001,1349.9873 1452.9221,1350.7074 1452.2434,1351.4268 1451.5639,1352.1453 1450.8835,1352.8631 1450.2022,1353.58 1449.5199,1354.296 1448.8365,1355.0109 1448.1521,1355.7249 1447.4666,1356.4378 1446.78,1357.1496 1446.0921,1357.8602 1445.403,1358.5696 1444.7125,1359.2777 1444.0207,1359.9845 1443.3276,1360.69 1442.633,1361.394 1441.9369,1362.0966 1441.2393,1362.7976 1440.5401,1363.4971 1439.8393,1364.195 1439.1368,1364.8912 1438.4327,1365.5857 1437.7268,1366.2784 1437.0191,1366.9693 1436.3096,1367.6583 1435.5982,1368.3454 1434.8849,1369.0305 1434.1697,1369.7136 1433.4525,1370.3945 1432.7332,1371.0733 1432.0119,1371.75 1431.2884,1372.4243 1430.5628,1373.0964 1429.835,1373.7661 1429.105,1374.4333 1428.3727,1375.0981 1427.6382,1375.7603" stroke="red"/>
  <polyline fill="none" points="1427.6382,1375.7603 1426.8934,1376.427 1426.1462,1377.0911 1425.3966,1377.7524 1424.6447,1378.4111 1423.8905,1379.0671 1423.1339,1379.7204 1422.375,1380.371 1421.6137,1381.0189 1420.8502,1381.664 1420.0843,1382.3065 1419.3162,1382.9462 1418.5458,1383.5831 1417.7731,1384.2173 1416.9982,1384.8487 1416.221,1385.4774 1415.4415,1386.1032 1414.6599,1386.7263 1413.876,1387.3466 1413.0899,1387.9641 1412.3016,1388.5788 1411.5112,1389.1907 1410.7185,1389.7997 1409.9237,1390.4059 1409.1267,1391.0093 1408.3276,1391.6098 1407.5263,1392.2075 1406.7229,1392.8023 1405.9174,1393.3942 1405.1097,1393.9832 1404.3,1394.5694 1403.4882,1395.1526 1402.6743,1395.733 1401.8584,1396.3104 1401.0404,1396.885 1400.2203,1397.4566 1399.3982,1398.0253 1398.5741,1398.591 1397.748,1399.1538 1396.9198,1399.7136 1396.0897,1400.2705 1395.2576,1400.8244 1394.4235,1401.3754 1393.5874,1401.9233 1392.7494,1402.4683 1391.9095,1403.0103 1391.0676,1403.5493 1390.2239,1404.0852 1389.3782,1404.6182 1388.5306,1405.1481 1387.6811,1405.675 1386.8297,1406.1988 1385.9765,1406.7197 1385.1215,1407.2374 1384.2645,1407.7521 1383.4058,1408.2638 1382.5452,1408.7724 1381.6828,1409.2779 1380.8187,1409.7803 1379.9527,1410.2796 1379.085,1410.7759 1378.2154,1411.269 1377.3442,1411.759 1376.4712,1412.246 1375.5964,1412.7298 1374.72,1413.2104 1373.8418,1413.688 1372.9619,1414.1624 1372.0804,1414.6336 1371.1971,1415.1017 1370.3122,1415.5667 1369.4257,1416.0285 1368.5375,1416.4871 1367.6476,1416.9426 1366.7562,1417.3948 1365.8631,1417.8439 1364.9685,1418.2898 1364.0722,1418.7325 1363.1744,1419.172 1362.275,1419.6083 1361.3741,1420.0413 1360.4716,1420.4712 1359.5676,1420.8978 1358.6621,1421.3212 1357.7551,1421.7414 1356.8466,1422.1583 1355.9366,1422.572 1355.0251,1422.9824 1354.1121,1423.3896 1353.1978,1423.7935 1352.2819,1424.1941 1351.3647,1424.5915 1350.4461,1424.9856 1349.526,1425.3764 1348.6046,1425.7639 1347.6817,1426.1481 1346.7575,1426.529 1345.832,1426.9067 1344.9051,1427.281 1343.9769,1427.652 1343.0474,1428.0197 1342.1165,1428.3841 1341.1844,1428.7451 1340.251,1429.1028 1339.3163,1429.4572 1338.3803,1429.8083 1337.4431,1430.156 1336.5047,1430.5003 1335.5651,1430.8413 1334.6242,1431.1789 1333.6821,1431.5132 1332.7389,1431.8441 1331.7944,1432.1717 1330.8488,1432.4959 1329.9021,1432.8167 1328.9542,1433.1341 1328.0052,1433.4481 1327.0551,1433.7587 1326.1039,1434.066 1325.1515,1434.3698 1324.1981,1434.6703 1323.2437,1434.9673" stroke="red"/>
  <polyline fill="none" points="1323.2437,1434.9673 1322.2983,1435.2579 1321.3519,1435.5451 1320.4046,1435.8292 1319.4563,1436.1101 1318.5071,1436.3879 1317.557,1436.6626 1316.6061,1436.9344 1315.6544,1437.2033 1314.7018,1437.4694 1313.7485,1437.7326 1312.7944,1437.9932 1311.8396,1438.2511 1310.8841,1438.5063 1309.9279,1438.7591 1308.9711,1439.0094 1308.0137,1439.2573 1307.0556,1439.5028 1306.097,1439.7461 1305.1378,1439.9871 1304.1781,1440.226 1303.2179,1440.4628 1302.2571,1440.6976 1301.2959,1440.9304 1300.3342,1441.1614 1299.3721,1441.3905 1298.4096,1441.6178 1297.4467,1441.8435 1296.4834,1442.0675 1295.5197,1442.2899 1294.5557,1442.5108 1293.5913,1442.7303 1292.6267,1442.9484 1291.6617,1443.1652 1290.6965,1443.3808 1289.731,1443.5952 1288.7652,1443.8084 1287.7992,1444.0206 1286.8331,1444.2319 1285.8667,1444.4422 1284.9001,1444.6516 1283.9333,1444.8603 1282.9664,1445.0682 1281.9994,1445.2755 1281.0322,1445.4822 1280.0649,1445.6884 1279.0976,1445.8941 1278.1301,1446.0994 1277.1626,1446.3044 1276.195,1446.5091 1275.2273,1446.7136 1274.2597,1446.918 1273.292,1447.1224" stroke="red"/>
  <polyline fill="none" points="1273.292,1447.1224 1176.1679,1467.6295" stroke="red"/>
  <polyline fill="none" points="1176.1679,1467.6295 1156.5993,1471.7612" stroke="red"/>
  <polyline fill="none" points="1156.5993,1471.7612 1127.2465,1477.9589" stroke="red"/>
  <polyline fill="none" points="1127.2465,1477.9589 1107.6779,1482.0907" stroke="red"/>
  <polyline fill="none" points="1107.6779,1482.0907 1083.2172,1487.2554" stroke="red"/>
  <polyline fill="none" points="1083.2172,1487.2554 1082.2764,1487.454 1081.3356,1487.6526 1080.3948,1487.8511 1079.4539,1488.0495 1078.513,1488.2477 1077.5721,1488.4457 1076.6311,1488.6434 1075.6901,1488.8408 1074.7489,1489.0379 1073.8077,1489.2346 1072.8664,1489.4309 1071.925,1489.6267 1070.9835,1489.8219 1070.0419,1490.0166 1069.1002,1490.2107 1068.1583,1490.4042 1067.2163,1490.5969 1066.2741,1490.789 1065.3318,1490.9802 1064.3893,1491.1706 1063.4466,1491.3602 1062.5038,1491.5488 1061.5607,1491.7365 1060.6175,1491.9232 1059.674,1492.1089 1058.7304,1492.2935" stroke="red"/>
  <polyline fill="none" points="1058.7304,1492.2935 1057.7608,1492.4819 1056.7911,1492.6691 1055.8211,1492.8552 1054.8509,1493.0401 1053.8805,1493.2237 1052.9098,1493.4062 1051.939,1493.5875 1050.9679,1493.7676 1049.9966,1493.9465 1049.025,1494.1242 1048.0533,1494.3007 1047.0813,1494.4761 1046.1091,1494.6502 1045.1367,1494.8232 1044.1641,1494.9949 1043.1913,1495.1655 1042.2183,1495.3349 1041.2451,1495.5031 1040.2716,1495.67 1039.298,1495.8358 1038.3242,1496.0004 1037.3501,1496.1638 1036.3759,1496.3261 1035.4014,1496.4871 1034.4268,1496.6469 1033.452,1496.8055 1032.4769,1496.963 1031.5017,1497.1192 1030.5263,1497.2742 1029.5507,1497.4281 1028.5749,1497.5807 1027.5989,1497.7322 1026.6228,1497.8824 1025.6464,1498.0315 1024.6699,1498.1794 1023.6932,1498.326 1022.7163,1498.4715 1021.7393,1498.6158 1020.762,1498.7588 1019.7846,1498.9007 1018.807,1499.0414 1017.8293,1499.1809 1016.8514,1499.3191 1015.8733,1499.4562 1014.895,1499.5921 1013.9166,1499.7268 1012.938,1499.8603 1011.9592,1499.9925 1010.9803,1500.1236 1010.0012,1500.2535 1009.022,1500.3822 1008.0426,1500.5097 1007.0631,1500.6359 1006.0834,1500.761 1005.1035,1500.8849 1004.1235,1501.0076 1003.1433,1501.129 1002.163,1501.2493 1001.1826,1501.3684 1000.202,1501.4863 999.2212,1501.6029 998.2404,1501.7184 997.2593,1501.8326 996.2782,1501.9457 995.2969,1502.0576 994.3154,1502.1682 993.3339,1502.2777 992.3522,1502.3859 991.3703,1502.493 990.3884,1502.5988 989.4063,1502.7034 988.424,1502.8069 987.4417,1502.9091 986.4592,1503.0101 985.4766,1503.1099 984.4939,1503.2085 983.5111,1503.3059 982.5281,1503.4021 981.545,1503.4971 980.5618,1503.5909 979.5785,1503.6835" stroke="red"/>
  <polyline fill="none" points="979.5785,1503.6835 978.6211,1503.7725 977.6636,1503.8604 976.706,1503.9472 975.7483,1504.0331 974.7905,1504.1179 973.8327,1504.2018 972.8747,1504.2849 971.9167,1504.3671 970.9586,1504.4485 970.0005,1504.5292 969.0422,1504.6092 968.084,1504.6885 967.1257,1504.7672 966.1673,1504.8453 965.2089,1504.9229 964.2505,1505.0 963.292,1505.0767 962.3335,1505.153 961.375,1505.2289 960.4164,1505.3045 959.4578,1505.3799 958.4992,1505.455 957.5406,1505.53 956.582,1505.6048 955.6233,1505.6796 954.6647,1505.7543" stroke="red"/>
  <polyline fill="none" points="954.6647,1505.7543 953.6954,1505.8298 952.7261,1505.9055 951.7569,1505.9815 950.7877,1506.058 949.8185,1506.1351 948.8494,1506.2129 947.8804,1506.2917 946.9114,1506.3715 945.9426,1506.4526 944.9739,1506.5351 944.0053,1506.6191 943.0369,1506.7048 942.0686,1506.7923 941.1005,1506.8819 940.1326,1506.9736 939.1649,1507.0676 938.1975,1507.1641 937.2304,1507.2631 936.2635,1507.365 935.2969,1507.4697 934.3307,1507.5776 933.3648,1507.6886 932.3994,1507.8031 931.4343,1507.921 930.4698,1508.0426 929.5057,1508.1681 928.5421,1508.2976 927.5791,1508.4311 926.6167,1508.569 925.6549,1508.7113 924.6939,1508.8582 923.7336,1509.0098 922.774,1509.1662 921.8153,1509.3277 920.8575,1509.4944 919.9006,1509.6664" stroke="red"/>
  <polyline fill="none" points="919.9006,1509.6664 918.9249,1509.8476 917.9503,1510.0345 916.9768,1510.2271 916.0044,1510.4253 915.0332,1510.6293 914.0633,1510.8388 913.0945,1511.0541 912.1271,1511.275 911.1609,1511.5015 910.1961,1511.7337 909.2326,1511.9715 908.2706,1512.2149 907.31,1512.464 906.3508,1512.7186 905.3932,1512.9788 904.4371,1513.2446 903.4826,1513.516 902.5296,1513.793 901.5783,1514.0755 900.6287,1514.3636 899.6808,1514.6572 898.7346,1514.9563 897.7901,1515.261 896.8475,1515.5711 895.9066,1515.8868 894.9677,1516.2079 894.0306,1516.5346 893.0954,1516.8667 892.1623,1517.2042 891.231,1517.5472 890.3018,1517.8956 889.3747,1518.2494 888.4496,1518.6087 887.5267,1518.9733 886.6059,1519.3433 885.6873,1519.7187 884.7708,1520.0994 883.8567,1520.4855 882.9447,1520.8769 882.0351,1521.2736 881.1278,1521.6756 880.2229,1522.083 879.3204,1522.4956 878.4203,1522.9134 877.5226,1523.3365 876.6275,1523.7648 875.7348,1524.1984 874.8447,1524.6372 873.9572,1525.0811 873.0723,1525.5302 872.19,1525.9845 871.3104,1526.4439 870.4335,1526.9085 869.5593,1527.3781 868.6878,1527.8529 867.8192,1528.3327 866.9534,1528.8176 866.0904,1529.3075 865.2303,1529.8025 864.373,1530.3025 863.5188,1530.8074 862.6675,1531.3174 861.8191,1531.8323 860.9738,1532.3522 860.1316,1532.8769 859.2924,1533.4066 858.4563,1533.9412 857.6234,1534.4807 856.7936,1535.025 855.967,1535.5741 855.1437,1536.1281 854.3236,1536.6868 853.5067,1537.2503 852.6932,1537.8186 851.883,1538.3917 851.0762,1538.9694 850.2727,1539.5519 849.4727,1540.139 848.676,1540.7308 847.8829,1541.3272 847.0933,1541.9282 846.3072,1542.5339 845.5246,1543.1441 844.7456,1543.7589 843.9702,1544.3782 843.1984,1545.002 842.4303,1545.6304 841.6659,1546.2632 840.9052,1546.9004 840.1482,1547.5421 839.395,1548.1882 838.6455,1548.8387 837.8999,1549.4935 837.1581,1550.1527 836.4201,1550.8162 835.6861,1551.484 834.956,1552.1561 834.2297,1552.8324 833.5075,1553.513 832.7892,1554.1977 832.075,1554.8866 831.3648,1555.5797 830.6586,1556.277 829.9565,1556.9783 829.2586,1557.6837 828.5647,1558.3932 827.875,1559.1067 827.1895,1559.8243 826.5082,1560.5458 825.8311,1561.2713 825.1583,1562.0007 824.4897,1562.7341 823.8254,1563.4713 823.1655,1564.2124 822.5098,1564.9574 821.8586,1565.7061 821.2117,1566.4587 820.5692,1567.215 819.9311,1567.975 819.2975,1568.7388 818.6684,1569.5062 818.0437,1570.2773 817.4236,1571.0521 816.808,1571.8304 816.1969,1572.6123 815.5905,1573.3978 814.9886,1574.1868 814.3913,1574.9793 813.7987,1575.7753 813.2107,1576.5747 812.6274,1577.3776" stroke="red"/>
  <polyline fill="none" points="812.6274,1577.3776 812.0605,1578.1674 811.498,1578.9603 810.9398,1579.7563 810.3857,1580.5552 809.8357,1581.3569 809.2897,1582.1613 808.7475,1582.9683 808.2091,1583.7778 807.6742,1584.5897 807.1428,1585.4039 806.6148,1586.2202 806.0901,1587.0387 805.5684,1587.8591 805.0498,1588.6814 804.5341,1589.5056 804.021,1590.3314 803.5107,1591.1589 803.0028,1591.988 802.4973,1592.8184 801.994,1593.6503 801.4929,1594.4834 800.9937,1595.3177 800.4964,1596.1531 800.0009,1596.9895 799.5069,1597.8269 799.0144,1598.6651 798.5232,1599.5042 798.0332,1600.3439 797.5443,1601.1842 797.0563,1602.0251 796.5692,1602.8665 796.0826,1603.7082 795.5967,1604.5503 795.1111,1605.3925 794.6258,1606.235 794.1406,1607.0775" stroke="red"/>
  <polyline fill="none" points="794.1406,1607.0775 793.6654,1607.9028 793.1901,1608.7281 792.7147,1609.5534 792.2392,1610.3786 791.7636,1611.2037 791.2878,1612.0287 790.8117,1612.8535 790.3354,1613.6783 789.8588,1614.5028 789.3818,1615.3271 788.9045,1616.1513 788.4267,1616.9751 787.9485,1617.7987 787.4698,1618.6221 786.9906,1619.4451 786.5107,1620.2678 786.0303,1621.0901 785.5493,1621.9121 785.0675,1622.7336 784.5851,1623.5547 784.1019,1624.3754" stroke="red"/>
  <polyline fill="none" points="784.1019,1624.3754 783.5936,1625.2367 783.0845,1626.0974 782.5746,1626.9576 782.0637,1627.8172 781.552,1628.6764 781.0394,1629.535 780.5259,1630.3931 780.0116,1631.2507 779.4964,1632.1078 778.9803,1632.9643 778.4633,1633.8203 777.9455,1634.6758 777.4268,1635.5308 776.9073,1636.3852 776.3869,1637.2391 775.8656,1638.0925 775.3434,1638.9454 774.8204,1639.7977 774.2965,1640.6495 773.7717,1641.5007 773.2461,1642.3514 772.7196,1643.2016 772.1923,1644.0513 771.6641,1644.9004 771.135,1645.749 770.6051,1646.597 770.0743,1647.4445 769.5426,1648.2915 769.0101,1649.1379 768.4767,1649.9837 767.9425,1650.8291 767.4074,1651.6739 766.8714,1652.5181 766.3346,1653.3618 765.797,1654.205 765.2584,1655.0476 764.719,1655.8897 764.1788,1656.7312 763.6377,1657.5721 763.0958,1658.4125 762.553,1659.2524 762.0093,1660.0917 761.4648,1660.9305 760.9195,1661.7687 760.3733,1662.6063 759.8262,1663.4434 759.2783,1664.28 758.7295,1665.1159 758.1799,1665.9514 757.6295,1666.7862 757.0782,1667.6205 756.526,1668.4543 755.973,1669.2875 755.4192,1670.1201 754.8645,1670.9521 754.309,1671.7836 753.7526,1672.6146 753.1954,1673.4449 752.6373,1674.2747 752.0784,1675.104 751.5186,1675.9326 750.958,1676.7607 750.3966,1677.5882 749.8343,1678.4152 749.2712,1679.2416 748.7073,1680.0674 748.1425,1680.8926 747.5768,1681.7173 747.0104,1682.5413 746.4431,1683.3648 745.8749,1684.1878 745.3059,1685.0101 744.7361,1685.8319 744.1655,1686.6531 743.594,1687.4737 743.0217,1688.2937 742.4485,1689.1132 741.8746,1689.9321 741.2997,1690.7504 740.7241,1691.5681 740.1476,1692.3852 739.5703,1693.2017 738.9922,1694.0176 738.4132,1694.833 737.8334,1695.6478 737.2528,1696.4619 736.6714,1697.2755 736.0891,1698.0885 735.506,1698.9009 734.9221,1699.7127" stroke="red"/>
  <polyline fill="none" points="734.9221,1699.7127 734.3652,1700.4853 733.8076,1701.2574 733.2494,1702.029 732.6905,1702.8002 732.131,1703.5709 731.5709,1704.3411 731.0103,1705.111 730.4492,1705.8806 729.8876,1706.6498 729.3256,1707.4187 728.7632,1708.1873 728.2005,1708.9556 727.6375,1709.7238 727.0741,1710.4917 726.5105,1711.2594 725.9467,1712.027 725.3828,1712.7944 724.8186,1713.5617 724.2544,1714.329 723.6901,1715.0962 723.1258,1715.8634" stroke="red"/>
  <polyline fill="none" points="723.1258,1715.8634 679.8698,1774.6674" stroke="red"/>
  <polyline fill="none" points="302.4498,1502.8317 298.6513,1498.5533" stroke="red"/>
  <polyline fill="none" points="298.6513,1498.5533 298.0479,1497.8734 297.445,1497.1929 296.8434,1496.5114 296.2437,1495.8281 295.6466,1495.1427 295.0525,1494.4545 294.4623,1493.7631 293.8765,1493.0679 293.2958,1492.3684 292.721,1491.6642 292.1526,1490.9547" stroke="red"/>
  <polyline fill="none" points="292.1526,1490.9547 291.545,1490.1798 290.9459,1489.3984 290.3554,1488.6105 289.7735,1487.8161 289.2004,1487.0155 288.6361,1486.2086 288.0806,1485.3956 287.5341,1484.5765 286.9965,1483.7515 286.468,1482.9207 285.9486,1482.0842 285.4384,1481.242 284.9375,1480.3943 284.4458,1479.5412 283.9636,1478.6827 283.4907,1477.819 283.0273,1476.9502 282.5735,1476.0764 282.1292,1475.1977 281.6946,1474.3141 281.2697,1473.4259 280.8545,1472.533 280.4491,1471.6357 280.0535,1470.734 279.6679,1469.828 279.2921,1468.9179 278.9264,1468.0036 278.5707,1467.0855 278.225,1466.1635 277.8895,1465.2378 277.5641,1464.3085 277.2488,1463.3756 276.9439,1462.4394 276.6491,1461.4999 276.3647,1460.5572 276.0906,1459.6115 275.8269,1458.6628 275.5735,1457.7113 275.3306,1456.7571 275.0981,1455.8002 274.8761,1454.8409 274.6647,1453.8792 274.4637,1452.9153 274.2733,1451.9492 274.0935,1450.9811 273.9243,1450.0111 273.7658,1449.0393 273.6178,1448.0658 273.4805,1447.0908 273.3539,1446.1143 273.238,1445.1365 273.1328,1444.1575 273.0383,1443.1774 272.9546,1442.1963 272.8816,1441.2143 272.8193,1440.2317 272.7678,1439.2484" stroke="red"/>
  <polyline fill="none" points="272.7678,1439.2484 272.7296,1438.3401 272.6998,1437.4315 272.6775,1436.5227 272.6619,1435.6137 272.6521,1434.7047 272.6473,1433.7956 272.6467,1432.8865 272.6495,1431.9774 272.6547,1431.0683 272.6616,1430.1593 272.6694,1429.2502" stroke="red"/>
  <polyline fill="none" points="272.6694,1429.2502 272.7247,1422.8749" stroke="red"/>
  <polyline fill="none" points="272.7247,1422.8749 272.7323,1421.9861 272.7395,1421.0972 272.7455,1420.2084 272.7501,1419.3195 272.7525,1418.4306 272.7524,1417.5417 272.7492,1416.6528 272.7424,1415.764 272.7314,1414.8751" stroke="red"/>
  <polyline fill="none" points="272.7314,1414.8751 272.7144,1413.9153 272.692,1412.9556 272.6642,1411.996 272.631,1411.0365 272.5924,1410.0773 272.5483,1409.1183 272.4988,1408.1596 272.444,1407.2012 272.3837,1406.2431 272.318,1405.2853 272.2468,1404.328 272.1703,1403.371 272.0884,1402.4145 272.0011,1401.4585 271.9084,1400.503 271.8103,1399.548 271.7068,1398.5936 271.5979,1397.6398 271.4836,1396.6866 271.3639,1395.7341 271.2389,1394.7823 271.1085,1393.8312 270.9727,1392.8809 270.8316,1391.9313 270.6851,1390.9825" stroke="red"/>
  <polyline fill="none" points="270.6851,1390.9825 270.5447,1390.1048 270.4003,1389.2277 270.2523,1388.3512 270.1013,1387.4753 269.9477,1386.5998 269.7921,1385.7246 269.635,1384.8497 269.4768,1383.975 269.3181,1383.1004" stroke="red"/>
  <polyline fill="none" points="269.3181,1383.1004 269.1395,1382.1165" stroke="red"/>
  <polyline fill="none" points="269.1395,1382.1165 268.5024,1378.6063" stroke="red"/>
  <polyline fill="none" points="268.5024,1378.6063 268.3307,1377.6637 268.1556,1376.7217 267.9737,1375.7809 267.7816,1374.8422 267.576,1373.9064 267.3535,1372.9744 267.1108,1372.0475 266.8447,1371.1271 266.5521,1370.2147 266.23,1369.3124" stroke="red"/>
  <polyline fill="none" points="266.23,1369.3124 265.8711,1368.41 265.4793,1367.5215 265.0552,1366.6478 264.5993,1365.7903 264.1124,1364.9501 263.595,1364.1283 263.0479,1363.326 262.4717,1362.5442 261.8673,1361.7841 261.2354,1361.0467 260.577,1360.3329 259.8928,1359.6437 259.1839,1358.98 258.4511,1358.3428 257.6954,1357.7328 256.9179,1357.1509 256.1197,1356.5979 255.3017,1356.0745 254.465,1355.5815 253.6109,1355.1194 252.7404,1354.6889 251.8547,1354.2906 250.955,1353.925 250.0426,1353.5926 249.1185,1353.2939 248.1842,1353.0292 247.2408,1352.7989 246.2895,1352.6034 245.3318,1352.4428 244.3688,1352.3174 243.4018,1352.2274 242.4323,1352.1729 241.4613,1352.1539" stroke="red"/>
  <polyline fill="none" points="241.4613,1352.1539 240.5033,1352.1695 239.5463,1352.2162 238.5911,1352.2906 237.638,1352.3892 236.6873,1352.5084 235.7389,1352.6447 234.7926,1352.7948 233.8479,1352.9551 232.9045,1353.1222 231.9616,1353.2928" stroke="red"/>
  <polyline fill="none" points="231.9616,1353.2928 228.4515,1353.9299" stroke="red"/>
  <polyline fill="none" points="228.4515,1353.9299 214.7428,1356.4182" stroke="red"/>
  <polyline fill="none" points="214.7428,1356.4182 213.7894,1356.5913 212.8362,1356.7649 211.8831,1356.9393 210.9303,1357.1151 209.9778,1357.2926 209.0257,1357.4723 208.0742,1357.6547 207.1232,1357.8402 206.1729,1358.0292 205.2234,1358.2222 204.2748,1358.4195 203.3273,1358.6217 202.3808,1358.8292 201.4357,1359.0423 200.4919,1359.2616 199.5497,1359.4875 198.6092,1359.7203 197.6706,1359.9605 196.734,1360.2086" stroke="red"/>
  <polyline fill="none" points="196.734,1360.2086 195.7739,1360.472 194.8162,1360.7441 193.8611,1361.0248 192.9085,1361.3142 191.9586,1361.6121 191.0114,1361.9187 190.067,1362.2338 189.1255,1362.5575 188.187,1362.8896 187.2516,1363.2303 186.3192,1363.5794 185.3901,1363.9369 184.4642,1364.3028 183.5417,1364.677 182.6226,1365.0597 181.707,1365.4506 180.795,1365.8497 179.8866,1366.2572 178.9819,1366.6728 178.0811,1367.0966 177.1841,1367.5285 176.2911,1367.9685 175.4021,1368.4166 174.5172,1368.8728 173.6364,1369.3369 172.7599,1369.8089 171.8877,1370.2889 171.0198,1370.7768 170.1565,1371.2724 169.2976,1371.7759 168.4433,1372.2872 167.5937,1372.8061 166.7489,1373.3327 165.9088,1373.8669 165.0736,1374.4088 164.2433,1374.9581 163.4181,1375.515 162.5979,1376.0792 161.7828,1376.6509 160.973,1377.23 160.1684,1377.8163" stroke="red"/>
  <polyline fill="none" points="160.1684,1377.8163 159.3905,1378.3939 158.6174,1378.9779 157.8489,1379.568 157.0849,1380.1638 156.3249,1380.7649 155.569,1381.3709 154.8166,1381.9815 154.0677,1382.5962 153.3219,1383.2147 152.5791,1383.8367 151.8388,1384.4618 151.1008,1385.0896 150.3649,1385.7198 149.6307,1386.3521 148.898,1386.9861 148.1664,1387.6214 147.4358,1388.2577 146.7057,1388.8947 145.976,1389.5321" stroke="red"/>
  <polyline fill="none" points="145.976,1389.5321 88.7241,1439.542" stroke="red"/>
  <polyline fill="none" points="88.7241,1439.542 87.9948,1440.179 87.2656,1440.8163 86.5367,1441.4538 85.8081,1442.0917 85.08,1442.7302 84.3526,1443.3694 83.6258,1444.0094 82.9,1444.6504 82.1751,1445.2925 81.4513,1445.9358 80.7287,1446.5805 80.0075,1447.2268 79.2878,1447.8747 78.5697,1448.5244 77.8534,1449.176 77.1389,1449.8297 76.4264,1450.4855 75.7161,1451.1437 75.0081,1451.8043 74.3024,1452.4675 73.5993,1453.1334 72.8989,1453.8021 72.2012,1454.4737" stroke="red"/>
  <polyline fill="none" points="72.2012,1454.4737 71.4967,1455.158 70.7952,1455.8454 70.0968,1456.536 69.4015,1457.2297 68.7093,1457.9265 68.0202,1458.6263 67.3343,1459.3293 66.6515,1460.0353 65.9718,1460.7443 65.2954,1461.4563 64.6221,1462.1714 63.952,1462.8895 63.2851,1463.6105 62.6214,1464.3346 61.961,1465.0615 61.3038,1465.7915 60.6499,1466.5243 59.9993,1467.2601 59.352,1467.9987 58.708,1468.7403 58.0673,1469.4847 57.4299,1470.2319 56.7958,1470.982 56.1652,1471.7349 55.5378,1472.4907 54.9139,1473.2492 54.2934,1474.0105 53.6762,1474.7745 53.0625,1475.5413 52.4522,1476.3109 51.8454,1477.0831 51.242,1477.8581 50.6421,1478.6357 50.0456,1479.4161 49.4526,1480.199 48.8632,1480.9846 48.2772,1481.7729 47.6948,1482.5637 47.1159,1483.3572 46.5406,1484.1532 45.9688,1484.9517 45.4006,1485.7529 44.836,1486.5565 44.2749,1487.3627 43.7175,1488.1713 43.1637,1488.9824 42.6135,1489.796 42.067,1490.6121" stroke="red"/>
  <polyline fill="none" points="42.067,1490.6121 41.5316,1491.419 40.9997,1492.2282 40.471,1493.0396 39.9455,1493.8529 39.4229,1494.6682 38.9031,1495.4852 38.386,1496.304 37.8713,1497.1243 37.3591,1497.9461 36.849,1498.7693 36.341,1499.5937 35.8349,1500.4193 35.3305,1501.2459 34.8277,1502.0736 34.3264,1502.9021 33.8263,1503.7313 33.3273,1504.5612 32.8292,1505.3917 32.332,1506.2227 31.8354,1507.0541 31.3393,1507.8857 30.8435,1508.7175 30.3478,1509.5494" stroke="red"/>
  <polyline fill="none" points="30.3478,1509.5494 27.7888,1513.8449" stroke="red"/>
  <polyline fill="none" points="27.7888,1513.8449 21.9411,1523.6608" stroke="red"/>
  <polyline fill="none" points="21.9411,1523.6608 21.4378,1524.5058 20.9348,1525.3509 20.4325,1526.1964 19.9312,1527.0425 19.4312,1527.8894 18.9328,1528.7372 18.4364,1529.5862 17.9423,1530.4366 17.4508,1531.2885 16.9623,1532.142 16.4771,1532.9975 15.9955,1533.855 15.518,1534.7147 15.0447,1535.5769 14.5762,1536.4416 14.1126,1537.3089 13.6545,1538.1792 13.202,1539.0524 12.7557,1539.9288 12.3158,1540.8084 11.8828,1541.6914 11.4569,1542.5779 11.0386,1543.468 10.6282,1544.3617 10.2262,1545.2593 9.8328,1546.1607 9.4486,1547.0659 9.0738,1547.9752 8.7088,1548.8885 8.3542,1549.8058 8.0102,1550.7271" stroke="red"/>
  <polyline fill="none" points="8.0102,1550.7271 7.6735,1551.6633 7.3481,1552.6034 7.0342,1553.5474 6.7317,1554.4952 6.4407,1555.4465 6.1614,1556.4014 5.8936,1557.3595 5.6375,1558.3208 5.393,1559.2852 5.1603,1560.2524 4.9393,1561.2224 4.7301,1562.1951 4.5327,1563.1701 4.3472,1564.1475 4.1735,1565.1271 4.0118,1566.1087 3.8619,1567.0922 3.724,1568.0775 3.5981,1569.0644 3.4841,1570.0527 3.3822,1571.0423 3.2922,1572.0331 3.2143,1573.0249 3.1484,1574.0175 3.0946,1575.0109 3.0528,1576.0049 3.0231,1576.9993 3.0055,1577.994 2.9999,1578.9889 3.0064,1579.9837 3.0249,1580.9784 3.0556,1581.9728 3.0982,1582.9667 3.153,1583.9601 3.2198,1584.9527 3.2986,1585.9444 3.3895,1586.9351 3.4923,1587.9246 3.6072,1588.9128 3.7341,1589.8996 3.8729,1590.8847 4.0236,1591.8681 4.1863,1592.8495 4.3609,1593.8289 4.5473,1594.8062 4.7456,1595.7811 4.9557,1596.7535 5.1775,1597.7233 5.4112,1598.6903 5.6565,1599.6545 5.9135,1600.6155 6.1822,1601.5734 6.4624,1602.528 6.7542,1603.4791 7.0576,1604.4266 7.3724,1605.3703 7.6986,1606.3102 8.0362,1607.246 8.3852,1608.1776 8.7454,1609.105 9.1168,1610.0279 9.4995,1610.9462 9.8932,1611.8599 10.298,1612.7686 10.7137,1613.6725 11.1405,1614.5712 11.578,1615.4646 12.0264,1616.3527 12.4856,1617.2353 12.9554,1618.1122 13.4358,1618.9834 13.9267,1619.8487 14.4281,1620.7079 14.9399,1621.561 15.462,1622.4079 15.9944,1623.2483 16.5369,1624.0822 17.0895,1624.9095 17.652,1625.73 18.2245,1626.5437 18.8068,1627.3503 19.3989,1628.1498 20.0006,1628.9421 20.6119,1629.727 21.2326,1630.5044 21.8628,1631.2742 22.5022,1632.0364 23.1509,1632.7907 23.8086,1633.5371 24.4754,1634.2755 25.151,1635.0057 25.8355,1635.7277 26.5287,1636.4413 27.2305,1637.1464 27.9407,1637.843 28.6594,1638.5309 29.3864,1639.2101 30.1216,1639.8804 30.8648,1640.5417 31.616,1641.1939 32.3751,1641.837 33.1419,1642.4708 33.9164,1643.0953" stroke="red"/>
  <polyline fill="none" points="33.9164,1643.0953 34.6893,1643.7034 35.4692,1644.3025 36.2559,1644.8928 37.0488,1645.4745 37.8478,1646.0479 38.6525,1646.6133 39.4627,1647.1709 40.278,1647.7209 41.0982,1648.2636 41.9229,1648.7993 42.752,1649.3283 43.5851,1649.8509 44.4221,1650.3674 45.2627,1650.878 46.1065,1651.383 46.9535,1651.8828 47.8034,1652.3778 48.656,1652.868 49.511,1653.354 50.3682,1653.8361 51.2275,1654.3144 52.0886,1654.7895 52.9514,1655.2615 53.8157,1655.7309 54.6812,1656.1979 55.5478,1656.6629 56.4153,1657.1263 57.2835,1657.5883 58.1522,1658.0493 59.0213,1658.5096 59.8906,1658.9696" stroke="red"/>
  <polyline fill="none" points="59.8906,1658.9696 68.7297,1663.6461" stroke="red"/>
  <polyline fill="none" points="68.7297,1663.6461 111.2473,1686.1408" stroke="red"/>
  <polyline fill="none" points="111.2473,1686.1408 112.1063,1686.5952 112.9655,1687.0491 113.8253,1687.5022 114.6857,1687.9538 115.5471,1688.4037 116.4097,1688.8513 117.2737,1689.2962 118.1393,1689.7379 119.0067,1690.176 119.8762,1690.6099 120.748,1691.0393 121.6223,1691.4637 122.4992,1691.8825 123.3789,1692.2953 124.2617,1692.7017 125.1476,1693.101 126.0368,1693.493 126.9296,1693.8769 127.8259,1694.2524 128.7259,1694.619 129.6297,1694.9761 130.5374,1695.3232 131.449,1695.6597 132.3646,1695.9853 133.2843,1696.2993 134.208,1696.6011 135.1358,1696.8904 136.0675,1697.1664 137.0032,1697.4287" stroke="red"/>
  <polyline fill="none" points="137.0032,1697.4287 137.9675,1697.6832 138.9357,1697.9225 139.9075,1698.1467 140.8827,1698.3557 141.861,1698.5494 142.8422,1698.7277 143.8261,1698.8908 144.8125,1699.0384 145.801,1699.1706 146.7914,1699.2873 147.7836,1699.3886 148.7772,1699.4743 149.7721,1699.5444 150.7679,1699.5991 151.7644,1699.6381 152.7615,1699.6616 153.7588,1699.6695 154.756,1699.6617 155.7531,1699.6385 156.7496,1699.5996 157.7455,1699.5451 158.7403,1699.4751 159.734,1699.3896 160.7262,1699.2885 161.7166,1699.172 162.7052,1699.0399 163.6915,1698.8925 164.6755,1698.7296 165.6567,1698.5514 166.6351,1698.3579 167.6103,1698.1491 168.5821,1697.9251 169.5503,1697.6859 170.5147,1697.4316 171.4749,1697.1623 172.4309,1696.878 173.3823,1696.5788 174.3288,1696.2648 175.2704,1695.936 176.2067,1695.5925 177.1375,1695.2344 178.0626,1694.8619 178.9818,1694.4749 179.8948,1694.0736 180.8015,1693.6581 181.7015,1693.2284 182.5947,1692.7848 183.4809,1692.3272 184.3598,1691.8559 185.2312,1691.3708 186.0949,1690.8723 186.9508,1690.3602 187.7985,1689.8349 188.6379,1689.2963 189.4688,1688.7448 190.291,1688.1803 191.1042,1687.603 191.9084,1687.0131 192.7032,1686.4106 193.4885,1685.7959 194.2641,1685.1689 195.0298,1684.5299 195.7854,1683.879 196.5308,1683.2163 197.2657,1682.5421 197.9899,1681.8565 198.7034,1681.1597 199.4059,1680.4518 200.0973,1679.733" stroke="red"/>
  <polyline fill="none" points="200.0973,1679.733 200.7601,1679.0223 201.4124,1678.302 202.0544,1677.5725 202.6864,1676.8343 203.3087,1676.0879 203.9215,1675.3337 204.5251,1674.5721 205.1199,1673.8036 205.7062,1673.0286 206.2844,1672.2475 206.8547,1671.4607 207.4175,1670.6684 207.9732,1669.8713 208.5223,1669.0694 209.065,1668.2633 209.6017,1667.4532 210.1329,1666.6394 210.659,1665.8223 211.1803,1665.0022 211.6974,1664.1794 212.2105,1663.3541 212.7202,1662.5267 213.2268,1661.6974 213.7308,1660.8665 214.2326,1660.0343 214.7327,1659.2011 215.2314,1658.367 215.7293,1657.5325 216.2267,1656.6976" stroke="red"/>
  <polyline fill="none" points="216.2267,1656.6976 219.4419,1651.3008" stroke="red"/>
  <polyline fill="none" points="495.607,1682.5737 439.2196,1641.0952" stroke="red"/>
  <polyline fill="none" points="439.2196,1641.0952 438.4525,1640.5309 437.6854,1639.9664 436.9184,1639.4018 436.1516,1638.8369 435.3852,1638.2717 434.619,1637.7059 433.8533,1637.1397 433.088,1636.5728 432.3232,1636.0051 431.5591,1635.4367 430.7957,1634.8673 430.033,1634.2969 429.2711,1633.7255 428.5101,1633.1528 427.7501,1632.5789 426.9911,1632.0036 426.2332,1631.4269 425.4764,1630.8486 424.721,1630.2688 423.9668,1629.6872 423.214,1629.1038" stroke="red"/>
  <polyline fill="none" points="423.214,1629.1038 422.4381,1628.4993 421.6637,1627.8928 420.8909,1627.2843 420.1197,1626.6738 419.3501,1626.0613 418.582,1625.4468 417.8156,1624.8304 417.0507,1624.2119 416.2875,1623.5915 415.5258,1622.9691 414.7658,1622.3448 414.0074,1621.7184 413.2506,1621.0901 412.4954,1620.4599 411.7419,1619.8277 410.99,1619.1935 410.2398,1618.5574 409.4912,1617.9194 408.7442,1617.2794 407.9989,1616.6375 407.2553,1615.9937 406.5134,1615.348 405.7731,1614.7003 405.0345,1614.0507 404.2976,1613.3992 403.5624,1612.7458 402.8288,1612.0905 402.097,1611.4333 401.3669,1610.7742 400.6385,1610.1133 399.9118,1609.4504 399.1868,1608.7857 398.4635,1608.119 397.742,1607.4506 397.0222,1606.7802 396.3041,1606.108 395.5878,1605.434 394.8732,1604.758 394.1604,1604.0803 393.4493,1603.4007 392.74,1602.7192 392.0325,1602.0359 391.3267,1601.3508 390.6227,1600.6639 389.9205,1599.9752 389.2201,1599.2846 388.5214,1598.5922 387.8246,1597.898 387.1295,1597.202 386.4363,1596.5043 385.7449,1595.8047 385.0552,1595.1033 384.3674,1594.4002 383.6815,1593.6953 382.9973,1592.9886 382.315,1592.2801 381.6345,1591.5699 380.9559,1590.8579 380.2791,1590.1441 379.6041,1589.4287 378.931,1588.7114" stroke="red"/>
  <polyline fill="none" points="378.931,1588.7114 378.2811,1588.0153 377.6328,1587.3177 376.986,1586.6185 376.3408,1585.918 375.697,1585.2162 375.0546,1584.5131 374.4134,1583.8089 373.7734,1583.1037 373.1344,1582.3974 372.4965,1581.6902 371.8595,1580.9822 371.2234,1580.2734 370.588,1579.564 369.9533,1578.8539 369.3192,1578.1433 368.6856,1577.4323 368.0525,1576.7209 367.4196,1576.0091 366.7871,1575.2972 366.1547,1574.5851 365.5223,1573.8729" stroke="red"/>
  <polyline fill="none" points="365.5223,1573.8729 348.9243,1555.1778" stroke="red"/>
  <polyline fill="none" points="551.9945,1724.0521 630.9368,1782.1219" stroke="red"/>
  <polyline fill="none" points="638.3913,1831.0548 612.4656,1866.2993" stroke="red"/>
  <polyline fill="none" points="503.0615,1731.5066 497.1361,1739.5619" stroke="red"/>
  <polyline fill="none" points="497.1361,1739.5619 496.5892,1740.3056 496.0429,1741.0497 495.4979,1741.7946 494.9547,1742.5409 494.4139,1743.289 493.8761,1744.0393 493.3421,1744.7922 492.8123,1745.5481 492.2875,1746.3075 491.7683,1747.0707 491.2553,1747.8381 490.7492,1748.6101 490.2507,1749.3869" stroke="red"/>
  <polyline fill="none" points="490.2507,1749.3869 489.7242,1750.2274 489.2073,1751.0738 488.7001,1751.926 488.2026,1752.7839 487.7149,1753.6474 487.2371,1754.5164 486.7692,1755.3909 486.3113,1756.2705 485.8634,1757.1554 485.4256,1758.0453 484.998,1758.9401 484.5806,1759.8397 484.1735,1760.744 483.7767,1761.6529 483.3902,1762.5662 483.0142,1763.4839 482.6487,1764.4058 482.2937,1765.3318 481.9492,1766.2618 481.6154,1767.1957 481.2922,1768.1332 480.9797,1769.0745 480.6779,1770.0192 480.387,1770.9672 480.1068,1771.9186 479.8375,1772.873 479.579,1773.8305 479.3315,1774.7908 479.0949,1775.7539 478.8693,1776.7197 478.6548,1777.6879 478.4512,1778.6585 478.2587,1779.6314 478.0773,1780.6064 477.9071,1781.5834 477.7479,1782.5623 477.5999,1783.5429 477.4631,1784.5252 477.3375,1785.5089 477.223,1786.494 477.1198,1787.4804 477.0279,1788.4678 476.9472,1789.4562 476.8777,1790.4455 476.8195,1791.4356 476.7726,1792.4262 476.737,1793.4173 476.7126,1794.4087 476.6996,1795.4004 476.6978,1796.3921 476.7073,1797.3838 476.7282,1798.3753 476.7603,1799.3665 476.8036,1800.3573 476.8583,1801.3475 476.9242,1802.337 477.0014,1803.3257 477.0899,1804.3135 477.1896,1805.3002 477.3005,1806.2857 477.4226,1807.2699 477.5559,1808.2527 477.7004,1809.2338 477.8561,1810.2132 478.0229,1811.1908 478.2008,1812.1665 478.3898,1813.14 478.5899,1814.1114 478.801,1815.0804 479.0232,1816.0469 479.2563,1817.0108 479.5004,1817.972 479.7554,1818.9304 480.0214,1819.8858 480.2981,1820.8382 480.5857,1821.7873 480.8841,1822.7331 481.1933,1823.6754 481.5131,1824.6141 481.8436,1825.5491 482.1848,1826.4804 482.5365,1827.4076 482.8987,1828.3308 483.2715,1829.2498 483.6547,1830.1646 484.0482,1831.0748 484.4521,1831.9806 484.8663,1832.8817 485.2907,1833.778 485.7253,1834.6695 486.1701,1835.5559 486.6248,1836.4372 487.0896,1837.3133 487.5644,1838.184 488.049,1839.0492 488.5434,1839.9089 489.0476,1840.7629 489.5615,1841.6112 490.085,1842.4535 490.618,1843.2897 491.1606,1844.1199 491.7125,1844.9438 492.2738,1845.7614 492.8444,1846.5726 493.4242,1847.3772 494.0131,1848.1752 494.611,1848.9664 495.2179,1849.7507 495.8337,1850.5281 496.4583,1851.2984 497.0917,1852.0616 497.7337,1852.8174 498.3842,1853.566 499.0432,1854.3071 499.7107,1855.0406 500.3864,1855.7665 501.0704,1856.4846 501.7624,1857.195 502.4626,1857.8973 503.1707,1858.5917 503.8866,1859.278" stroke="red"/>
  <polyline fill="none" points="503.8866,1859.278 504.5599,1859.9095 505.2393,1860.5343 505.9243,1861.1531 506.6143,1861.7662 507.3088,1862.3743 508.0072,1862.9778 508.7091,1863.5774 509.4139,1864.1735 510.1211,1864.7667 510.8303,1865.3576 511.5409,1865.9468 512.2524,1866.5348 512.9644,1867.1222" stroke="red"/>
  <polyline fill="none" points="512.9644,1867.1222 519.6042,1872.5985" stroke="red"/>
  <polyline fill="none" points="299.514,1552.242 274.4822,1574.466" stroke="red"/>
  <polyline fill="none" points="274.4822,1574.466 273.7743,1575.0946 273.0667,1575.7237 272.3598,1576.3535 271.654,1576.9845 270.9496,1577.6171 270.247,1578.2516 269.5465,1578.8885 268.8486,1579.5282 268.1535,1580.171 267.4616,1580.8173 266.7734,1581.4674 266.0892,1582.1218 265.4094,1582.7807" stroke="red"/>
  <polyline fill="none" points="265.4094,1582.7807 264.7051,1583.4735 264.0061,1584.1717 263.3124,1584.8751 262.6241,1585.5838 261.9412,1586.2977 261.2637,1587.0168 260.5918,1587.741 259.9253,1588.4703 259.2644,1589.2047 258.6091,1589.944 257.9594,1590.6883 257.3155,1591.4375 256.6772,1592.1916 256.0447,1592.9505 255.4179,1593.7142 254.797,1594.4826 254.182,1595.2558 253.5728,1596.0336 252.9695,1596.8159 252.3723,1597.6029 251.781,1598.3944 251.1958,1599.1903 250.6166,1599.9907 250.0435,1600.7954 249.4765,1601.6045 248.9158,1602.4179 248.3612,1603.2355 247.8128,1604.0573" stroke="red"/>
  <polyline fill="none" points="247.8128,1604.0573 247.2931,1604.8486 246.7788,1605.6435 246.2693,1606.4414 245.7644,1607.2423 245.2634,1608.0456 244.7661,1608.8512 244.272,1609.6588 243.7805,1610.468 243.2913,1611.2786 242.804,1612.0902 242.318,1612.9027 241.8329,1613.7158 241.3483,1614.5291" stroke="red"/>
  <polyline fill="none" points="241.3483,1614.5291 229.6779,1634.1187" stroke="red"/>
  <polyline fill="none" points="229.6779,1634.1187 219.4419,1651.3008" stroke="red"/>
  <polyline fill="none" points="1802.2223,834.94 1802.2223,781.9791" stroke="red"/>
  <polyline fill="none" points="1802.2223,781.9791 1802.2223,751.9791" stroke="red"/>
  <polyline fill="none" points="1802.2223,751.9791 1802.2223,691.9791" stroke="red"/>
  <polyline fill="none" points="1802.2223,691.9791 1802.2223,591.9791" stroke="red"/>
  <polyline fill="none" points="1802.2223,591.9791 1802.2224,590.991 1802.2227,590.0028 1802.2238,589.0147 1802.2258,588.0265 1802.2291,587.0384 1802.2341,586.0503 1802.241,585.0622 1802.2502,584.0741 1802.262,583.086 1802.2767,582.0979 1802.2947,581.11 1802.3163,580.1221 1802.3419,579.1343 1802.3716,578.1466 1802.406,577.159 1802.4452,576.1717 1802.4897,575.1845 1802.5397,574.1976 1802.5955,573.2111 1802.6576,572.2249 1802.7262,571.2391 1802.8016,570.2539 1802.8842,569.2692" stroke="red"/>
  <polyline fill="none" points="1802.8842,569.2663 1802.9742,568.2816 1803.0718,567.2975 1803.1768,566.3143 1803.2894,565.3318 1803.4094,564.3503 1803.5368,563.3696 1803.6717,562.39 1803.8141,561.4115 1803.9639,560.434 1804.1211,559.4577 1804.2857,558.4827 1804.4578,557.5089 1804.6373,556.5364 1804.8241,555.5654 1805.0184,554.5958 1805.22,553.6277 1805.4289,552.6612 1805.6452,551.6963 1805.8689,550.733 1806.0999,549.7715 1806.3381,548.8118 1806.5837,547.8539 1806.8365,546.8979 1807.0966,545.9439 1807.364,544.9918 1807.6386,544.0418 1807.9204,543.094 1808.2094,542.1483 1808.5056,541.2048 1808.809,540.2637 1809.1195,539.3248 1809.4371,538.3884 1809.7619,537.4543 1810.0938,536.5228 1810.4327,535.5939 1810.7787,534.6675 1811.1317,533.7438 1811.4917,532.8228 1811.8588,531.9046 1812.2328,530.9892 1812.6138,530.0766 1813.0016,529.167 1813.3964,528.2604 1813.7981,527.3568 1814.2067,526.4563 1814.6221,525.5589 1815.0443,524.6647 1815.4733,523.7737 1815.909,522.886 1816.3515,522.0017 1816.8007,521.1208 1817.2566,520.2433 1817.7192,519.3693 1818.1884,518.4988 1818.6642,517.6319" stroke="red"/>
  <polyline fill="none" points="1818.6642,517.6319 1819.1461,516.7693 1819.6344,515.9102 1820.1286,515.0545 1820.6284,514.2021 1821.1336,513.3529 1821.6438,512.5066 1822.1587,511.6633 1822.6782,510.8227 1823.2017,509.9846 1823.7292,509.149 1824.2602,508.3157 1824.7946,507.4845 1825.3319,506.6553 1825.872,505.8278 1826.4145,505.0019 1826.9593,504.1775 1827.5059,503.3543 1828.0542,502.5322 1828.6038,501.711 1829.1545,500.8906 1829.706,500.0707 1830.2581,499.2511 1830.8104,498.4318" stroke="red"/>
  <polyline fill="none" points="1830.8104,498.4318 1831.9285,496.7735" stroke="red"/>
  <polyline fill="none" points="1831.9285,496.7735 1832.4545,495.993 1832.9802,495.2123 1833.5051,494.4311 1834.0288,493.6491 1834.5509,492.866 1835.0711,492.0816 1835.5888,491.2957 1836.1039,490.5079 1836.6157,489.7181 1837.1239,488.9259 1837.6282,488.1313 1838.1281,487.3338 1838.6231,486.5333 1839.1129,485.7296 1839.597,484.9225 1840.075,484.1117 1840.5464,483.2971" stroke="red"/>
  <polyline fill="none" points="1840.5472,483.296 1841.028,482.4485 1841.5012,481.5968 1841.9669,480.7409 1842.425,479.881 1842.8755,479.017 1843.3183,478.1491 1843.7533,477.2773 1844.1807,476.4016 1844.6003,475.5222 1845.012,474.6391 1845.416,473.7525 1845.812,472.8622 1846.2002,471.9685 1846.5804,471.0714 1846.9527,470.171 1847.3169,469.2673 1847.6732,468.3604 1848.0214,467.4504 1848.3615,466.5373 1848.6936,465.6213 1849.0175,464.7023 1849.3332,463.7806 1849.6408,462.856 1849.9402,461.9288 1850.2313,460.999 1850.5142,460.0666 1850.7889,459.1317 1851.0552,458.1945 1851.3132,457.2549 1851.5629,456.3131 1851.8043,455.3691 1852.0372,454.423 1852.2618,453.4749 1852.478,452.5248 1852.6857,451.5729 1852.8851,450.6191 1853.0759,449.6636 1853.2583,448.7065 1853.4322,447.7478" stroke="red"/>
  <polyline fill="none" points="1853.4322,447.7478 1853.5922,446.8203 1853.7447,445.8916 1853.8902,444.9617 1854.0291,444.0309 1854.162,443.0991 1854.2892,442.1666 1854.4113,441.2333 1854.5286,440.2995 1854.6417,439.3652 1854.7511,438.4304 1854.8572,437.4952 1854.9604,436.5597 1855.0613,435.6239 1855.1603,434.688 1855.2579,433.7519 1855.3545,432.8157 1855.4507,431.8794" stroke="red"/>
  <polyline fill="none" points="1855.4507,431.8794 1855.7771,428.6995" stroke="red"/>
  <polyline fill="none" points="1855.7771,428.6995 1855.8785,427.7127 1855.9807,426.7261 1856.0845,425.7397 1856.1907,424.7535 1856.3,423.7676 1856.4133,422.7822 1856.5313,421.7973 1856.6549,420.8132 1856.7848,419.8298 1856.9218,418.8474 1857.0667,417.8662 1857.2202,416.8862 1857.3832,415.9078" stroke="red"/>
  <polyline fill="none" points="1857.3832,415.9078 1857.5558,414.9335 1857.7386,413.9611 1857.9314,412.9906 1858.1344,412.0222 1858.3475,411.056 1858.5706,410.092 1858.8037,409.1304 1859.0468,408.1713 1859.2999,407.2148 1859.563,406.261 1859.8359,405.3099 1860.1188,404.3618 1860.4115,403.4166 1860.7141,402.4746 1861.0264,401.5357 1861.3485,400.6002 1861.6804,399.668 1862.0219,398.7394 1862.3731,397.8144 1862.7339,396.893 1863.1042,395.9755 1863.4841,395.0619 1863.8735,394.1523 1864.2724,393.2468 1864.6806,392.3455 1865.0983,391.4485 1865.5252,390.556 1865.9614,389.6679 1866.4069,388.7844 1866.8615,387.9055 1867.3252,387.0315 1867.7981,386.1623 1868.2799,385.2982 1868.7708,384.439 1869.2705,383.5851 1869.7791,382.7364 1870.2965,381.893 1870.8227,381.0551 1871.3576,380.2227 1871.9011,379.3959 1872.4532,378.5748 1873.0139,377.7595 1873.583,376.9501 1874.1604,376.1466 1874.7463,375.3493 1875.3404,374.558 1875.9427,373.773 1876.5531,372.9943 1877.1716,372.2221 1877.7982,371.4562 1878.4327,370.697 1879.075,369.9444 1879.7252,369.1986 1880.383,368.4595 1881.0486,367.7274 1881.7217,367.0022 1882.4024,366.2841 1883.0905,365.5731 1883.7859,364.8693 1884.4887,364.1727 1885.1987,363.4836 1885.9158,362.8019 1886.64,362.1276 1887.3711,361.461 1888.1092,360.802 1888.8541,360.1507 1889.6057,359.5072 1890.364,358.8716 1891.1288,358.244 1891.9002,357.6243 1892.678,357.0127" stroke="red"/>
  <polyline fill="none" points="1892.6781,357.0117 1893.464,356.4066 1894.2558,355.8091 1895.0528,355.2187 1895.8546,354.6347 1896.6605,354.0564 1897.4701,353.4834 1898.283,352.9149 1899.0985,352.3504 1899.9164,351.7891 1900.736,351.2305 1901.557,350.6738 1902.3788,350.1185 1903.2012,349.5638" stroke="red"/>
  <polyline fill="none" points="1903.202,349.5633 1911.9319,343.6763" stroke="red"/>
  <polyline fill="none" points="1911.9319,343.6763 1961.678,310.1305" stroke="red"/>
  <polyline fill="none" points="1961.678,310.1305 1986.5511,293.3576" stroke="red"/>
  <polyline fill="none" points="1986.5511,293.3576 2036.2972,259.8118" stroke="red"/>
  <polyline fill="none" points="2036.2972,259.8118 2042.4716,255.6481" stroke="red"/>
  <polyline fill="none" points="2042.4716,255.6481 2043.2907,255.0958 2044.1098,254.5435 2044.929,253.9913 2045.7482,253.4392 2046.5676,252.8873 2047.3871,252.3356 2048.2067,251.7841 2049.0266,251.2329 2049.8466,250.6821 2050.6669,250.1316 2051.4875,249.5815 2052.3084,249.0319 2053.1296,248.4827 2053.9512,247.9341 2054.7732,247.3861 2055.5955,246.8387 2056.4183,246.2919 2057.2416,245.7458 2058.0653,245.2005 2058.8896,244.6559 2059.7144,244.1122 2060.5398,243.5693 2061.3657,243.0274 2062.1923,242.4864 2063.0196,241.9463 2063.8475,241.4073 2064.6761,240.8694 2065.5054,240.3326 2066.3355,239.7969 2067.1663,239.2625 2067.998,238.7292 2068.8304,238.1973 2069.6638,237.6667 2070.4979,237.1375 2071.333,236.6097 2072.169,236.0833 2073.006,235.5584 2073.8439,235.0351 2074.6828,234.5134 2075.5227,233.9933 2076.3636,233.4748 2077.2056,232.9581 2078.0487,232.4432 2078.8929,231.93 2079.7382,231.4187 2080.5846,230.9093 2081.4322,230.4019 2082.281,229.8964 2083.131,229.3929 2083.9822,228.8916 2084.8347,228.3923 2085.6884,227.8952 2086.5434,227.4004 2087.3998,226.9078 2088.2574,226.4175 2089.1164,225.9295 2089.9767,225.4439 2090.8384,224.9608 2091.7015,224.4802 2092.5661,224.0021 2093.432,223.5266 2094.2994,223.0537" stroke="red"/>
  <polyline fill="none" points="2094.2994,223.0537 2095.1765,222.5791 2096.0551,222.1071 2096.9352,221.6379 2097.8167,221.1715 2098.6997,220.7078 2099.5841,220.2469 2100.4699,219.7887 2101.3572,219.3333 2102.2459,218.8806 2103.136,218.4307 2104.0274,217.9836 2104.9203,217.5393 2105.8146,217.0977 2106.7102,216.659 2107.6072,216.223 2108.5056,215.7899 2109.4052,215.3595 2110.3063,214.932 2111.2086,214.5072 2112.1123,214.0853 2113.0173,213.6662 2113.9236,213.2499 2114.8312,212.8364 2115.74,212.4258 2116.6502,212.018 2117.5616,211.6131 2118.4743,211.211 2119.3882,210.8117 2120.3033,210.4153 2121.2197,210.0217 2122.1373,209.631 2123.0561,209.2432 2123.9762,208.8582 2124.8974,208.4761 2125.8198,208.0968 2126.7434,207.7205 2127.6681,207.347 2128.5941,206.9764 2129.5211,206.6087 2130.4493,206.2439 2131.3787,205.882 2132.3091,205.5229 2133.2407,205.1668 2134.1734,204.8136 2135.1072,204.4633 2136.042,204.1159 2136.978,203.7714 2137.915,203.4299 2138.853,203.0912 2139.7922,202.7555 2140.7323,202.4227 2141.6735,202.0929 2142.6158,201.766 2143.559,201.442 2144.5032,201.1209 2145.4485,200.8028 2146.3947,200.4877 2147.3419,200.1755 2148.2901,199.8663 2149.2392,199.56 2150.1893,199.2566 2151.1403,198.9563 2152.0922,198.6589 2153.0451,198.3644 2153.9989,198.073 2154.9536,197.7845 2155.9092,197.499 2156.8656,197.2165 2157.823,196.9369 2158.7812,196.6604 2159.7403,196.3868 2160.7002,196.1162 2161.6609,195.8486 2162.6225,195.584 2163.5849,195.3224 2164.5481,195.0638 2165.5121,194.8082 2166.477,194.5556 2167.4425,194.3061 2168.4089,194.0595 2169.376,193.8159 2170.3439,193.5754 2171.3125,193.3379 2172.2819,193.1034 2173.252,192.8719 2174.2228,192.6434 2175.1943,192.418 2176.1665,192.1956 2177.1394,191.9762 2178.113,191.7599 2179.0873,191.5466 2180.0622,191.3363 2181.0377,191.1291 2182.0139,190.9249 2182.9907,190.7238 2183.9682,190.5257 2184.9463,190.3307 2185.9249,190.1387 2186.9042,189.9497 2187.884,189.7638 2188.8645,189.581 2189.8455,189.4012 2190.827,189.2245 2191.8091,189.0508 2192.7917,188.8802 2193.7749,188.7127 2194.7585,188.5482 2195.7427,188.3868 2196.7274,188.2285 2197.7125,188.0732 2198.6982,187.921 2199.6843,187.7719 2200.6709,187.6258 2201.6579,187.4828 2202.6454,187.3429 2203.6332,187.2061 2204.6216,187.0724 2205.6103,186.9417 2206.5994,186.8141 2207.5889,186.6897 2208.5789,186.5682 2209.5691,186.4499 2210.5598,186.3347 2211.5508,186.2225 2212.5421,186.1135 2213.5338,186.0075 2214.5258,185.9046 2215.5181,185.8048 2216.5107,185.7081" stroke="red"/>
  <polyline fill="none" points="2216.5107,185.7081 2217.4943,185.6154 2218.4781,185.5257 2219.4622,185.4388 2220.4465,185.3549 2221.4311,185.2739 2222.4159,185.1956 2223.4009,185.12 2224.3861,185.0472 2225.3715,184.977 2226.3571,184.9094 2227.3429,184.8444 2228.3288,184.7819 2229.3149,184.7218 2230.3011,184.6641 2231.2874,184.6088 2232.2739,184.5558 2233.2605,184.5051 2234.2472,184.4565 2235.234,184.4102 2236.2209,184.3659 2237.2079,184.3237 2238.195,184.2835 2239.1822,184.2453 2240.1694,184.209 2241.1567,184.1746 2242.1441,184.142 2243.1315,184.1111 2244.119,184.082 2245.1065,184.0546 2246.0941,184.0287 2247.0817,184.0045 2248.0693,183.9818 2249.057,183.9605 2250.0447,183.9407 2251.0324,183.9222 2252.0202,183.9051 2253.008,183.8893 2253.9958,183.8747 2254.9836,183.8612 2255.9714,183.849 2256.9592,183.8377 2257.9471,183.8276 2258.935,183.8184 2259.9228,183.8101 2260.9107,183.8027 2261.8986,183.7962 2262.8865,183.7904 2263.8744,183.7854 2264.8623,183.7811 2265.8501,183.7774 2266.838,183.7743 2267.8259,183.7717 2268.8138,183.7696 2269.8018,183.768 2270.7897,183.7668 2271.7776,183.7659 2272.7655,183.7653 2273.7534,183.765 2274.7413,183.7648 2275.7292,183.7648 2276.7171,183.7649 2277.705,183.7651" stroke="red"/>
  <polyline fill="none" points="2277.705,183.7651 2327.9132,183.7729" stroke="red"/>
  <polyline fill="none" points="2327.9132,183.7729 2328.8994,183.773 2329.8856,183.7731 2330.8718,183.7729 2331.858,183.7725 2332.8442,183.7717 2333.8304,183.7704 2334.8165,183.7685 2335.8027,183.766 2336.7889,183.7626 2337.7751,183.7585 2338.7613,183.7533 2339.7475,183.7471 2340.7336,183.7398 2341.7198,183.7312 2342.7059,183.7213 2343.6921,183.7099 2344.6782,183.697 2345.6642,183.6825 2346.6503,183.6662 2347.6363,183.6481 2348.6223,183.6281 2349.6083,183.6061 2350.5942,183.582 2351.58,183.5556 2352.5658,183.527 2353.5515,183.496 2354.5371,183.4624 2355.5226,183.4263 2356.5081,183.3875 2357.4934,183.346 2358.4786,183.3015 2359.4636,183.2541 2360.4485,183.2036 2361.4333,183.15 2362.4178,183.0931 2363.4022,183.0328 2364.3863,182.9691 2365.3702,182.9019 2366.3538,182.831" stroke="red"/>
  <polyline fill="none" points="2366.3538,182.831 2367.3475,182.7556 2368.3408,182.6764 2369.3339,182.5934 2370.3266,182.5066 2371.319,182.416 2372.311,182.3216 2373.3026,182.2234 2374.2939,182.1214 2375.2848,182.0156 2376.2752,181.9059 2377.2653,181.7925 2378.2549,181.6753 2379.244,181.5543 2380.2327,181.4296 2381.2208,181.301 2382.2085,181.1686 2383.1957,181.0325 2384.1823,180.8926 2385.1684,180.7489 2386.1539,180.6014 2387.1389,180.4501 2388.1232,180.2951 2389.107,180.1363 2390.0902,179.9737 2391.0727,179.8074 2392.0546,179.6373 2393.0358,179.4634 2394.0163,179.2858 2394.9962,179.1044 2395.9753,178.9193 2396.9538,178.7304 2397.9315,178.5377 2398.9084,178.3413 2399.8846,178.1412 2400.8601,177.9374 2401.8347,177.7297 2402.8085,177.5184 2403.7816,177.3033 2404.7538,177.0845 2405.7251,176.862 2406.6956,176.6358 2407.6652,176.4058 2408.6339,176.1721 2409.6017,175.9348 2410.5686,175.6937 2411.5346,175.4489 2412.4996,175.2004 2413.4637,174.9482 2414.4268,174.6923 2415.3889,174.4327 2416.35,174.1695 2417.3101,173.9025 2418.2691,173.6319 2419.2271,173.3576 2420.1841,173.0796 2421.1399,172.798 2422.0947,172.5127 2423.0484,172.2238 2424.001,171.9311 2424.9525,171.6349 2425.9028,171.335 2426.8519,171.0315 2427.7999,170.7243 2428.7467,170.4135 2429.6923,170.0991 2430.6367,169.781 2431.5798,169.4593 2432.5217,169.1341 2433.4624,168.8052 2434.4018,168.4727 2435.3399,168.1366 2436.2768,167.7969 2437.2123,167.4536 2438.1465,167.1068 2439.0793,166.7563 2440.0108,166.4023 2440.941,166.0448 2441.8697,165.6836 2442.7971,165.3189 2443.7231,164.9507 2444.6476,164.5789 2445.5707,164.2036 2446.4924,163.8247 2447.4126,163.4423 2448.3314,163.0564 2449.2486,162.667 2450.1644,162.274 2451.0786,161.8776 2451.9913,161.4776 2452.9025,161.0741 2453.8121,160.6672 2454.7202,160.2568 2455.6267,159.8429 2456.5316,159.4255 2457.4348,159.0047 2458.3365,158.5804 2459.2365,158.1526 2460.1349,157.7214 2461.0316,157.2868 2461.9267,156.8487 2462.82,156.4072 2463.7117,155.9623 2464.6017,155.514 2465.4899,155.0622 2466.3764,154.6071 2467.2611,154.1485 2468.1441,153.6866 2469.0253,153.2213 2469.9047,152.7526 2470.7823,152.2806 2471.6581,151.8052 2472.5321,151.3264 2473.4042,150.8443 2474.2744,150.3589 2475.1428,149.8701 2476.0094,149.378 2476.874,148.8826 2477.7367,148.3838 2478.5975,147.8818 2479.4564,147.3765 2480.3133,146.8679 2481.1683,146.356 2482.0213,145.8408 2482.8723,145.3224 2483.7214,144.8007 2484.5684,144.2757 2485.4134,143.7475 2486.2564,143.2161 2487.0973,142.6815 2487.9362,142.1436 2488.773,141.6025 2489.6077,141.0582 2490.4404,140.5108 2491.2709,139.9601 2492.0993,139.4063 2492.9256,138.8493 2493.7498,138.2891 2494.5718,137.7257 2495.3916,137.1593 2496.2093,136.5897 2497.0247,136.0169 2497.838,135.441 2498.649,134.8621 2499.4579,134.28 2500.2645,133.6948 2501.0688,133.1065 2501.8709,132.5152 2502.6707,131.9208 2503.4682,131.3233 2504.2634,130.7228 2505.0564,130.1192 2505.847,129.5126 2506.6352,128.903 2507.4212,128.2903 2508.2047,127.6747 2508.9859,127.056 2509.7648,126.4344 2510.5412,125.8097 2511.3153,125.1821 2512.0869,124.5516 2512.8561,123.9181 2513.6229,123.2816 2514.3872,122.6422 2515.1491,121.9999 2515.9085,121.3547 2516.6654,120.7066 2517.4199,120.0555 2518.1718,119.4016 2518.9212,118.7448 2519.6681,118.0852 2520.4125,117.4226 2521.1543,116.7573 2521.8936,116.0891 2522.6303,115.418 2523.3644,114.7442 2524.096,114.0675 2524.8249,113.388 2525.5512,112.7058 2526.2749,112.0208 2526.996,111.333 2527.7145,110.6424 2528.4302,109.9491 2529.1434,109.2531 2529.8538,108.5543 2530.5616,107.8528 2531.2667,107.1486 2531.969,106.4417 2532.6687,105.7321 2533.3656,105.0199 2534.0598,104.305 2534.7513,103.5874 2535.44,102.8672 2536.1259,102.1443 2536.809,101.4188 2537.4894,100.6907 2538.167,99.96 2538.8417,99.2267 2539.5137,98.4909 2540.1828,97.7524 2540.8491,97.0114 2541.5126,96.2679 2542.1731,95.5218 2542.8309,94.7732 2543.4857,94.0221 2544.1377,93.2685 2544.7868,92.5123 2545.4329,91.7537 2546.0762,90.9927 2546.7165,90.2291 2547.354,89.4631 2547.9884,88.6947 2548.6199,87.9239 2549.2485,87.1506 2549.8741,86.3749 2550.4967,85.5969 2551.1163,84.8164 2551.733,84.0336 2552.3466,83.2485 2552.9572,82.461 2553.5648,81.6711 2554.1693,80.8789 2554.7709,80.0845 2555.3693,79.2877 2555.9647,78.4886 2556.5571,77.6873 2557.1463,76.8837 2557.7325,76.0778 2558.3156,75.2697 2558.8956,74.4594 2559.4725,73.6468 2560.0462,72.8321 2560.6169,72.0151 2561.1844,71.196 2561.7487,70.3747 2562.3099,69.5513 2562.868,68.7257 2563.4228,67.8979 2563.9745,67.0681 2564.5231,66.2361 2565.0684,65.4021 2565.6105,64.5659 2566.1494,63.7277 2566.6851,62.8875 2567.2176,62.0451 2567.7468,61.2008 2568.2728,60.3544 2568.7955,59.506 2569.315,58.6557 2569.8313,57.8033 2570.3442,56.949 2570.8539,56.0927 2571.3603,55.2344 2571.8634,54.3742 2572.3632,53.5121 2572.8597,52.6481 2573.3529,51.7822 2573.8427,50.9144 2574.3293,50.0448 2574.8125,49.1732 2575.2923,48.2999 2575.7688,47.4247 2576.2419,46.5477 2576.7117,45.6688 2577.1781,44.7882 2577.6411,43.9058" stroke="red"/>
  <polyline fill="none" points="2577.6446,43.9058 2578.0996,43.0308 2578.5512,42.1541 2578.9998,41.2758 2579.4452,40.396 2579.8876,39.5146 2580.3272,38.6318 2580.7639,37.7475 2581.1978,36.8619 2581.6291,35.975 2582.0577,35.0869 2582.4839,34.1975 2582.9076,33.307 2583.329,32.4154 2583.7482,31.5227 2584.1652,30.629 2584.5801,29.7343 2584.993,28.8387 2585.4039,27.9422 2585.8131,27.0449 2586.2205,26.1468 2586.6262,25.2479 2587.0303,24.3484 2587.433,23.4481 2587.8343,22.5473 2588.2342,21.6458 2588.633,20.7438 2589.0305,19.8413 2589.4271,18.9383 2589.8226,18.035 2590.2173,17.1312 2590.6112,16.2271 2591.0044,15.3227 2591.397,14.418 2591.789,13.513 2592.1806,12.6079 2592.5719,11.7027 2592.9629,10.7973 2593.3537,9.8919 2593.7444,8.9864" stroke="red"/>
  <polyline fill="none" points="2593.7458,8.9831 2596.3275,3.0" stroke="red"/>
  <polyline fill="none" points="511.7177,1694.4246 495.607,1682.5737" stroke="red"/>
  <polyline fill="none" points="514.9125,1715.3959 503.0615,1731.5066" stroke="red"/>
  <polyline fill="none" points="535.8838,1712.2011 551.9945,1724.0521" stroke="red"/>
  <polyline fill="none" points="511.7177,1694.4246 512.9015,1695.2954" stroke="red"/>
  <polyline fill="none" points="512.9015,1695.2954 513.5045,1695.7414 514.1004,1696.1967 514.6818,1696.6705 515.2404,1697.1709" stroke="red"/>
  <polyline fill="none" points="515.2404,1697.1709 515.93,1697.8816 516.5586,1698.6468 517.122,1699.4612 517.6164,1700.3193 518.0383,1701.2153 518.3849,1702.143 518.6538,1703.0961 518.8432,1704.0681 518.9518,1705.0524 518.9789,1706.0424 518.9243,1707.0312 518.7883,1708.0121 518.5719,1708.9785 518.2766,1709.9238 517.9043,1710.8414 517.4576,1711.7253" stroke="red"/>
  <polyline fill="none" points="517.4576,1711.7253 517.0734,1712.3693 516.6594,1712.9947 516.2261,1713.6068 515.7833,1714.2121" stroke="red"/>
  <polyline fill="none" points="515.7833,1714.2121 514.9125,1715.3959" stroke="red"/>
  <polyline fill="none" points="535.8838,1712.2011 534.7,1711.3303" stroke="red"/>
  <polyline fill="none" points="534.7,1711.3303 534.0947,1710.8875 533.4826,1710.4542 532.8572,1710.0402 532.2132,1709.656" stroke="red"/>
  <polyline fill="none" points="532.2132,1709.656 531.3293,1709.2093 530.4117,1708.8371 529.4664,1708.5417 528.5,1708.3253 527.5191,1708.1893 526.5303,1708.1347 525.5403,1708.1618 524.556,1708.2704 523.584,1708.4598 522.6309,1708.7287 521.7032,1709.0753 520.8072,1709.4972 519.9491,1709.9916 519.1347,1710.555 518.3695,1711.1837 517.6587,1711.8733" stroke="red"/>
  <polyline fill="none" points="517.6587,1711.8733 517.1583,1712.4318 516.6846,1713.0132 516.2293,1713.6091 515.7833,1714.2121" stroke="red"/>
  <polyline fill="none" points="515.7833,1714.2121 514.9125,1715.3959" stroke="red"/>
  <polyline fill="none" points="535.8838,1712.2011 511.7177,1694.4246" stroke="red"/>
  <polyline fill="none" points="315.7282,1517.7877 302.4498,1502.8317" stroke="red"/>
  <polyline fill="none" points="314.47,1538.9636 299.514,1552.242" stroke="red"/>
  <polyline fill="none" points="335.6459,1540.2218 348.9243,1555.1778" stroke="red"/>
  <polyline fill="none" points="315.7282,1517.7877 316.7039,1518.8867" stroke="red"/>
  <polyline fill="none" points="316.7039,1518.8867 317.2004,1519.4488 317.688,1520.0186 318.1576,1520.6034 318.5992,1521.2095" stroke="red"/>
  <polyline fill="none" points="318.5992,1521.2095 319.125,1522.0486 319.5799,1522.9283 319.9607,1523.8425 320.2648,1524.7849 320.4902,1525.7493 320.6352,1526.7289 320.699,1527.7172 320.6811,1528.7073 320.5817,1529.6926 320.4013,1530.6664 320.1412,1531.6219 319.8033,1532.5528 319.3897,1533.4526 318.9033,1534.3153 318.3475,1535.1349 317.726,1535.9059" stroke="red"/>
  <polyline fill="none" points="317.726,1535.9059 317.2157,1536.4554 316.6802,1536.9804 316.1285,1537.4885 315.5689,1537.9879" stroke="red"/>
  <polyline fill="none" points="315.5689,1537.9879 314.47,1538.9636" stroke="red"/>
  <polyline fill="none" points="335.6459,1540.2218 334.6702,1539.1229" stroke="red"/>
  <polyline fill="none" points="334.6702,1539.1229 334.1708,1538.5633 333.6627,1538.0116 333.1377,1537.4761 332.5882,1536.9659" stroke="red"/>
  <polyline fill="none" points="332.5882,1536.9659 331.8172,1536.3443 330.9976,1535.7885 330.1349,1535.3021 329.2351,1534.8886 328.3042,1534.5506 327.3487,1534.2905 326.3749,1534.1101 325.3896,1534.0107 324.3995,1533.9928 323.4112,1534.0566 322.4316,1534.2017 321.4672,1534.427 320.5248,1534.7311 319.6106,1535.1119 318.7309,1535.5668 317.8918,1536.0926" stroke="red"/>
  <polyline fill="none" points="317.8918,1536.0926 317.2857,1536.5343 316.7009,1537.0038 316.1311,1537.4914 315.5689,1537.9879" stroke="red"/>
  <polyline fill="none" points="315.5689,1537.9879 314.47,1538.9636" stroke="red"/>
  <polyline fill="none" points="335.6459,1540.2218 315.7282,1517.7877" stroke="red"/>
  <polyline fill="none" points="514.9125,1715.3959 515.7833,1714.2121" stroke="red"/>
  <polyline fill="none" points="515.7833,1714.2121 516.2261,1713.6068 516.6594,1712.9947 517.0734,1712.3693 517.4576,1711.7253" stroke="red"/>
  <polyline fill="none" points="517.4576,1711.7253 517.9043,1710.8414 518.2766,1709.9238 518.5719,1708.9785 518.7883,1708.0121 518.9243,1707.0312 518.9789,1706.0424 518.9518,1705.0524 518.8432,1704.0681 518.6538,1703.0961 518.3849,1702.143 518.0383,1701.2153 517.6164,1700.3193 517.122,1699.4612 516.5586,1698.6468 515.93,1697.8816 515.2404,1697.1709" stroke="red"/>
  <polyline fill="none" points="515.2404,1697.1709 514.6818,1696.6705 514.1004,1696.1967 513.5045,1695.7414 512.9015,1695.2954" stroke="red"/>
  <polyline fill="none" points="512.9015,1695.2954 511.7177,1694.4246" stroke="red"/>
  <polyline fill="none" points="514.9125,1715.3959 515.7833,1714.2121" stroke="red"/>
  <polyline fill="none" points="515.7833,1714.2121 516.2293,1713.6091 516.6846,1713.0132 517.1583,1712.4318 517.6587,1711.8733" stroke="red"/>
  <polyline fill="none" points="517.6587,1711.8733 518.3695,1711.1837 519.1347,1710.555 519.9491,1709.9916 520.8072,1709.4972 521.7032,1709.0753 522.6309,1708.7287 523.584,1708.4598 524.556,1708.2704 525.5403,1708.1618 526.5303,1708.1347 527.5191,1708.1893 528.5,1708.3253 529.4664,1708.5417 530.4117,1708.8371 531.3293,1709.2093 532.2132,1709.656" stroke="red"/>
  <polyline fill="none" points="532.2132,1709.656 532.8572,1710.0402 533.4826,1710.4542 534.0947,1710.8875 534.7,1711.3303" stroke="red"/>
  <polyline fill="none" points="534.7,1711.3303 535.8838,1712.2011" stroke="red"/>
  <polyline fill="none" points="511.7177,1694.4246 535.8838,1712.2011" stroke="red"/>
  <polyline fill="none" points="314.47,1538.9636 315.5689,1537.9879" stroke="red"/>
  <polyline fill="none" points="315.5689,1537.9879 316.1285,1537.4885 316.6802,1536.9804 317.2157,1536.4554 317.726,1535.9059" stroke="red"/>
  <polyline fill="none" points="317.726,1535.9059 318.3475,1535.1349 318.9033,1534.3153 319.3897,1533.4526 319.8033,1532.5528 320.1412,1531.6219 320.4013,1530.6664 320.5817,1529.6926 320.6811,1528.7073 320.699,1527.7172 320.6352,1526.7289 320.4902,1525.7493 320.2648,1524.7849 319.9607,1523.8425 319.5799,1522.9283 319.125,1522.0486 318.5992,1521.2095" stroke="red"/>
  <polyline fill="none" points="318.5992,1521.2095 318.1576,1520.6034 317.688,1520.0186 317.2004,1519.4488 316.7039,1518.8867" stroke="red"/>
  <polyline fill="none" points="316.7039,1518.8867 315.7282,1517.7877" stroke="red"/>
  <polyline fill="none" points="314.47,1538.9636 315.5689,1537.9879" stroke="red"/>
  <polyline fill="none" points="315.5689,1537.9879 316.1311,1537.4914 316.7009,1537.0038 317.2857,1536.5343 317.8918,1536.0926" stroke="red"/>
  <polyline fill="none" points="317.8918,1536.0926 318.7309,1535.5668 319.6106,1535.1119 320.5248,1534.7311 321.4672,1534.427 322.4316,1534.2017 323.4112,1534.0566 324.3995,1533.9928 325.3896,1534.0107 326.3749,1534.1101 327.3487,1534.2905 328.3042,1534.5506 329.2351,1534.8886 330.1349,1535.3021 330.9976,1535.7885 331.8172,1536.3443 332.5882,1536.9659" stroke="red"/>
  <polyline fill="none" points="332.5882,1536.9659 333.1377,1537.4761 333.6627,1538.0116 334.1708,1538.5633 334.6702,1539.1229" stroke="red"/>
  <polyline fill="none" points="334.6702,1539.1229 335.6459,1540.2218" stroke="red"/>
  <polyline fill="none" points="315.7282,1517.7877 335.6459,1540.2218" stroke="red"/>
  <polyline fill="none" points="668.0188,1790.7781 679.8698,1774.6674" stroke="red"/>
  <polyline fill="none" points="647.0475,1793.9728 630.9368,1782.1219" stroke="red"/>
  <polyline fill="none" points="650.2423,1814.9441 638.3913,1831.0548" stroke="red"/>
  <polyline fill="none" points="668.0188,1790.7781 667.148,1791.9618" stroke="red"/>
  <polyline fill="none" points="667.148,1791.9618 666.702,1792.5648 666.2467,1793.1608 665.773,1793.7422 665.2725,1794.3007" stroke="red"/>
  <polyline fill="none" points="665.2725,1794.3007 664.5618,1794.9903 663.7966,1795.6189 662.9822,1796.1824 662.1241,1796.6767 661.2281,1797.0986 660.3004,1797.4452 659.3473,1797.7141 658.3753,1797.9035 657.391,1798.0122 656.401,1798.0392 655.4122,1797.9846 654.4313,1797.8486 653.4649,1797.6322 652.5196,1797.3369 651.602,1796.9646 650.7181,1796.5179" stroke="red"/>
  <polyline fill="none" points="650.7181,1796.5179 650.0741,1796.1337 649.4487,1795.7198 648.8366,1795.2865 648.2313,1794.8436" stroke="red"/>
  <polyline fill="none" points="648.2313,1794.8436 647.0475,1793.9728" stroke="red"/>
  <polyline fill="none" points="650.2423,1814.9441 651.1131,1813.7603" stroke="red"/>
  <polyline fill="none" points="651.1131,1813.7603 651.5559,1813.155 651.9892,1812.5429 652.4032,1811.9175 652.7874,1811.2735" stroke="red"/>
  <polyline fill="none" points="652.7874,1811.2735 653.2341,1810.3897 653.6064,1809.472 653.9017,1808.5267 654.1181,1807.5603 654.2541,1806.5794 654.3087,1805.5906 654.2816,1804.6007 654.173,1803.6163 653.9836,1802.6443 653.7147,1801.6912 653.3681,1800.7635 652.9462,1799.8675 652.4518,1799.0094 651.8884,1798.195 651.2598,1797.4298 650.5701,1796.7191" stroke="red"/>
  <polyline fill="none" points="650.5701,1796.7191 650.0116,1796.2187 649.4302,1795.7449 648.8343,1795.2896 648.2313,1794.8436" stroke="red"/>
  <polyline fill="none" points="648.2313,1794.8436 647.0475,1793.9728" stroke="red"/>
  <polyline fill="none" points="650.2423,1814.9441 668.0188,1790.7781" stroke="red"/>
  <polyline fill="none" points="668.0188,1790.7781 650.2423,1814.9441" stroke="red"/>
  <polyline fill="none" points="647.0475,1793.9728 648.2313,1794.8436" stroke="red"/>
  <polyline fill="none" points="648.2313,1794.8436 648.8366,1795.2865 649.4487,1795.7198 650.0741,1796.1337 650.7181,1796.5179" stroke="red"/>
  <polyline fill="none" points="650.7181,1796.5179 651.602,1796.9646 652.5196,1797.3369 653.4649,1797.6322 654.4313,1797.8486 655.4122,1797.9846 656.401,1798.0392 657.391,1798.0122 658.3753,1797.9035 659.3473,1797.7141 660.3004,1797.4452 661.2281,1797.0986 662.1241,1796.6767 662.9822,1796.1824 663.7966,1795.6189 664.5618,1794.9903 665.2725,1794.3007" stroke="red"/>
  <polyline fill="none" points="665.2725,1794.3007 665.773,1793.7422 666.2467,1793.1608 666.702,1792.5648 667.148,1791.9618" stroke="red"/>
  <polyline fill="none" points="667.148,1791.9618 668.0188,1790.7781" stroke="red"/>
  <polyline fill="none" points="647.0475,1793.9728 648.2313,1794.8436" stroke="red"/>
  <polyline fill="none" points="648.2313,1794.8436 648.8343,1795.2896 649.4302,1795.7449 650.0116,1796.2187 650.5701,1796.7191" stroke="red"/>
  <polyline fill="none" points="650.5701,1796.7191 651.2598,1797.4298 651.8884,1798.195 652.4518,1799.0094 652.9462,1799.8675 653.3681,1800.7635 653.7147,1801.6912 653.9836,1802.6443 654.173,1803.6163 654.2816,1804.6007 654.3087,1805.5906 654.2541,1806.5794 654.1181,1807.5603 653.9017,1808.5267 653.6064,1809.472 653.2341,1810.3897 652.7874,1811.2735" stroke="red"/>
  <polyline fill="none" points="652.7874,1811.2735 652.4032,1811.9175 651.9892,1812.5429 651.5559,1813.155 651.1131,1813.7603" stroke="red"/>
  <polyline fill="none" points="651.1131,1813.7603 650.2423,1814.9441" stroke="red"/>
  <polyline fill="none" points="519.6042,1872.5985 534.8824,1885.1996" stroke="red"/>
  <polyline fill="none" points="534.8824,1885.1996 535.6073,1885.797 536.3338,1886.3925 537.0634,1886.9842 537.7977,1887.5702 538.5379,1888.1485 539.2857,1888.717 540.0423,1889.2738 540.8089,1889.8167" stroke="red"/>
  <polyline fill="none" points="540.8089,1889.8167 541.6327,1890.3744 542.4687,1890.9138 543.3163,1891.4345 544.1753,1891.9364 545.0452,1892.4191 545.9255,1892.8825 546.8158,1893.3264 547.7158,1893.7504 548.6249,1894.1545 549.5427,1894.5383 550.4687,1894.9018 551.4026,1895.2447 552.3438,1895.5669 553.2919,1895.8682 554.2465,1896.1484 555.207,1896.4075 556.173,1896.6453 557.144,1896.8616 558.1196,1897.0565 559.0992,1897.2297 560.0825,1897.3813 561.0688,1897.511 562.0578,1897.6189 563.0489,1897.705 564.0417,1897.7691 565.0356,1897.8112 566.0302,1897.8314 567.0251,1897.8295 568.0196,1897.8057 569.0134,1897.7599 570.0059,1897.6921 570.9967,1897.6024 571.9853,1897.4908 572.9711,1897.3574 573.9538,1897.2022 574.9328,1897.0254 575.9076,1896.8269 576.8779,1896.6069 577.843,1896.3656 578.8025,1896.1029 579.756,1895.8192 580.703,1895.5144 581.643,1895.1887 582.5756,1894.8423 583.5004,1894.4754 584.4167,1894.0882 585.3243,1893.6808 586.2227,1893.2534 587.1114,1892.8063 587.99,1892.3396 588.858,1891.8536 589.7151,1891.3486 590.5609,1890.8247 591.3948,1890.2822 592.2165,1889.7215 593.0257,1889.1427 593.8218,1888.5462 594.6046,1887.9322 595.3736,1887.3011 596.1285,1886.6531 596.8688,1885.9886 597.5943,1885.3078 598.3046,1884.6113 598.9993,1883.8991 599.678,1883.1718 600.3405,1882.4297" stroke="red"/>
  <polyline fill="none" points="600.3405,1882.4297 600.9512,1881.7159 601.5488,1880.9911 602.1349,1880.257 602.7114,1879.5153 603.2802,1878.7677 603.843,1878.0156 604.402,1877.2606 604.9589,1876.5041" stroke="red"/>
  <polyline fill="none" points="604.9589,1876.5041 612.4656,1866.2993" stroke="red"/>
</svg>
