<?xml version="1.0" encoding="utf-8" ?>
<svg xmlns="http://www.w3.org/2000/svg" xmlns:ev="http://www.w3.org/2001/xml-events" xmlns:xlink="http://www.w3.org/1999/xlink" baseProfile="tiny" height="179.4074" version="1.2" width="406.0">
  <defs/>
  <polyline fill="none" points="195.9289,96.7748 196.273,96.4307" stroke="red"/>
  <polyline fill="none" points="196.273,96.4307 196.8318,95.8672 197.3763,95.2897 197.8909,94.6857 198.3583,94.0446" stroke="red"/>
  <polyline fill="none" points="198.3583,94.0446 198.8193,93.2496 199.1845,92.4063 199.449,91.5261 199.6091,90.6212 199.6628,89.7037 199.6091,88.7863 199.449,87.8813 199.1845,87.0012 198.8193,86.1578 198.3583,85.3628" stroke="red"/>
  <polyline fill="none" points="198.3583,85.3628 197.8909,84.7217 197.3763,84.1177 196.8318,83.5403 196.273,82.9767" stroke="red"/>
  <polyline fill="none" points="196.273,82.9767 195.9289,82.6326" stroke="red"/>
  <polyline fill="none" points="195.9289,82.6326 193.1005,79.8042" stroke="red"/>
  <polyline fill="none" points="195.9289,82.6326 196.273,82.9767" stroke="red"/>
  <polyline fill="none" points="196.273,82.9767 196.8366,83.5356 197.414,84.08 198.018,84.5946 198.6591,85.062" stroke="red"/>
  <polyline fill="none" points="198.6591,85.062 199.4541,85.523 200.2974,85.8882 201.1776,86.1527 202.0825,86.3129 203.0,86.3665 203.9175,86.3129 204.8224,86.1527 205.7026,85.8882 206.5459,85.523 207.3409,85.062" stroke="red"/>
  <polyline fill="none" points="207.3409,85.062 207.982,84.5946 208.586,84.08 209.1634,83.5356 209.727,82.9767" stroke="red"/>
  <polyline fill="none" points="209.727,82.9767 210.0711,82.6326" stroke="red"/>
  <polyline fill="none" points="210.0711,82.6326 212.8995,79.8042" stroke="red"/>
  <polyline fill="none" points="210.0711,82.6326 209.727,82.9767" stroke="red"/>
  <polyline fill="none" points="209.727,82.9767 209.1682,83.5403 208.6237,84.1177 208.1091,84.7217 207.6417,85.3628" stroke="red"/>
  <polyline fill="none" points="207.6417,85.3628 207.1807,86.1578 206.8155,87.0012 206.551,87.8813 206.3909,88.7863 206.3372,89.7037 206.3909,90.6212 206.551,91.5261 206.8155,92.4063 207.1807,93.2496 207.6417,94.0446" stroke="red"/>
  <polyline fill="none" points="207.6417,94.0446 208.1091,94.6857 208.6237,95.2898 209.1682,95.8672 209.727,96.4307" stroke="red"/>
  <polyline fill="none" points="209.727,96.4307 210.0711,96.7748" stroke="red"/>
  <polyline fill="none" points="210.0711,96.7748 212.8995,99.6032" stroke="red"/>
  <polyline fill="none" points="195.9289,96.7748 193.1005,99.6032" stroke="red"/>
  <polyline fill="none" points="210.0711,96.7748 209.727,96.4307" stroke="red"/>
  <polyline fill="none" points="209.727,96.4307 209.1634,95.8719 208.586,95.3274 207.982,94.8129 207.3409,94.3454" stroke="red"/>
  <polyline fill="none" points="207.3409,94.3454 206.5459,93.8844 205.7026,93.5192 204.8224,93.2547 203.9175,93.0946 203.0,93.0409 202.0825,93.0946 201.1776,93.2547 200.2974,93.5192 199.4541,93.8844 198.6591,94.3454" stroke="red"/>
  <polyline fill="none" points="198.6591,94.3454 198.018,94.8129 197.414,95.3274 196.8366,95.8719 196.273,96.4307" stroke="red"/>
  <polyline fill="none" points="196.273,96.4307 195.9289,96.7748" stroke="red"/>
  <polyline fill="none" points="210.0711,96.7748 195.9289,82.6326" stroke="red"/>
  <polyline fill="none" points="210.0711,82.6326 195.9289,96.7748" stroke="red"/>
  <polyline fill="none" points="195.9289,96.7748 210.0711,82.6326" stroke="red"/>
  <polyline fill="none" points="195.9289,82.6326 210.0711,96.7748" stroke="red"/>
  <polyline fill="none" points="212.8995,79.8042 262.3421,30.3616" stroke="red"/>
  <polyline fill="none" points="262.3421,30.3616 263.0051,29.6988 263.6688,29.0366 264.3338,28.3758 265.0007,27.7169 265.6701,27.0606 266.3428,26.4075 267.0193,25.7585 267.7001,25.114 268.3861,24.475 269.0776,23.8419 269.7752,23.2157 270.4795,22.5969" stroke="red"/>
  <polyline fill="none" points="270.4795,22.5969 271.2354,21.9487 271.9993,21.31 272.7711,20.6808 273.5506,20.0613 274.3378,19.4515 275.1326,18.8515 275.9347,18.2615 276.7441,17.6816 277.5607,17.1117 278.3843,16.5521 279.2148,16.0027 280.0521,15.4637 280.896,14.9352 281.7465,14.4173 282.6033,13.9099 283.4663,13.4133 284.3355,12.9274 285.2107,12.4525 286.0917,11.9884 286.9784,11.5353 287.8707,11.0933 288.7684,10.6625 289.6714,10.2428 290.5796,9.8345 291.4927,9.4374 292.4108,9.0518 293.3336,8.6776 294.2609,8.3149 295.1927,7.9638 296.1288,7.6243 297.0691,7.2965 298.0133,6.9805 298.9615,6.6762 299.9133,6.3837 300.8687,6.1031 301.8275,5.8344 302.7896,5.5777 303.7548,5.333 304.723,5.1003 305.694,4.8796 306.6677,4.6711 307.6439,4.4747 308.6224,4.2905 309.6032,4.1184 310.5861,3.9586 311.5708,3.811 312.5574,3.6757 313.5455,3.5527 314.5351,3.442 315.5259,3.3437 316.518,3.2576 317.511,3.1839 318.5049,3.1226 319.4994,3.0737 320.4945,3.0371 321.49,3.0129 322.4857,3.0012 323.4814,3.0018 324.4771,3.0148 325.4725,3.0402 326.4675,3.078 327.462,3.1282 328.4558,3.1907 329.4488,3.2656 330.4407,3.3529 331.4314,3.4525 332.4209,3.5644 333.4089,3.6886 334.3952,3.8252 335.3798,3.9739 336.3624,4.135 337.343,4.3082 338.3213,4.4937 339.2973,4.6913 340.2707,4.901 341.2414,5.1228 342.2093,5.3567 343.1742,5.6027 344.136,5.8606 345.0945,6.1304 346.0496,6.4122 347.001,6.7059 347.9488,7.0113 348.8926,7.3286 349.8325,7.6575 350.7682,7.9982 351.6995,8.3504 352.6265,8.7142 353.5488,9.0896 354.4663,9.4763 355.379,9.8745 356.2867,10.284 357.1892,10.7048 358.0863,11.1367 358.9781,11.5798 359.8642,12.034 360.7447,12.4991 361.6192,12.9752 362.4878,13.4621 363.3503,13.9598 364.2065,14.4682 365.0563,14.9872 365.8995,15.5168 366.7361,16.0568 367.566,16.6072 368.3889,17.1678 369.2048,17.7387 370.0135,18.3197 370.8149,18.9107 371.6089,19.5116 372.3953,20.1223 373.1741,20.7428 373.9451,21.373 374.7082,22.0127 375.4633,22.6618 376.2102,23.3203 376.9489,23.988 377.6792,24.6649 378.4011,25.3508 379.1143,26.0457 379.8188,26.7494 380.5146,27.4617 381.2014,28.1827 381.8792,28.9122 382.5478,29.6501 383.2072,30.3962 383.8573,31.1505 384.4979,31.9128 385.129,32.683 385.7505,33.461 386.3622,34.2467 386.9641,35.04 387.5561,35.8406 388.1381,36.6486 388.7099,37.4638 389.2716,38.286 389.823,39.1152 390.3641,39.9511 390.8947,40.7937 391.4147,41.6429 391.9242,42.4984 392.4229,43.3603 392.9109,44.2282 393.3881,45.1022 393.8543,45.9821 394.3096,46.8677 394.7538,47.7589 395.1869,48.6555 395.6087,49.5575 396.0194,50.4646 396.4187,51.3768 396.8066,52.2939 397.183,53.2158 397.548,54.1422 397.9014,55.0732 398.2432,56.0084 398.5733,56.9479 398.8917,57.8913 399.1983,58.8387 399.4932,59.7898 399.7761,60.7445 400.0472,61.7027 400.3063,62.6641 400.5534,63.6287 400.7885,64.5963 401.0115,65.5668 401.2225,66.5399 401.4213,67.5156 401.6079,68.4938 401.7824,69.4741 401.9446,70.4566 402.0946,71.4409 402.2324,72.4271 402.3578,73.4149 402.471,74.4043 402.5718,75.3949 402.6603,76.3867 402.7364,77.3795" stroke="red"/>
  <polyline fill="none" points="402.7364,77.3795 402.797,78.3151 402.8474,79.2512 402.8888,80.1878 402.9219,81.1247 402.9477,82.0619 402.967,82.9992 402.9809,83.9366 402.9902,84.874 402.9959,85.8115 402.9988,86.749 402.9998,87.6865 403.0,88.624" stroke="red"/>
  <polyline fill="none" points="403.0,88.624 403.0,89.7037" stroke="red"/>
  <polyline fill="none" points="403.0,89.7037 403.0,90.7834" stroke="red"/>
  <polyline fill="none" points="403.0,90.7834 402.9998,91.7209 402.9988,92.6584 402.9959,93.5959 402.9902,94.5334 402.9809,95.4709 402.967,96.4083 402.9477,97.3456 402.9219,98.2827 402.8888,99.2196 402.8474,100.1562 402.797,101.0923 402.7364,102.0279" stroke="red"/>
  <polyline fill="none" points="402.7364,102.0279 402.6603,103.0207 402.5718,104.0125 402.471,105.0032 402.3578,105.9925 402.2324,106.9803 402.0946,107.9665 401.9446,108.9509 401.7824,109.9333 401.6079,110.9137 401.4213,111.8918 401.2225,112.8675 401.0115,113.8407 400.7885,114.8111 400.5534,115.7787 400.3063,116.7433 400.0472,117.7048 399.7761,118.6629 399.4932,119.6176 399.1983,120.5687 398.8917,121.5161 398.5733,122.4596 398.2432,123.399 397.9014,124.3343 397.548,125.2652 397.183,126.1917 396.8066,127.1135 396.4187,128.0306 396.0194,128.9428 395.6087,129.8499 395.1869,130.7519 394.7538,131.6486 394.3096,132.5398 393.8543,133.4253 393.3881,134.3052 392.9109,135.1792 392.4229,136.0472 391.9242,136.909 391.4147,137.7646 390.8947,138.6137 390.3641,139.4563 389.823,140.2923 389.2716,141.1214 388.7099,141.9436 388.1381,142.7588 387.5561,143.5668 386.9641,144.3675 386.3622,145.1607 385.7505,145.9464 385.129,146.7244 384.4979,147.4946 383.8573,148.257 383.2072,149.0112 382.5478,149.7574 381.8792,150.4952 381.2014,151.2247 380.5146,151.9457 379.8188,152.6581 379.1143,153.3617 378.4011,154.0566 377.6792,154.7425 376.9489,155.4194 376.2102,156.0871 375.4633,156.7456 374.7082,157.3947 373.9451,158.0344 373.1741,158.6646 372.3953,159.2851 371.6089,159.8958 370.8149,160.4968 370.0135,161.0878 369.2048,161.6687 368.3889,162.2396 367.566,162.8003 366.7361,163.3506 365.8995,163.8906 365.0563,164.4202 364.2065,164.9392 363.3503,165.4476 362.4878,165.9453 361.6192,166.4322 360.7447,166.9083 359.8642,167.3735 358.9781,167.8276 358.0863,168.2707 357.1892,168.7027 356.2867,169.1234 355.379,169.5329 354.4663,169.9311 353.5488,170.3179 352.6265,170.6932 351.6995,171.057 350.7682,171.4093 349.8325,171.7499 348.8926,172.0789 347.9488,172.3961 347.001,172.7016 346.0496,172.9952 345.0945,173.277 344.136,173.5469 343.1742,173.8048 342.2093,174.0507 341.2414,174.2846 340.2707,174.5064 339.2973,174.7162 338.3213,174.9138 337.343,175.0992 336.3624,175.2725 335.3798,175.4335 334.3952,175.5823 333.4089,175.7188 332.4209,175.843 331.4314,175.955 330.4407,176.0546 329.4488,176.1418 328.4558,176.2167 327.462,176.2793 326.4675,176.3294 325.4725,176.3672 324.4771,176.3926 323.4814,176.4056 322.4857,176.4063 321.49,176.3945 320.4945,176.3703 319.4994,176.3338 318.5049,176.2848 317.511,176.2235 316.518,176.1498 315.5259,176.0638 314.5351,175.9654 313.5455,175.8547 312.5574,175.7317 311.5708,175.5964 310.5861,175.4488 309.6032,175.289 308.6224,175.117 307.6439,174.9327 306.6677,174.7363 305.694,174.5278 304.723,174.3072 303.7548,174.0745 302.7896,173.8297 301.8275,173.573 300.8687,173.3043 299.9133,173.0237 298.9615,172.7313 298.0133,172.427 297.0691,172.1109 296.1288,171.7831 295.1927,171.4436 294.2609,171.0925 293.3336,170.7298 292.4108,170.3557 291.4927,169.97 290.5796,169.573 289.6714,169.1646 288.7684,168.745 287.8707,168.3141 286.9784,167.8721 286.0917,167.419 285.2107,166.955 284.3355,166.48 283.4663,165.9941 282.6033,165.4975 281.7465,164.9902 280.896,164.4722 280.0521,163.9437 279.2148,163.4047 278.3843,162.8554 277.5607,162.2957 276.7441,161.7259 275.9347,161.1459 275.1326,160.5559 274.3378,159.956 273.5506,159.3462 272.7711,158.7266 271.9993,158.0974 271.2354,157.4587 270.4795,156.8105" stroke="red"/>
  <polyline fill="none" points="270.4795,156.8105 269.7752,156.1918 269.0776,155.5655 268.3861,154.9325 267.7001,154.2934 267.0193,153.649 266.3428,152.9999 265.6701,152.3469 265.0007,151.6906 264.3338,151.0317 263.6688,150.3708 263.0051,149.7086 262.3421,149.0458" stroke="red"/>
  <polyline fill="none" points="262.3421,149.0458 212.8995,99.6032" stroke="red"/>
  <polyline fill="none" points="193.1005,79.8042 143.6579,30.3616" stroke="red"/>
  <polyline fill="none" points="143.6579,30.3616 142.9949,29.6988 142.3312,29.0366 141.6662,28.3758 140.9993,27.7169 140.3299,27.0606 139.6572,26.4075 138.9807,25.7585 138.2999,25.114 137.6139,24.475 136.9224,23.8419 136.2248,23.2157 135.5205,22.5969" stroke="red"/>
  <polyline fill="none" points="135.5205,22.5969 134.7646,21.9487 134.0007,21.31 133.2289,20.6808 132.4494,20.0613 131.6622,19.4515 130.8674,18.8515 130.0653,18.2615 129.2559,17.6816 128.4393,17.1117 127.6157,16.5521 126.7852,16.0027 125.9479,15.4637 125.104,14.9352 124.2535,14.4173 123.3967,13.9099 122.5337,13.4133 121.6645,12.9274 120.7893,12.4525 119.9083,11.9884 119.0216,11.5353 118.1293,11.0933 117.2316,10.6625 116.3286,10.2428 115.4204,9.8345 114.5073,9.4374 113.5892,9.0518 112.6664,8.6776 111.7391,8.3149 110.8073,7.9638 109.8712,7.6243 108.9309,7.2965 107.9867,6.9805 107.0385,6.6762 106.0867,6.3837 105.1313,6.1031 104.1725,5.8344 103.2104,5.5777 102.2452,5.333 101.277,5.1003 100.306,4.8796 99.3323,4.6711 98.3561,4.4747 97.3776,4.2905 96.3968,4.1184 95.4139,3.9586 94.4292,3.811 93.4426,3.6757 92.4545,3.5527 91.4649,3.442 90.4741,3.3437 89.482,3.2576 88.489,3.1839 87.4951,3.1226 86.5006,3.0737 85.5055,3.0371 84.51,3.0129 83.5143,3.0012 82.5186,3.0018 81.5229,3.0148 80.5275,3.0402 79.5325,3.078 78.538,3.1282 77.5442,3.1907 76.5512,3.2656 75.5593,3.3529 74.5686,3.4525 73.5791,3.5644 72.5911,3.6886 71.6048,3.8252 70.6202,3.9739 69.6376,4.135 68.657,4.3082 67.6787,4.4937 66.7027,4.6913 65.7293,4.901 64.7586,5.1228 63.7907,5.3567 62.8258,5.6027 61.864,5.8606 60.9055,6.1304 59.9504,6.4122 58.999,6.7059 58.0512,7.0113 57.1074,7.3286 56.1675,7.6575 55.2318,7.9982 54.3005,8.3504 53.3735,8.7142 52.4512,9.0896 51.5337,9.4763 50.621,9.8745 49.7133,10.284 48.8108,10.7048 47.9137,11.1367 47.0219,11.5798 46.1358,12.034 45.2553,12.4991 44.3808,12.9752 43.5122,13.4621 42.6497,13.9598 41.7935,14.4682 40.9437,14.9872 40.1005,15.5168 39.2639,16.0568 38.434,16.6072 37.6111,17.1678 36.7952,17.7387 35.9865,18.3197 35.1851,18.9107 34.3911,19.5116 33.6047,20.1223 32.8259,20.7428 32.0549,21.373 31.2918,22.0127 30.5367,22.6618 29.7898,23.3203 29.0511,23.988 28.3208,24.6649 27.5989,25.3508 26.8857,26.0457 26.1812,26.7494 25.4854,27.4617 24.7986,28.1827 24.1208,28.9122 23.4522,29.6501 22.7928,30.3962 22.1427,31.1505 21.5021,31.9128 20.871,32.683 20.2495,33.461 19.6378,34.2467 19.0359,35.04 18.4439,35.8406 17.8619,36.6486 17.2901,37.4638 16.7284,38.286 16.177,39.1152 15.6359,39.9511 15.1053,40.7937 14.5853,41.6429 14.0758,42.4984 13.5771,43.3603 13.0891,44.2282 12.6119,45.1022 12.1457,45.9821 11.6904,46.8677 11.2462,47.7589 10.8131,48.6555 10.3913,49.5575 9.9806,50.4646 9.5813,51.3768 9.1934,52.2939 8.817,53.2158 8.452,54.1422 8.0986,55.0732 7.7568,56.0084 7.4267,56.9479 7.1083,57.8913 6.8017,58.8387 6.5068,59.7898 6.2239,60.7445 5.9528,61.7027 5.6937,62.6641 5.4466,63.6287 5.2115,64.5963 4.9885,65.5668 4.7775,66.5399 4.5787,67.5156 4.3921,68.4938 4.2176,69.4741 4.0554,70.4566 3.9054,71.4409 3.7676,72.4271 3.6422,73.4149 3.529,74.4043 3.4282,75.3949 3.3397,76.3867 3.2636,77.3795" stroke="red"/>
  <polyline fill="none" points="3.2636,77.3795 3.203,78.3151 3.1526,79.2512 3.1112,80.1878 3.0781,81.1247 3.0523,82.0619 3.033,82.9992 3.0191,83.9366 3.0098,84.874 3.0041,85.8115 3.0012,86.749 3.0002,87.6865 3.0,88.624" stroke="red"/>
  <polyline fill="none" points="3.0,88.624 3.0,89.7037" stroke="red"/>
  <polyline fill="none" points="3.0,89.7037 3.0,90.7834" stroke="red"/>
  <polyline fill="none" points="3.0,90.7834 3.0002,91.7209 3.0012,92.6584 3.0041,93.5959 3.0098,94.5334 3.0191,95.4709 3.033,96.4083 3.0523,97.3456 3.0781,98.2827 3.1112,99.2196 3.1526,100.1562 3.203,101.0923 3.2636,102.0279" stroke="red"/>
  <polyline fill="none" points="3.2636,102.0279 3.3397,103.0207 3.4282,104.0125 3.529,105.0032 3.6422,105.9925 3.7676,106.9803 3.9054,107.9665 4.0554,108.9509 4.2176,109.9333 4.3921,110.9137 4.5787,111.8918 4.7775,112.8675 4.9885,113.8407 5.2115,114.8111 5.4466,115.7787 5.6937,116.7433 5.9528,117.7048 6.2239,118.6629 6.5068,119.6176 6.8017,120.5687 7.1083,121.5161 7.4267,122.4596 7.7568,123.399 8.0986,124.3343 8.452,125.2652 8.817,126.1917 9.1934,127.1135 9.5813,128.0306 9.9806,128.9428 10.3913,129.8499 10.8131,130.7519 11.2462,131.6486 11.6904,132.5398 12.1457,133.4253 12.6119,134.3052 13.0891,135.1792 13.5771,136.0472 14.0758,136.909 14.5853,137.7646 15.1053,138.6137 15.6359,139.4563 16.177,140.2923 16.7284,141.1214 17.2901,141.9436 17.8619,142.7588 18.4439,143.5668 19.0359,144.3675 19.6378,145.1607 20.2495,145.9464 20.871,146.7244 21.5021,147.4946 22.1427,148.257 22.7928,149.0112 23.4522,149.7574 24.1208,150.4952 24.7986,151.2247 25.4854,151.9457 26.1812,152.6581 26.8857,153.3617 27.5989,154.0566 28.3208,154.7425 29.0511,155.4194 29.7898,156.0871 30.5367,156.7456 31.2918,157.3947 32.0549,158.0344 32.8259,158.6646 33.6047,159.2851 34.3911,159.8958 35.1851,160.4968 35.9865,161.0878 36.7952,161.6687 37.6111,162.2396 38.434,162.8003 39.2639,163.3506 40.1005,163.8906 40.9437,164.4202 41.7935,164.9392 42.6497,165.4476 43.5122,165.9453 44.3808,166.4322 45.2553,166.9083 46.1358,167.3735 47.0219,167.8276 47.9137,168.2707 48.8108,168.7027 49.7133,169.1234 50.621,169.5329 51.5337,169.9311 52.4512,170.3179 53.3735,170.6932 54.3005,171.057 55.2318,171.4093 56.1675,171.7499 57.1074,172.0789 58.0512,172.3961 58.999,172.7016 59.9504,172.9952 60.9055,173.277 61.864,173.5469 62.8258,173.8048 63.7907,174.0507 64.7586,174.2846 65.7293,174.5064 66.7027,174.7162 67.6787,174.9138 68.657,175.0992 69.6376,175.2725 70.6202,175.4335 71.6048,175.5823 72.5911,175.7188 73.5791,175.843 74.5686,175.955 75.5593,176.0546 76.5512,176.1418 77.5442,176.2167 78.538,176.2793 79.5325,176.3294 80.5275,176.3672 81.5229,176.3926 82.5186,176.4056 83.5143,176.4063 84.51,176.3945 85.5055,176.3703 86.5006,176.3338 87.4951,176.2848 88.489,176.2235 89.482,176.1498 90.4741,176.0638 91.4649,175.9654 92.4545,175.8547 93.4426,175.7317 94.4292,175.5964 95.4139,175.4488 96.3968,175.289 97.3776,175.117 98.3561,174.9327 99.3323,174.7363 100.306,174.5278 101.277,174.3072 102.2452,174.0745 103.2104,173.8297 104.1725,173.573 105.1313,173.3043 106.0867,173.0237 107.0385,172.7313 107.9867,172.427 108.9309,172.1109 109.8712,171.7831 110.8073,171.4436 111.7391,171.0925 112.6664,170.7298 113.5892,170.3557 114.5073,169.97 115.4204,169.573 116.3286,169.1646 117.2316,168.745 118.1293,168.3141 119.0216,167.8721 119.9083,167.419 120.7893,166.955 121.6645,166.48 122.5337,165.9941 123.3967,165.4975 124.2535,164.9902 125.104,164.4722 125.9479,163.9437 126.7852,163.4047 127.6157,162.8554 128.4393,162.2957 129.2559,161.7259 130.0653,161.1459 130.8674,160.5559 131.6622,159.956 132.4494,159.3462 133.2289,158.7266 134.0007,158.0974 134.7646,157.4587 135.5205,156.8105" stroke="red"/>
  <polyline fill="none" points="135.5205,156.8105 136.2248,156.1918 136.9224,155.5655 137.6139,154.9325 138.2999,154.2934 138.9807,153.649 139.6572,152.9999 140.3299,152.3469 140.9993,151.6906 141.6662,151.0317 142.3312,150.3708 142.9949,149.7086 143.6579,149.0458" stroke="red"/>
  <polyline fill="none" points="143.6579,149.0458 193.1005,99.6032" stroke="red"/>
  <polyline fill="none" points="195.9289,96.7748 196.1488,96.5549" stroke="red"/>
  <polyline fill="none" points="196.1488,96.5549 196.6331,96.0767 197.135,95.6172" stroke="red"/>
  <polyline fill="none" points="197.135,95.6172 197.9139,95.0187 198.7534,94.5087 199.6434,94.0931 200.5735,93.777 201.5324,93.5642 202.5089,93.4572 203.4911,93.4572 204.4676,93.5642 205.4265,93.777 206.3566,94.0931 207.2466,94.5087 208.0861,95.0187 208.865,95.6172" stroke="red"/>
  <polyline fill="none" points="208.865,95.6172 209.3669,96.0767 209.8512,96.5549" stroke="red"/>
  <polyline fill="none" points="209.8512,96.5549 210.0711,96.7748" stroke="red"/>
  <polyline fill="none" points="195.9289,82.6326 196.1488,82.8526" stroke="red"/>
  <polyline fill="none" points="196.1488,82.8526 196.627,83.3368 197.0865,83.8387" stroke="red"/>
  <polyline fill="none" points="197.0865,83.8387 197.685,84.6176 198.1951,85.4571 198.6106,86.3471 198.9267,87.2772 199.1395,88.2361 199.2465,89.2126 199.2465,90.1949 199.1395,91.1713 198.9267,92.1302 198.6106,93.0603 198.1951,93.9504 197.685,94.7898 197.0865,95.5687" stroke="red"/>
  <polyline fill="none" points="197.0865,95.5687 196.627,96.0706 196.1488,96.5549" stroke="red"/>
  <polyline fill="none" points="196.1488,96.5549 195.9289,96.7748" stroke="red"/>
  <polyline fill="none" points="210.0711,82.6326 209.8512,82.8526" stroke="red"/>
  <polyline fill="none" points="209.8512,82.8526 209.3669,83.3307 208.865,83.7902" stroke="red"/>
  <polyline fill="none" points="208.865,83.7902 208.0861,84.3887 207.2466,84.8988 206.3566,85.3143 205.4265,85.6304 204.4676,85.8432 203.4911,85.9503 202.5089,85.9503 201.5324,85.8432 200.5735,85.6304 199.6434,85.3143 198.7534,84.8988 197.9139,84.3887 197.135,83.7902" stroke="red"/>
  <polyline fill="none" points="197.135,83.7902 196.6331,83.3307 196.1488,82.8526" stroke="red"/>
  <polyline fill="none" points="196.1488,82.8526 195.9289,82.6326" stroke="red"/>
  <polyline fill="none" points="210.0711,96.7748 209.8512,96.5549" stroke="red"/>
  <polyline fill="none" points="209.8512,96.5549 209.373,96.0706 208.9135,95.5687" stroke="red"/>
  <polyline fill="none" points="208.9135,95.5687 208.315,94.7898 207.8049,93.9504 207.3894,93.0603 207.0733,92.1302 206.8605,91.1713 206.7535,90.1949 206.7535,89.2126 206.8605,88.2361 207.0733,87.2772 207.3894,86.3471 207.8049,85.4571 208.315,84.6176 208.9135,83.8387" stroke="red"/>
  <polyline fill="none" points="208.9135,83.8387 209.373,83.3368 209.8512,82.8526" stroke="red"/>
  <polyline fill="none" points="209.8512,82.8526 210.0711,82.6326" stroke="red"/>
</svg>
