<?xml version="1.0" encoding="utf-8" ?>
<svg xmlns="http://www.w3.org/2000/svg" xmlns:ev="http://www.w3.org/2001/xml-events" xmlns:xlink="http://www.w3.org/1999/xlink" baseProfile="tiny" height="574.1649" version="1.2" width="578.1466">
  <defs/>
  <polyline fill="none" points="274.0601,292.211 274.0875,286.6655" stroke="red"/>
  <polyline fill="none" points="274.0875,286.6655 274.0891,285.6731 274.0708,284.6809 274.0126,283.6903 273.8948,282.7051 273.6983,281.7327" stroke="red"/>
  <polyline fill="none" points="273.6983,281.7327 273.4197,280.8154 273.0535,279.9295 272.6031,279.0832 272.0727,278.2846 271.4674,277.5411 270.7929,276.8599 270.0555,276.2473 269.2622,275.709 268.4204,275.2503 267.5381,274.8753 266.6236,274.5876" stroke="red"/>
  <polyline fill="none" points="266.6236,274.5876 265.6532,274.3815 264.6692,274.254 263.6792,274.186 262.6873,274.1578 261.6949,274.1495" stroke="red"/>
  <polyline fill="none" points="261.6949,274.1495 261.1494,274.1468" stroke="red"/>
  <polyline fill="none" points="160.0256,273.6462 260.0244,274.1413" stroke="red"/>
  <polyline fill="none" points="260.0244,274.1413 261.1494,274.1468" stroke="red"/>
  <polyline fill="none" points="277.9635,261.2299 277.9451,264.9554" stroke="red"/>
  <polyline fill="none" points="277.9451,264.9554 277.9359,265.935 277.9006,266.9139 277.8132,267.8894 277.6481,268.8546 277.3814,269.7966 276.992,270.6945" stroke="red"/>
  <polyline fill="none" points="276.992,270.6945 276.4944,271.4861 275.8822,272.1927 275.1695,272.7979 274.373,273.2876" stroke="red"/>
  <polyline fill="none" points="274.373,273.2876 273.4713,273.6682 272.5267,273.9256 271.5599,274.081 270.5836,274.1587 269.6044,274.1844 268.6248,274.1839" stroke="red"/>
  <polyline fill="none" points="268.6248,274.1839 264.8993,274.1654" stroke="red"/>
  <polyline fill="none" points="264.8993,274.1654 261.1494,274.1468" stroke="red"/>
  <polyline fill="none" points="281.7135,261.2485 281.5847,287.2482" stroke="red"/>
  <polyline fill="none" points="281.5847,287.2482 281.56,292.2481" stroke="red"/>
  <polyline fill="none" points="277.81,292.2296 277.9635,261.2299" stroke="red"/>
  <polyline fill="none" points="301.4613,285.0833 300.7555,284.3748" stroke="red"/>
  <polyline fill="none" points="300.7555,284.3748 300.3705,283.9883" stroke="red"/>
  <polyline fill="none" points="300.3705,283.9883 299.6678,283.2875 298.9512,282.601 298.2076,281.9439 297.4259,281.3329 296.5977,280.7867" stroke="red"/>
  <polyline fill="none" points="296.5977,280.7867 295.7482,280.3364 294.8589,279.9708 293.9382,279.6935 292.995,279.507 292.0381,279.4131 291.0766,279.4127 290.1196,279.5059 289.1762,279.6916 288.2553,279.9683 287.3657,280.3332 286.5158,280.7828 285.7137,281.313 284.9669,281.9187 284.2826,282.5941 283.6672,283.3329 283.1266,284.128 282.6659,284.972 282.2894,285.8567 282.0008,286.7739" stroke="red"/>
  <polyline fill="none" points="282.0008,286.7739 281.7947,287.7443 281.6671,288.7283 281.5991,289.7183 281.5709,290.7102 281.5627,291.7026" stroke="red"/>
  <polyline fill="none" points="281.5627,291.7026 281.56,292.2481" stroke="red"/>
  <polyline fill="none" points="261.1494,274.1468 264.8993,274.1654" stroke="red"/>
  <polyline fill="none" points="264.8993,274.1654 268.6493,274.184" stroke="red"/>
  <polyline fill="none" points="268.6493,274.184 268.7876,274.1847" stroke="red"/>
  <polyline fill="none" points="268.7876,274.1847 269.5074,274.1951" stroke="red"/>
  <polyline fill="none" points="269.5074,274.1951 270.5,274.2683 271.4836,274.4202 272.452,274.6499 273.3991,274.9558 274.3188,275.3362 275.2053,275.7885 276.0531,276.3099 276.8566,276.8971 277.611,277.5464 278.3112,278.2536 278.953,279.0143 279.5322,279.8237 280.0452,280.6766 280.4887,281.5675 280.86,282.491 281.1566,283.441 281.3766,284.4116 281.5188,285.3967 281.5821,286.3899" stroke="red"/>
  <polyline fill="none" points="281.5821,286.3899 281.5854,287.1099" stroke="red"/>
  <polyline fill="none" points="281.5854,287.1099 281.5847,287.2482" stroke="red"/>
  <polyline fill="none" points="281.5847,287.2482 281.56,292.2481" stroke="red"/>
  <polyline fill="none" points="261.1494,274.1468 264.8993,274.1654" stroke="red"/>
  <polyline fill="none" points="264.8993,274.1654 265.4449,274.1681" stroke="red"/>
  <polyline fill="none" points="265.4449,274.1681 266.4373,274.1697 267.4294,274.1513 268.42,274.0931 269.4052,273.9753 270.3776,273.7788" stroke="red"/>
  <polyline fill="none" points="270.3776,273.7788 271.2949,273.5003 272.1809,273.134 273.0272,272.6836 273.8258,272.1533 274.5692,271.548 275.2505,270.8735 275.8631,270.1361 276.4013,269.3427 276.8601,268.501 277.2351,267.6187 277.5227,266.7042" stroke="red"/>
  <polyline fill="none" points="277.5227,266.7042 277.7288,265.7337 277.8564,264.7498 277.9244,263.7598 277.9526,262.7678 277.9608,261.7755" stroke="red"/>
  <polyline fill="none" points="277.9608,261.7755 277.9635,261.2299" stroke="red"/>
  <polyline fill="none" points="285.4634,261.2671 285.458,262.3575" stroke="red"/>
  <polyline fill="none" points="285.458,262.3575 285.4564,263.3499 285.4748,264.3421 285.533,265.3327 285.6508,266.3179 285.8473,267.2903" stroke="red"/>
  <polyline fill="none" points="285.8473,267.2903 286.1198,268.1907 286.4768,269.061 286.915,269.8934" stroke="red"/>
  <polyline fill="none" points="286.915,269.8934 287.4579,270.7238 288.0659,271.5079 288.72,272.2541 289.4037,272.9734 290.1017,273.6788" stroke="red"/>
  <polyline fill="none" points="290.1017,273.6788 301.4613,285.0833" stroke="red"/>
  <polyline fill="none" points="281.56,292.2481 281.6036,283.4391" stroke="red"/>
  <polyline fill="none" points="281.6036,283.4391 281.6128,282.4596 281.6481,281.4807 281.7355,280.5052 281.9005,279.54 282.1673,278.598 282.5567,277.7001" stroke="red"/>
  <polyline fill="none" points="282.5567,277.7001 283.0617,276.8984 283.6844,276.1843 284.4097,275.5747 285.2204,275.0842 286.097,274.7247 287.0185,274.5046 287.963,274.4293 288.9078,274.5006 289.8303,274.7167" stroke="red"/>
  <polyline fill="none" points="289.8303,274.7167 290.7381,275.0826 291.5895,275.5659 292.3847,276.1373 293.132,276.7704 293.8445,277.4426 294.5389,278.1336" stroke="red"/>
  <polyline fill="none" points="294.5389,278.1336 301.4613,285.0833" stroke="red"/>
  <polyline fill="none" points="261.1494,274.1468 284.4729,274.2623" stroke="red"/>
  <polyline fill="none" points="284.4729,274.2623 285.3285,274.269 286.1839,274.2906 287.038,274.3417 287.8883,274.4372 288.7297,274.5913" stroke="red"/>
  <polyline fill="none" points="288.7297,274.5913 289.5613,274.8172 290.37,275.1147 291.1497,275.4816 291.8945,275.915" stroke="red"/>
  <polyline fill="none" points="291.8945,275.915 292.5951,276.4059 293.2601,276.9442 293.8962,277.5164 294.5122,278.1103 295.1179,278.7148" stroke="red"/>
  <polyline fill="none" points="295.1179,278.7148 301.4613,285.0833" stroke="red"/>
  <polyline fill="none" points="301.4613,285.0833 372.0325,355.9331" stroke="red"/>
  <polyline fill="none" points="301.4613,285.0833 294.4025,277.9967" stroke="red"/>
  <polyline fill="none" points="294.4025,277.9967 293.9183,277.5142 293.423,277.0431 292.9067,276.5954" stroke="red"/>
  <polyline fill="none" points="292.9067,276.5954 292.1385,276.0292 291.3194,275.5398 290.4568,275.1318 289.5588,274.8089 288.6339,274.5741" stroke="red"/>
  <polyline fill="none" points="288.6339,274.5741 287.9603,274.4589 287.2819,274.3749 286.6018,274.3065" stroke="red"/>
  <polyline fill="none" points="286.6018,274.3065 285.175,274.1685" stroke="red"/>
  <polyline fill="none" points="285.175,274.1685 284.3528,274.0844 283.5339,273.9726 282.7246,273.8058 281.9366,273.5582" stroke="red"/>
  <polyline fill="none" points="281.9366,273.5582 281.0715,273.1462 280.2813,272.6042 279.5853,271.9456 279.0005,271.1866 278.5412,270.3456 278.2187,269.4433" stroke="red"/>
  <polyline fill="none" points="278.2187,269.4433 278.0521,268.6342 277.9681,267.8122 277.9397,266.9863 277.9391,266.1598" stroke="red"/>
  <polyline fill="none" points="277.9391,266.1598 277.9635,261.2299" stroke="red"/>
  <polyline fill="none" points="301.4613,285.0833 295.1179,278.7148" stroke="red"/>
  <polyline fill="none" points="295.1179,278.7148 294.5122,278.1103 293.8962,277.5164 293.2601,276.9442 292.5951,276.4059 291.8945,275.915" stroke="red"/>
  <polyline fill="none" points="291.8945,275.915 291.1497,275.4816 290.37,275.1147 289.5613,274.8172 288.7297,274.5913" stroke="red"/>
  <polyline fill="none" points="288.7297,274.5913 287.8883,274.4372 287.038,274.3417 286.1839,274.2906 285.3285,274.269 284.4729,274.2623" stroke="red"/>
  <polyline fill="none" points="284.4729,274.2623 261.1494,274.1468" stroke="red"/>
  <polyline fill="none" points="279.8385,261.2392 280.4326,141.2407" stroke="red"/>
  <polyline fill="none" points="279.685,292.2388 279.0909,412.2374" stroke="red"/>
  <polyline fill="none" points="372.0325,355.9331 375.1247,359.0374" stroke="red"/>
  <polyline fill="none" points="375.1247,359.0374 375.8277,359.7432 376.531,360.4488 377.2345,361.1542 377.9385,361.859 378.6431,362.5633 379.3485,363.2668 380.0549,363.9693 380.7623,364.6708 381.4709,365.371 382.1809,366.0699 382.8924,366.7671 383.6057,367.4627 384.3207,368.1564 385.0377,368.848 385.7569,369.5374 386.4783,370.2245 387.2021,370.909 387.9285,371.5908 388.6575,372.2698 389.3894,372.9457 390.1242,373.6184 390.8621,374.2877 391.6032,374.9534 392.3477,375.6154 393.0957,376.2734 393.8472,376.9274 394.6025,377.577 395.3616,378.2222 396.1247,378.8627 396.8918,379.4983 397.663,380.1289 398.4386,380.7542 399.2185,381.374 400.0029,381.9882 400.7918,382.5965 401.5854,383.1988 402.3837,383.7947 403.1868,384.3842 403.9948,384.967 404.8078,385.5428 405.6257,386.1115 406.4488,386.6728" stroke="red"/>
  <polyline fill="none" points="406.4488,386.6728 407.2782,387.2273 408.1128,387.7742 408.9523,388.3134 409.7968,388.8448 410.6461,389.3684 411.5003,389.8841 412.3591,390.392 413.2226,390.8919 414.0907,391.3838 414.9633,391.8676 415.8403,392.3434 416.7217,392.8111 417.6073,393.2707 418.4971,393.722 419.3911,394.1652 420.2891,394.6 421.1911,395.0266 422.097,395.4448 423.0067,395.8547 423.9201,396.2561 424.8372,396.6491 425.7579,397.0336 426.6821,397.4096 427.6097,397.7771 428.5407,398.136 429.475,398.4863 430.4124,398.828 431.353,399.161 432.2966,399.4853 433.2431,399.8009 434.1925,400.1077 435.1447,400.4058 436.0996,400.6951 437.0571,400.9755 438.0172,401.2472 438.9798,401.5099 439.9447,401.7638 440.9119,402.0087 441.8814,402.2447 442.853,402.4718 443.8266,402.6899 444.8022,402.899 445.7797,403.0991 446.759,403.2901 447.74,403.4722 448.7227,403.6451 449.7069,403.809 450.6926,403.9638 451.6796,404.1095 452.668,404.2461 453.6576,404.3736 454.6483,404.492 455.6401,404.6012 456.6328,404.7012 457.6264,404.7921 458.6208,404.8738 459.616,404.9463 460.6117,405.0097 461.608,405.0639 462.6048,405.1088 463.6019,405.1446 464.5993,405.1712 465.5969,405.1886 466.5946,405.1967 467.5924,405.1957 468.5901,405.1855 469.5877,405.1661 470.585,405.1374 471.5821,405.0996 472.5787,405.0526 473.5749,404.9963 474.5705,404.9309 475.5655,404.8563 476.5597,404.7726 477.5532,404.6796 478.5457,404.5775 479.5372,404.4663 480.5277,404.3459 481.517,404.2164 482.5051,404.0778 483.4919,403.93 484.4772,403.7732 485.4611,403.6072 486.4434,403.4323 487.424,403.2482 488.403,403.0551 489.38,402.853 490.3552,402.6419 491.3284,402.4218 492.2995,402.1927 493.2685,401.9547 494.2352,401.7078 495.1996,401.4519 496.1616,401.1872 497.1211,400.9136 498.0781,400.6312 499.0324,400.3399 499.984,400.0399 500.9327,399.7311 501.8786,399.4135 502.8215,399.0873 503.7614,398.7523 504.6981,398.4087 505.6317,398.0565 506.5619,397.6957 507.4888,397.3263 508.4122,396.9484 509.3321,396.562 510.2484,396.1671 511.161,395.7638 512.0698,395.352 512.9749,394.932 513.876,394.5035 514.7731,394.0668 515.6661,393.6218 516.555,393.1687 517.4397,392.7073 518.3201,392.2378 519.1961,391.7602 520.0677,391.2745 520.9348,390.7808 521.7972,390.2791 522.6551,389.7695 523.5081,389.252 524.3564,388.7267 525.1998,388.1935 526.0382,387.6526 526.8716,387.104 527.6999,386.5477 528.523,385.9838 529.3409,385.4124 530.1535,384.8334 530.9607,384.2469 531.7625,383.6531 532.5588,383.0518 533.3495,382.4433 534.1345,381.8274 534.9138,381.2044 535.6874,380.5742 536.4551,379.9368 537.2168,379.2925 537.9727,378.6411 538.7224,377.9828 539.4661,377.3176 540.2036,376.6455 540.9348,375.9667 541.6598,375.2812 542.3784,374.589 543.0906,373.8902 543.7964,373.1849 544.4955,372.4731 545.1881,371.7549 545.8741,371.0303 546.5533,370.2994 547.2258,369.5623 547.8914,368.819 548.5501,368.0696 549.2019,367.3142 549.8467,366.5527 550.4845,365.7854 551.1151,365.0122 551.7386,364.2333 552.3549,363.4486 552.9639,362.6582 553.5656,361.8623 554.1599,361.0609 554.7468,360.254 555.3263,359.4417 555.8982,358.6241 556.4626,357.8013 557.0193,356.9733 557.5684,356.1402 558.1098,355.3021 558.6434,354.459 559.1692,353.6111 559.6872,352.7583 560.1973,351.9008 560.6994,351.0386 561.1936,350.1718 561.6798,349.3005 562.1579,348.4248 562.6279,347.5446 563.0898,346.6602 563.5435,345.7716 563.989,344.8788 564.4262,343.9819 564.8551,343.081 565.2757,342.1763 565.688,341.2676 566.0918,340.3552 566.4872,339.4392 566.8741,338.5195 567.2526,337.5963 567.6225,336.6696 567.9838,335.7396 568.3366,334.8063 568.6807,333.8697 569.0162,332.93 569.343,331.9873 569.661,331.0416 569.9704,330.093 570.271,329.1416 570.5628,328.1875 570.8457,327.2307 571.1199,326.2713 571.3851,325.3094 571.6415,324.3452 571.889,323.3786 572.1276,322.4098 572.3572,321.4388 572.5778,320.4657 572.7895,319.4907 572.9922,318.5137 573.1858,317.5349 573.3704,316.5544 573.546,315.5722 573.7124,314.5884 573.8698,313.6031 574.0181,312.6165 574.1573,311.6284 574.2874,310.6392 574.4084,309.6488 574.5202,308.6573 574.6228,307.6648 574.7163,306.6715 574.8006,305.6773 574.8758,304.6824 574.9418,303.6868 574.9985,302.6906 575.0461,301.694 575.0845,300.697 575.1137,299.6996 575.1337,298.7021 575.1445,297.7044 575.1461,296.7066 575.1385,295.7089 575.1217,294.7112 575.0957,293.7138 575.0605,292.7167 575.0161,291.7199 574.9625,290.7236 574.8997,289.7278 574.8277,288.7326 574.7465,287.7382 574.6562,286.7445 574.5567,285.7517 574.4481,284.7599 574.3303,283.7691 574.2034,282.7794 574.0673,281.791 573.9222,280.8038 573.7679,279.8181 573.6046,278.8338 573.4322,277.851 573.2507,276.8699 573.0602,275.8905 572.8607,274.9129 572.6521,273.9372 572.4346,272.9634 572.2081,271.9917 571.9726,271.0221 571.7282,270.0547 571.4749,269.0897" stroke="red"/>
  <polyline fill="none" points="571.4749,269.0897 571.2131,268.1284 570.9427,267.1696 570.664,266.2132 570.377,265.2592 570.0821,264.3076 569.7795,263.3584 569.4694,262.4117 569.152,261.4674 568.8277,260.5254 568.4965,259.5859 568.1587,258.6486 567.8145,257.7137 567.4643,256.7811 567.1081,255.8508 566.7461,254.9226 566.3787,253.9966 566.0061,253.0727 565.6283,252.1508 565.2457,251.231 564.8585,250.3131 564.4669,249.3971 564.071,248.4829 563.6712,247.5704 563.2675,246.6596 562.8602,245.7504 562.4496,244.8428 562.0358,243.9366 561.619,243.0317 561.1994,242.1281 560.7773,241.2258 560.3527,240.3245 559.926,239.4243 559.4974,238.525 559.0669,237.6266 558.6349,236.7289 558.2015,235.8319 557.7669,234.9354 557.3314,234.0394 556.895,233.1439 556.4581,232.2486 556.0208,231.3534 555.5833,230.4584" stroke="red"/>
  <polyline fill="none" points="555.5833,230.4584 483.2628,82.5302" stroke="red"/>
  <polyline fill="none" points="483.2628,82.5302 482.827,81.6389 482.3911,80.7477 481.9548,79.8566 481.5181,78.9658 481.0807,78.0753 480.6425,77.1852 480.2033,76.2956 479.763,75.4066 479.3214,74.5181 478.8783,73.6305 478.4337,72.7436 477.9872,71.8576 477.5389,70.9726 477.0884,70.0886 476.6357,69.2058 476.1806,68.3242 475.7229,67.444 475.2625,66.5652 474.7992,65.6879 474.3329,64.8122 473.8634,63.9382 473.3906,63.066 472.9143,62.1957 472.4344,61.3274 471.9507,60.4612 471.463,59.5972 470.9713,58.7355 470.4753,57.8763 469.975,57.0195 469.4701,56.1655 468.9606,55.3142 468.4464,54.4658 467.9272,53.6204 467.4029,52.7781 466.8734,51.9391 466.3386,51.1035 465.7983,50.2713 465.2525,49.4429 464.7009,48.6182 464.1436,47.7975 463.5802,46.9808 463.0108,46.1684 462.4352,45.3603 461.8533,44.5568 461.265,43.758 460.6701,42.9639 460.0687,42.1749 459.4605,41.3911 458.8455,40.6126 458.2236,39.8396 457.5947,39.0723 456.9587,38.3109 456.3155,37.5555 455.6651,36.8063 455.0073,36.0636" stroke="red"/>
  <polyline fill="none" points="455.0073,36.0636 454.3386,35.3234 453.6624,34.5901 452.9789,33.8636 452.2881,33.1439 451.5901,32.4313 450.885,31.7257 450.1728,31.0273 449.4537,30.336 448.7276,29.652 447.9947,28.9753 447.255,28.3061 446.5086,27.6443 445.7556,26.9901 444.9961,26.3434 444.2301,25.7045 443.4577,25.0732 442.679,24.4498 441.8941,23.8342 441.103,23.2266 440.3059,22.6269 439.5028,22.0353 438.6937,21.4518 437.8789,20.8764 437.0582,20.3093 436.232,19.7505 435.4001,19.2 434.5628,18.6579 433.72,18.1242 432.8719,17.599 432.0186,17.0824 431.1602,16.5744 430.2966,16.0751 429.4281,15.5844 428.5547,15.1026 427.6765,14.6295 426.7936,14.1653 425.9061,13.71 425.014,13.2636 424.1175,12.8262 423.2166,12.3979 422.3115,11.9786 421.4022,11.5685 420.4888,11.1675 419.5714,10.7758 418.6502,10.3933 417.7251,10.02 416.7964,9.6561 415.864,9.3016 414.9281,8.9564 413.9888,8.6207 413.0461,8.2944 412.1003,7.9776 411.1513,7.6704 410.1992,7.3727 409.2442,7.0846 408.2863,6.8061 407.3257,6.5373 406.3625,6.2781 405.3967,6.0286 404.4284,5.7889 403.4578,5.5589 402.4849,5.3387 401.5098,5.1283 400.5327,4.9276 399.5536,4.7369 398.5726,4.556 397.5898,4.3849 396.6054,4.2238 395.6195,4.0725 394.632,3.9312 393.6432,3.7998 392.6531,3.6784 391.6618,3.5669 390.6695,3.4654 389.6762,3.3739 388.682,3.2923 387.6871,3.2208 386.6915,3.1593 385.6953,3.1078 384.6986,3.0663 383.7016,3.0349 382.7043,3.0134 381.7069,3.002 380.7094,3.0007 379.7119,3.0093 378.7145,3.028 377.7174,3.0567 376.7207,3.0955 375.7244,3.1442 374.7286,3.203 373.7335,3.2718 372.7391,3.3506 371.7455,3.4394 370.7529,3.5382 369.7613,3.6469 368.7709,3.7656 367.7817,3.8943 366.7939,4.0329 365.8075,4.1815 364.8226,4.3399 363.8394,4.5083 362.858,4.6865 361.8784,4.8746 360.9007,5.0725 359.925,5.2802 358.9515,5.4978 357.9803,5.7251 357.0113,5.9622 356.0448,6.209 355.0809,6.4655 354.1195,6.7317 353.1609,7.0076 352.2051,7.2931 351.2523,7.5881 350.3024,7.8928 349.3557,8.2069 348.4121,8.5306 347.4719,8.8638 346.5351,9.2064 345.6017,9.5584 344.672,9.9197 343.7459,10.2904 342.8236,10.6704 341.9051,11.0596 340.9907,11.4581 340.0802,11.8657 339.174,12.2825 338.2719,12.7084 337.3742,13.1433 336.4809,13.5872 335.5921,14.0401 334.708,14.5018 333.8285,14.9725 332.9537,15.452 332.0839,15.9402 331.219,16.4372 330.3591,16.9428 329.5044,17.4571 328.6549,17.9799 327.8107,18.5113 326.9718,19.0511 326.1385,19.5993 325.3107,20.1559 324.4885,20.7207 323.6721,21.2939 322.8614,21.8751 322.0567,22.4645 321.2579,23.062 320.4651,23.6675 319.6785,24.2809 318.8981,24.9022 318.124,25.5313 317.3563,26.1682 316.595,26.8127 315.8402,27.4649 315.092,28.1246 314.3505,28.7918 313.6157,29.4665 312.8877,30.1485 312.1667,30.8378 311.4526,31.5343 310.7455,32.2379 310.0456,32.9486 309.3529,33.6663 308.6674,34.391 307.9892,35.1225 307.3184,35.8608 306.655,36.6058 305.9992,37.3574 305.351,38.1156 304.7105,38.8803 304.0776,39.6513 303.4526,40.4287 302.8354,41.2124 302.2261,42.0022 301.6248,42.7981 301.0315,43.6 300.4463,44.4078 299.8692,45.2215 299.3004,46.0409 298.7399,46.866 298.1876,47.6967 297.6438,48.5329 297.1084,49.3746 296.5814,50.2216 296.063,51.0738 295.5533,51.9312 295.0521,52.7937 294.5597,53.6612 294.076,54.5336 293.6011,55.4108 293.135,56.2927 292.6779,57.1793 292.2297,58.0705 291.7904,58.9661 291.3602,59.866 290.9391,60.7703 290.5271,61.6787 290.1242,62.5913 289.7305,63.5078 289.3461,64.4283 288.9709,65.3526 288.6051,66.2806 288.2486,67.2122 287.9015,68.1474 287.5638,69.086 287.2356,70.028 286.9168,70.9732 286.6076,71.9215 286.3079,72.873 286.0178,73.8274 285.7374,74.7847" stroke="red"/>
  <polyline fill="none" points="285.7374,74.7847 285.4679,75.7395 285.2079,76.6969 284.9571,77.6568 284.7154,78.619 284.4826,79.5834 284.2586,80.5499 284.0433,81.5184 283.8364,82.4887 283.6377,83.4607 283.4473,84.4343 283.2648,85.4095 283.0901,86.3861 282.923,87.3641 282.7634,88.3433 282.6112,89.3236 282.466,90.3051 282.3279,91.2875 282.1965,92.2709 282.0717,93.2551 281.9534,94.2402 281.8413,95.2259 281.7354,96.2124 281.6354,97.1994 281.5411,98.187 281.4524,99.1752 281.369,100.1638 281.2909,101.1528 281.2179,102.1422 281.1497,103.132 281.0861,104.1221 281.0271,105.1124 280.9724,106.103 280.9218,107.0939 280.8752,108.0849 280.8324,109.0761 280.7932,110.0674 280.7574,111.0589 280.7249,112.0505 280.6954,113.0421 280.6688,114.0339 280.6449,115.0257 280.6236,116.0176 280.6046,117.0095 280.5877,118.0015 280.5728,118.9935 280.5598,119.9855 280.5484,120.9776 280.5384,121.9696 280.5296,122.9617 280.522,123.9538 280.5152,124.9459 280.5092,125.938 280.5037,126.9301 280.4986,127.9222 280.4937,128.9143" stroke="red"/>
  <polyline fill="none" points="280.4937,128.9143 280.4326,141.2407" stroke="red"/>
  <polyline fill="none" points="160.0256,273.6462 150.6163,273.5996" stroke="red"/>
  <polyline fill="none" points="150.6163,273.5996 149.6209,273.5947 148.6254,273.5899 147.63,273.5855 146.6346,273.5817 145.6391,273.5784 144.6437,273.576 143.6482,273.5747 142.6528,273.5745 141.6573,273.5756 140.6619,273.5782 139.6665,273.5826 138.671,273.5887 137.6756,273.5969 136.6802,273.6072 135.6849,273.6199 134.6895,273.6352 133.6942,273.6531 132.699,273.6738 131.7039,273.6976 130.7088,273.7245 129.7138,273.7548 128.7189,273.7886 127.7242,273.8261 126.7296,273.8675 125.7352,273.9129 124.741,273.9624 123.747,274.0164 122.7533,274.0748 121.7598,274.1379 120.7667,274.2059 119.7739,274.2789 118.7816,274.357 117.7896,274.4406 116.7982,274.5296 115.8072,274.6243 114.8169,274.7248 113.8272,274.8314 112.8381,274.9441 111.8498,275.0631 110.8623,275.1887 109.8757,275.3208 108.89,275.4598 107.9053,275.6058 106.9217,275.7588 105.9393,275.9192 104.9581,276.087 103.9782,276.2624 102.9997,276.4456" stroke="red"/>
  <polyline fill="none" points="102.9997,276.4456 102.0191,276.6373 101.0401,276.837 100.0627,277.0447 99.0871,277.2603 98.1132,277.4837 97.1412,277.7151 96.1711,277.9544 95.2029,278.2015 94.2368,278.4565 93.2728,278.7193 92.311,278.9899 91.3514,279.2683 90.394,279.5544 89.4391,279.8484 88.4865,280.1501 87.5364,280.4595 86.5889,280.7766 85.644,281.1013 84.7017,281.4338 83.7622,281.7738 82.8254,282.1215 81.8915,282.4768 80.9606,282.8396 80.0326,283.21 79.1076,283.5879 78.1857,283.9733 77.267,284.3661 76.3515,284.7664 75.4393,285.1741 74.5304,285.5892 73.6249,286.0117 72.7229,286.4415 71.8244,286.8786 70.9295,287.323 70.0382,287.7746 69.1506,288.2334 68.2667,288.6994 67.3867,289.1726 66.5105,289.6529 65.6383,290.1403 64.77,290.6348 63.9058,291.1363 63.0456,291.6448 62.1897,292.1602 61.3379,292.6826 60.4904,293.2118 59.6473,293.748 58.8085,294.2909 57.9741,294.8407 57.1442,295.3972 56.3189,295.9604 55.4982,296.5303 54.6821,297.1068 53.8707,297.6899 53.0641,298.2796 52.2623,298.8758 51.4654,299.4785 50.6733,300.0877 49.8863,300.7032 49.1042,301.3252 48.3273,301.9534 47.5554,302.5879 46.7888,303.2287 46.0273,303.8757 45.2712,304.5288 44.5203,305.1881 43.7748,305.8534 43.0348,306.5247 42.3002,307.2021 41.5712,307.8853 40.8477,308.5745 40.1298,309.2695 39.4176,309.9703 38.7111,310.6768 38.0104,311.3891 37.3154,312.1071 36.6263,312.8306 35.9431,313.5597 35.2659,314.2944 34.5946,315.0345 33.9293,315.78 33.2702,316.5309 32.6171,317.2871 31.9702,318.0486 31.3295,318.8153 30.695,319.5872 30.0669,320.3643 29.445,321.1463 28.8295,321.9335 28.2204,322.7255 27.6178,323.5225 27.0216,324.3244 26.432,325.1311 25.849,325.9425 25.2725,326.7586 24.7027,327.5794 24.1396,328.4048 23.5832,329.2347 23.0335,330.0691 22.4906,330.908 21.9546,331.7512 21.4254,332.5987 20.9031,333.4505 20.3877,334.3065 19.8793,335.1667 19.3779,336.031 18.8835,336.8993 18.3962,337.7716 17.9159,338.6478 17.4428,339.5279 16.9769,340.4118 16.5181,341.2994 16.0666,342.1907 15.6223,343.0857 15.1853,343.9843 14.7556,344.8863 14.3332,345.7918 13.9182,346.7008 13.5106,347.613 13.1103,348.5285 12.7176,349.4473 12.3323,350.3692 11.9545,351.2942 11.5842,352.2222 11.2214,353.1532 10.8662,354.0872 10.5186,355.0239 10.1787,355.9635 9.8463,356.9058 9.5216,357.8508 9.2046,358.7983 8.8953,359.7484 8.5937,360.701 8.2998,361.656 8.0138,362.6134 7.7354,363.573 7.4649,364.5349 7.2022,365.4989 6.9473,366.465 6.7003,367.4332 6.4611,368.4033 6.2298,369.3754 6.0064,370.3493 5.791,371.3249 5.5834,372.3023 5.3838,373.2814 5.1921,374.262 5.0084,375.2441 4.8327,376.2278 4.6649,377.2128 4.5052,378.1991 4.3534,379.1867 4.2097,380.1755 4.074,381.1654 3.9463,382.1564 3.8267,383.1484 3.7152,384.1413 3.6117,385.1351 3.5162,386.1298 3.4289,387.1251 3.3496,388.1212 3.2784,389.1178 3.2153,390.115 3.1603,391.1127 3.1134,392.1107 3.0746,393.1092 3.0438,394.1079 3.0212,395.1068 3.0067,396.1059 3.0003,397.1051 3.002,398.1042 3.0119,399.1034 3.0298,400.1024 3.0558,401.1012 3.09,402.0998 3.1322,403.0981 3.1825,404.0961 3.241,405.0935 3.3075,406.0905 3.3821,407.0869 3.4648,408.0826 3.5556,409.0777 3.6544,410.072 3.7613,411.0654 3.8763,412.058 3.9993,413.0496 4.1303,414.0401 4.2694,415.0296 4.4165,416.0179 4.5716,417.0049 4.7348,417.9907 4.9059,418.9751 5.085,419.9581 5.2721,420.9397 5.4671,421.9196 5.6701,422.898 5.881,423.8746 6.0998,424.8496 6.3265,425.8227 6.5611,426.7939 6.8036,427.7633 7.054,428.7306 7.3122,429.6958 7.5782,430.6589 7.852,431.6199 8.1336,432.5786 8.423,433.5349 8.7201,434.4889 9.025,435.4405 9.3375,436.3895 9.6578,437.336 9.9857,438.2798 10.3213,439.2209 10.6645,440.1593 11.0153,441.0949 11.3737,442.0276 11.7396,442.9574 12.1131,443.8842 12.4941,444.8079 12.8825,445.7284 13.2784,446.6458 13.6818,447.56 14.0925,448.4708 14.5107,449.3783 14.9361,450.2824 15.3689,451.183 15.809,452.08 16.2564,452.9735 16.711,453.8633 17.1728,454.7493 17.6417,455.6316 18.1179,456.5101" stroke="red"/>
  <polyline fill="none" points="18.1179,456.5101 18.5992,457.3814 19.0875,458.2489 19.5825,459.1125 20.084,459.9724 20.5918,460.8286 21.1059,461.681 21.6259,462.5298 22.1518,463.375 22.6834,464.2166 23.2205,465.0547 23.763,465.8894 24.3106,466.7206 24.8633,467.5485 25.4208,468.3732 25.9831,469.1946 26.5499,470.013 27.1211,470.8282 27.6966,471.6404 28.2762,472.4498 28.8597,473.2563 29.447,474.06 30.0379,474.861 30.6324,475.6595 31.2302,476.4555 31.8312,477.249 32.4353,478.0402 33.0424,478.8291 33.6522,479.6159 34.2646,480.4006 34.8796,481.1834 35.4969,481.9643 36.1165,482.7435 36.7382,483.5209 37.3618,484.2968 37.9872,485.0712 38.6144,485.8443 39.2431,486.616 39.8732,487.3867 40.5047,488.1562 41.1373,488.9248 41.7709,489.6925 42.4054,490.4595 43.0407,491.2259 43.6767,491.9917 44.3132,492.7571 44.95,493.5221 45.5872,494.287 46.2244,495.0517" stroke="red"/>
  <polyline fill="none" points="46.2244,495.0517 56.4418,507.3126" stroke="red"/>
  <polyline fill="none" points="56.4418,507.3126 57.0723,508.0692 57.7029,508.8257 58.3338,509.582 58.9649,510.3381 59.5965,511.0938 60.2286,511.8492 60.8612,512.6039 61.4947,513.3581 62.1289,514.1116 62.764,514.8643 63.4002,515.6162 64.0375,516.3671 64.676,517.1169 65.3159,517.8657 65.9572,518.6132 66.6,519.3593 67.2444,520.1041 67.8906,520.8474 68.5386,521.5891 69.1885,522.3291 69.8404,523.0674 70.4944,523.8038 71.1506,524.5382 71.8092,525.2705 72.4701,526.0007 73.1335,526.7287 73.7995,527.4543 74.4681,528.1774 75.1395,528.898 75.8137,529.6159 76.4909,530.3311 77.1711,531.0433 77.8543,531.7527 78.5408,532.4589 79.2305,533.1619 79.9236,533.8617 80.6201,534.558 81.3201,535.2509 82.0237,535.9401 82.7309,536.6255 83.4418,537.3071 84.1566,537.9847 84.8752,538.6582 85.5977,539.3275 86.3243,539.9924 87.0549,540.6528 87.7896,541.3087 88.5285,541.9599 89.2717,542.6062 90.0192,543.2475 90.771,543.8837 91.5272,544.5147 92.2879,545.1403 93.053,545.7604 93.8227,546.3749 94.597,546.9835 95.3759,547.5863 96.1595,548.183 96.9477,548.7734 97.7407,549.3575 98.5384,549.9351 99.3409,550.5061 100.1482,551.0702 100.9603,551.6275" stroke="red"/>
  <polyline fill="none" points="100.9603,551.6275 101.7889,552.1854 102.6224,552.7359 103.4607,553.2791 104.3038,553.8148 105.1516,554.343 106.0041,554.8638 106.8611,555.3769 107.7226,555.8825 108.5886,556.3804 109.4589,556.8707 110.3335,557.3532 111.2124,557.828 112.0954,558.295 112.9825,558.7542 113.8737,559.2055 114.7688,559.6489 115.6678,560.0843 116.5706,560.5118 117.4771,560.9313 118.3873,561.3428 119.3012,561.7462 120.2185,562.1415 121.1393,562.5287 122.0636,562.9077 122.9911,563.2785 123.9218,563.6411 124.8558,563.9955 125.7928,564.3415 126.7329,564.6793 127.6759,565.0088 128.6218,565.3299 129.5705,565.6426 130.5219,565.9469 131.476,566.2428 132.4326,566.5303 133.3918,566.8093 134.3534,567.0797 135.3173,567.3417 136.2835,567.5951 137.252,567.84 138.2225,568.0763 139.1951,568.304 140.1697,568.5231 141.1462,568.7336 142.1245,568.9354 143.1045,569.1286 144.0863,569.3131 145.0696,569.4889 146.0544,569.656 147.0407,569.8144 148.0283,569.964 149.0172,570.1049 150.0073,570.2371 150.9986,570.3605 151.9909,570.4751 152.9842,570.581 153.9784,570.678 154.9734,570.7663 155.9691,570.8457 156.9655,570.9164 157.9625,570.9782 158.96,571.0312 159.9579,571.0754 160.9562,571.1108 161.9548,571.1373 162.9535,571.155 163.9524,571.1639 164.9513,571.1639 165.9501,571.1551 166.9489,571.1375 167.9474,571.111 168.9457,571.0757 169.9437,571.0316 170.9412,570.9786 171.9382,570.9169 172.9346,570.8463 173.9303,570.7669 174.9253,570.6787 175.9195,570.5817 176.9128,570.4759 177.9051,570.3613 178.8964,570.238 179.8865,570.1059 180.8754,569.965 181.8631,569.8154 182.8493,569.6571 183.8342,569.4901 184.8175,569.3143 185.7992,569.1299 186.7793,568.9368 187.7576,568.735 188.7341,568.5246 189.7087,568.3056 190.6813,568.0779 191.6519,567.8417 192.6203,567.5969 193.5866,567.3435 194.5505,567.0816 195.5121,566.8112 196.4713,566.5323 197.428,566.2449 198.3821,565.949 199.3335,565.6448 200.2822,565.3321 201.2281,565.0111 202.1712,564.6817 203.1112,564.3439 204.0483,563.9979 204.9823,563.6436 205.9131,563.2811 206.8406,562.9103 207.7648,562.5313 208.6857,562.1442 209.6031,561.749 210.5169,561.3456 211.4272,560.9342 212.3337,560.5148 213.2366,560.0874 214.1356,559.6519 215.0307,559.2086 215.9219,558.7574 216.809,558.2982 217.6921,557.8313 218.571,557.3566 219.4456,556.8741 220.316,556.3839 221.182,555.886 222.0435,555.3805 222.9006,554.8674 223.753,554.3467 224.6009,553.8185 225.444,553.2829 226.2824,552.7397 227.1159,552.1892 227.9445,551.6314 228.7682,551.0662 229.5868,550.4938 230.4003,549.9142 231.2087,549.3274 232.0119,548.7334 232.8097,548.1324 233.6022,547.5244 234.3893,546.9093 235.171,546.2874 235.9471,545.6585 236.7176,545.0228 237.4825,544.3803 238.2416,543.7311 238.995,543.0752 239.7426,542.4126 240.4842,541.7435 241.2199,541.0678 241.9497,540.3856 242.6733,539.697 243.3908,539.0021 244.1022,538.3008 244.8073,537.5933 245.5062,536.8795 246.1987,536.1596 246.8848,535.4336 247.5644,534.7016 248.2376,533.9636 248.9042,533.2196 249.5642,532.4698 250.2175,531.7142 250.8642,530.9529 251.5041,530.1858 252.1371,529.4131 252.7633,528.6349 253.3826,527.8511 253.995,527.0619 254.6003,526.2673 255.1986,525.4674 255.7898,524.6622 256.3738,523.8519 256.9507,523.0364 257.5203,522.2158 258.0827,521.3902 258.6377,520.5597 259.1853,519.7243 259.7256,518.8841 260.2584,518.0391 260.7837,517.1895 261.3014,516.3353 261.8116,515.4765 262.3142,514.6132 262.8091,513.7455 263.2963,512.8735 263.7758,511.9972 264.2476,511.1167 264.7115,510.232 265.1676,509.3433 265.6158,508.4506 266.0561,507.554 266.4884,506.6535 266.9127,505.7492 267.3291,504.8412 267.7374,503.9296 268.1376,503.0143 268.5297,502.0956 268.9137,501.1734 269.2895,500.2479 269.6571,499.3191 270.0165,498.3871 270.3676,497.4519 270.7104,496.5137 271.0449,495.5725 271.3711,494.6283 271.6889,493.6813 271.9983,492.7315 272.2993,491.7791 272.5919,490.824 272.8761,489.8663" stroke="red"/>
  <polyline fill="none" points="272.8761,489.8663 273.1479,488.9197 273.4116,487.9708 273.6673,487.0197 273.9151,486.0665 274.1551,485.1113 274.3874,484.1542 274.6121,483.1953 274.8293,482.2346 275.0393,481.2724 275.242,480.3086 275.4376,479.3433 275.6262,478.3767 275.808,477.4087 275.9831,476.4395 276.1515,475.4691 276.3135,474.4977 276.4691,473.5252 276.6185,472.5517 276.7618,471.5773 276.8991,470.602 277.0305,469.6259 277.1563,468.6491 277.2764,467.6716 277.3911,466.6934 277.5004,465.7146 277.6046,464.7352 277.7036,463.7553 277.7978,462.7749 277.8871,461.7941 277.9717,460.8129 278.0518,459.8313 278.1275,458.8493 278.1989,457.867 278.2661,456.8844 278.3293,455.9015 278.3887,454.9184 278.4443,453.9351 278.4963,452.9516 278.5447,451.9679 278.5899,450.9841 278.6318,450.0001 278.6707,449.016 278.7065,448.0317 278.7396,447.0474 278.77,446.063 278.7978,445.0785 278.8233,444.0939 278.8464,443.1093 278.8674,442.1247 278.8864,441.1399 278.9035,440.1552 278.9189,439.1704 278.9326,438.1857 278.9449,437.2008 278.9559,436.216 278.9656,435.2312 278.9742,434.2463 278.982,433.2615 278.9889,432.2766 278.9951,431.2917 279.0008,430.3069 279.0061,429.322 279.0111,428.3371 279.016,427.3523" stroke="red"/>
  <polyline fill="none" points="279.016,427.3523 279.0909,412.2374" stroke="red"/>
</svg>
