<?xml version="1.0" encoding="utf-8" ?>
<svg xmlns="http://www.w3.org/2000/svg" xmlns:ev="http://www.w3.org/2001/xml-events" xmlns:xlink="http://www.w3.org/1999/xlink" baseProfile="tiny" height="30.6967" version="1.2" width="152.1942">
  <defs/>
  <polyline fill="none" points="3.0,13.0459 107.7779,13.8841" stroke="red"/>
  <polyline fill="none" points="107.7779,13.8841 109.85,13.9007" stroke="red"/>
  <polyline fill="none" points="109.85,13.9007 110.802,13.9068 111.7541,13.904 112.706,13.8834 113.6568,13.8359 114.6052,13.7529 115.5487,13.6254" stroke="red"/>
  <polyline fill="none" points="115.5487,13.6254 116.3998,13.4649 117.2416,13.261 118.0718,13.0142 118.8884,12.7253 119.6891,12.395 120.4718,12.0241 121.2345,11.6137" stroke="red"/>
  <polyline fill="none" points="121.2345,11.6137 122.0481,11.1194 122.8377,10.5876 123.6069,10.0264 124.3599,9.4439 125.1019,8.8473 125.8383,8.2438" stroke="red"/>
  <polyline fill="none" points="125.8383,8.2438 126.5285,7.6762" stroke="red"/>
  <polyline fill="none" points="126.5285,7.6762 127.2144,7.1143 127.9059,6.5594 128.6087,6.0188 129.3278,5.5001 130.0675,5.0114 130.8312,4.5613 131.6212,4.159" stroke="red"/>
  <polyline fill="none" points="131.6212,4.159 132.525,3.7799 133.4561,3.4736 134.4085,3.2422 135.3763,3.087 136.3533,3.0091 137.3335,3.0089 138.3105,3.0865 139.2784,3.2413 140.2309,3.4723 141.1621,3.7782 142.0661,4.1569 142.9372,4.6062 143.7699,5.1231 144.559,5.7045 145.2996,6.3465 145.9868,7.0453 146.6165,7.7964 147.1847,8.5951 147.6877,9.4363 148.1224,10.3148 148.486,11.225 148.7764,12.1611 148.9916,13.1173 149.1302,14.0876 149.1915,15.0658 149.175,16.0458 149.0809,17.0214 148.9097,17.9865 148.6624,18.9349 148.3408,19.8608 147.9467,20.7582 147.4827,21.6215 146.9516,22.4454 146.357,23.2245 145.7024,23.954 144.992,24.6292 144.2302,25.2461 143.422,25.8005 142.5724,26.2891 141.6866,26.7088 140.7704,27.057 139.8295,27.3313 138.8697,27.5302 137.8972,27.6524 136.9181,27.697 135.9385,27.6638 134.9647,27.5531 134.0027,27.3655 133.0586,27.1021 132.1383,26.7647 131.2477,26.3555" stroke="red"/>
  <polyline fill="none" points="131.2477,26.3555 130.4718,25.9268 129.7236,25.4512 129.0007,24.9379 128.2995,24.3953 127.6153,23.8314 126.9428,23.2536 126.2763,22.6689" stroke="red"/>
  <polyline fill="none" points="126.2763,22.6689 121.9974,18.9024" stroke="red"/>
  <polyline fill="none" points="121.9974,18.9024 121.3282,18.3183 120.6446,17.7512" stroke="red"/>
  <polyline fill="none" points="120.6446,17.7512 119.8551,17.1588 119.0339,16.6114 118.1834,16.1106 117.3063,15.6579 116.4054,15.2549 115.4834,14.9027 114.5432,14.6024 113.5877,14.355 112.6199,14.1613 111.6429,14.0217 110.6595,13.9369" stroke="red"/>
  <polyline fill="none" points="110.6595,13.9369 109.772,13.9038 108.8838,13.893" stroke="red"/>
  <polyline fill="none" points="108.8838,13.893 107.7779,13.8841" stroke="red"/>
</svg>
