<?xml version="1.0" encoding="utf-8" ?>
<svg xmlns="http://www.w3.org/2000/svg" xmlns:ev="http://www.w3.org/2001/xml-events" xmlns:xlink="http://www.w3.org/1999/xlink" baseProfile="tiny" height="179.4074" version="1.2" width="406.0">
  <defs/>
  <polyline fill="none" points="229.1135,115.819 262.3421,149.0458" stroke="red"/>
  <polyline fill="none" points="262.3421,149.0458 263.0051,149.7086 263.6688,150.3708 264.3338,151.0317 265.0007,151.6906 265.6701,152.3469 266.3428,152.9999 267.0193,153.649 267.7001,154.2934 268.3861,154.9325 269.0776,155.5655 269.7752,156.1918 270.4795,156.8105" stroke="red"/>
  <polyline fill="none" points="270.4795,156.8105 271.2354,157.4587 271.9993,158.0974 272.7711,158.7266 273.5506,159.3462 274.3378,159.956 275.1326,160.5559 275.9347,161.1459 276.7441,161.7259 277.5607,162.2957 278.3843,162.8554 279.2148,163.4047 280.0521,163.9437 280.896,164.4722 281.7465,164.9902 282.6033,165.4975 283.4663,165.9941 284.3355,166.48 285.2107,166.955 286.0917,167.419 286.9784,167.8721 287.8707,168.3141 288.7684,168.745 289.6714,169.1646 290.5796,169.573 291.4927,169.97 292.4108,170.3557 293.3336,170.7298 294.2609,171.0925 295.1927,171.4436 296.1288,171.7831 297.0691,172.1109 298.0133,172.427 298.9615,172.7313 299.9133,173.0237 300.8687,173.3043 301.8275,173.573 302.7896,173.8297 303.7548,174.0745 304.723,174.3072 305.694,174.5278 306.6677,174.7363 307.6439,174.9327 308.6224,175.117 309.6032,175.289 310.5861,175.4488 311.5708,175.5964 312.5574,175.7317 313.5455,175.8547 314.5351,175.9654 315.5259,176.0638 316.518,176.1498 317.511,176.2235 318.5049,176.2848 319.4994,176.3338 320.4945,176.3703 321.49,176.3945 322.4857,176.4063 323.4814,176.4056 324.4771,176.3926 325.4725,176.3672 326.4675,176.3294 327.462,176.2793 328.4558,176.2167 329.4488,176.1418 330.4407,176.0546 331.4314,175.955 332.4209,175.843 333.4089,175.7188 334.3952,175.5823 335.3798,175.4335 336.3624,175.2725 337.343,175.0992 338.3213,174.9138 339.2973,174.7162 340.2707,174.5064 341.2414,174.2846 342.2093,174.0507 343.1742,173.8048 344.136,173.5469 345.0945,173.277 346.0496,172.9952 347.001,172.7016 347.9488,172.3961 348.8926,172.0789 349.8325,171.7499 350.7682,171.4093 351.6995,171.057 352.6265,170.6932 353.5488,170.3179 354.4663,169.9311 355.379,169.5329 356.2867,169.1234 357.1892,168.7027 358.0863,168.2707 358.9781,167.8276 359.8642,167.3735 360.7447,166.9083 361.6192,166.4322 362.4878,165.9453 363.3503,165.4476 364.2065,164.9392 365.0563,164.4202 365.8995,163.8906 366.7361,163.3506 367.566,162.8003 368.3889,162.2396 369.2048,161.6687 370.0135,161.0878 370.8149,160.4968 371.6089,159.8958 372.3953,159.2851 373.1741,158.6646 373.9451,158.0344 374.7082,157.3947 375.4633,156.7456 376.2102,156.0871 376.9489,155.4194 377.6792,154.7425 378.4011,154.0566 379.1143,153.3617 379.8188,152.6581 380.5146,151.9457 381.2014,151.2247 381.8792,150.4952 382.5478,149.7574 383.2072,149.0112 383.8573,148.257 384.4979,147.4946 385.129,146.7244 385.7505,145.9464 386.3622,145.1607 386.9641,144.3675 387.5561,143.5668 388.1381,142.7588 388.7099,141.9436 389.2716,141.1214 389.823,140.2923 390.3641,139.4563 390.8947,138.6137 391.4147,137.7646 391.9242,136.909 392.4229,136.0472 392.9109,135.1792 393.3881,134.3052 393.8543,133.4253 394.3096,132.5398 394.7538,131.6486 395.1869,130.7519 395.6087,129.8499 396.0194,128.9428 396.4187,128.0306 396.8066,127.1135 397.183,126.1917 397.548,125.2652 397.9014,124.3343 398.2432,123.399 398.5733,122.4596 398.8917,121.5161 399.1983,120.5687 399.4932,119.6176 399.7761,118.6629 400.0472,117.7048 400.3063,116.7433 400.5534,115.7787 400.7885,114.8111 401.0115,113.8407 401.2225,112.8675 401.4213,111.8918 401.6079,110.9137 401.7824,109.9333 401.9446,108.9509 402.0946,107.9665 402.2324,106.9803 402.3578,105.9925 402.471,105.0032 402.5718,104.0125 402.6603,103.0207 402.7364,102.0279" stroke="red"/>
  <polyline fill="none" points="402.7364,102.0279 402.797,101.0923 402.8474,100.1562 402.8888,99.2196 402.9219,98.2827 402.9477,97.3456 402.967,96.4083 402.9809,95.4709 402.9902,94.5334 402.9959,93.5959 402.9988,92.6584 402.9998,91.7209 403.0,90.7834" stroke="red"/>
  <polyline fill="none" points="403.0,90.7834 403.0,89.7037" stroke="red"/>
  <polyline fill="none" points="403.0,89.7037 403.0,88.624" stroke="red"/>
  <polyline fill="none" points="176.8877,115.8151 143.6579,149.0458" stroke="red"/>
  <polyline fill="none" points="143.6579,149.0458 142.9949,149.7086 142.3312,150.3708 141.6662,151.0317 140.9993,151.6906 140.3299,152.3469 139.6572,152.9999 138.9807,153.649 138.2999,154.2934 137.6139,154.9325 136.9224,155.5655 136.2248,156.1918 135.5205,156.8105" stroke="red"/>
  <polyline fill="none" points="135.5205,156.8105 134.7646,157.4587 134.0007,158.0974 133.2289,158.7266 132.4494,159.3462 131.6622,159.956 130.8674,160.5559 130.0653,161.1459 129.2559,161.7259 128.4393,162.2957 127.6157,162.8554 126.7852,163.4047 125.9479,163.9437 125.104,164.4722 124.2535,164.9902 123.3967,165.4975 122.5337,165.9941 121.6645,166.48 120.7893,166.955 119.9083,167.419 119.0216,167.8721 118.1293,168.3141 117.2316,168.745 116.3286,169.1646 115.4204,169.573 114.5073,169.97 113.5892,170.3557 112.6664,170.7298 111.7391,171.0925 110.8073,171.4436 109.8712,171.7831 108.9309,172.1109 107.9867,172.427 107.0385,172.7313 106.0867,173.0237 105.1313,173.3043 104.1725,173.573 103.2104,173.8297 102.2452,174.0745 101.277,174.3072 100.306,174.5278 99.3323,174.7363 98.3561,174.9327 97.3776,175.117 96.3968,175.289 95.4139,175.4488 94.4292,175.5964 93.4426,175.7317 92.4545,175.8547 91.4649,175.9654 90.4741,176.0638 89.482,176.1498 88.489,176.2235 87.4951,176.2848 86.5006,176.3338 85.5055,176.3703 84.51,176.3945 83.5143,176.4063 82.5186,176.4056 81.5229,176.3926 80.5275,176.3672 79.5325,176.3294 78.538,176.2793 77.5442,176.2167 76.5512,176.1418 75.5593,176.0546 74.5686,175.955 73.5791,175.843 72.5911,175.7188 71.6048,175.5823 70.6202,175.4335 69.6376,175.2725 68.657,175.0992 67.6787,174.9138 66.7027,174.7162 65.7293,174.5064 64.7586,174.2846 63.7907,174.0507 62.8258,173.8048 61.864,173.5469 60.9055,173.277 59.9504,172.9952 58.999,172.7016 58.0512,172.3961 57.1074,172.0789 56.1675,171.7499 55.2318,171.4093 54.3005,171.057 53.3735,170.6932 52.4512,170.3179 51.5337,169.9311 50.621,169.5329 49.7133,169.1234 48.8108,168.7027 47.9137,168.2707 47.0219,167.8276 46.1358,167.3735 45.2553,166.9083 44.3808,166.4322 43.5122,165.9453 42.6497,165.4476 41.7935,164.9392 40.9437,164.4202 40.1005,163.8906 39.2639,163.3506 38.434,162.8003 37.6111,162.2396 36.7952,161.6687 35.9865,161.0878 35.1851,160.4968 34.3911,159.8958 33.6047,159.2851 32.8259,158.6646 32.0549,158.0344 31.2918,157.3947 30.5367,156.7456 29.7898,156.0871 29.0511,155.4194 28.3208,154.7425 27.5989,154.0566 26.8857,153.3617 26.1812,152.6581 25.4854,151.9457 24.7986,151.2247 24.1208,150.4952 23.4522,149.7574 22.7928,149.0112 22.1427,148.257 21.5021,147.4946 20.871,146.7244 20.2495,145.9464 19.6378,145.1607 19.0359,144.3675 18.4439,143.5668 17.8619,142.7588 17.2901,141.9436 16.7284,141.1214 16.177,140.2923 15.6359,139.4563 15.1053,138.6137 14.5853,137.7646 14.0758,136.909 13.5771,136.0472 13.0891,135.1792 12.6119,134.3052 12.1457,133.4253 11.6904,132.5398 11.2462,131.6486 10.8131,130.7519 10.3913,129.8499 9.9806,128.9428 9.5813,128.0306 9.1934,127.1135 8.817,126.1917 8.452,125.2652 8.0986,124.3343 7.7568,123.399 7.4267,122.4596 7.1083,121.5161 6.8017,120.5687 6.5068,119.6176 6.2239,118.6629 5.9528,117.7048 5.6937,116.7433 5.4466,115.7787 5.2115,114.8111 4.9885,113.8407 4.7775,112.8675 4.5787,111.8918 4.3921,110.9137 4.2176,109.9333 4.0554,108.9509 3.9054,107.9665 3.7676,106.9803 3.6422,105.9925 3.529,105.0032 3.4282,104.0125 3.3397,103.0207 3.2636,102.0279" stroke="red"/>
  <polyline fill="none" points="3.2636,102.0279 3.203,101.0923 3.1526,100.1562 3.1112,99.2196 3.0781,98.2827 3.0523,97.3456 3.033,96.4083 3.0191,95.4709 3.0098,94.5334 3.0041,93.5959 3.0012,92.6584 3.0002,91.7209 3.0,90.7834" stroke="red"/>
  <polyline fill="none" points="3.0,90.7834 3.0,89.7037" stroke="red"/>
  <polyline fill="none" points="3.0,89.7037 3.0,88.624" stroke="red"/>
  <polyline fill="none" points="176.8865,63.5884 143.6579,30.3616" stroke="red"/>
  <polyline fill="none" points="143.6579,30.3616 142.9949,29.6988 142.3312,29.0366 141.6662,28.3758 140.9993,27.7169 140.3299,27.0606 139.6572,26.4075 138.9807,25.7585 138.2999,25.114 137.6139,24.475 136.9224,23.8419 136.2248,23.2157 135.5205,22.5969" stroke="red"/>
  <polyline fill="none" points="135.5205,22.5969 134.7646,21.9487 134.0007,21.31 133.2289,20.6808 132.4494,20.0613 131.6622,19.4515 130.8674,18.8515 130.0653,18.2615 129.2559,17.6816 128.4393,17.1117 127.6157,16.5521 126.7852,16.0027 125.9479,15.4637 125.104,14.9352 124.2535,14.4173 123.3967,13.9099 122.5337,13.4133 121.6645,12.9274 120.7893,12.4525 119.9083,11.9884 119.0216,11.5353 118.1293,11.0933 117.2316,10.6625 116.3286,10.2428 115.4204,9.8345 114.5073,9.4374 113.5892,9.0518 112.6664,8.6776 111.7391,8.3149 110.8073,7.9638 109.8712,7.6243 108.9309,7.2965 107.9867,6.9805 107.0385,6.6762 106.0867,6.3837 105.1313,6.1031 104.1725,5.8344 103.2104,5.5777 102.2452,5.333 101.277,5.1003 100.306,4.8796 99.3323,4.6711 98.3561,4.4747 97.3776,4.2905 96.3968,4.1184 95.4139,3.9586 94.4292,3.811 93.4426,3.6757 92.4545,3.5527 91.4649,3.442 90.4741,3.3437 89.482,3.2576 88.489,3.1839 87.4951,3.1226 86.5006,3.0737 85.5055,3.0371 84.51,3.0129 83.5143,3.0012 82.5186,3.0018 81.5229,3.0148 80.5275,3.0402 79.5325,3.078 78.538,3.1282 77.5442,3.1907 76.5512,3.2656 75.5593,3.3529 74.5686,3.4525 73.5791,3.5644 72.5911,3.6886 71.6048,3.8252 70.6202,3.9739 69.6376,4.135 68.657,4.3082 67.6787,4.4937 66.7027,4.6913 65.7293,4.901 64.7586,5.1228 63.7907,5.3567 62.8258,5.6027 61.864,5.8606 60.9055,6.1304 59.9504,6.4122 58.999,6.7059 58.0512,7.0113 57.1074,7.3286 56.1675,7.6575 55.2318,7.9982 54.3005,8.3504 53.3735,8.7142 52.4512,9.0896 51.5337,9.4763 50.621,9.8745 49.7133,10.284 48.8108,10.7048 47.9137,11.1367 47.0219,11.5798 46.1358,12.034 45.2553,12.4991 44.3808,12.9752 43.5122,13.4621 42.6497,13.9598 41.7935,14.4682 40.9437,14.9872 40.1005,15.5168 39.2639,16.0568 38.434,16.6072 37.6111,17.1678 36.7952,17.7387 35.9865,18.3197 35.1851,18.9107 34.3911,19.5116 33.6047,20.1223 32.8259,20.7428 32.0549,21.373 31.2918,22.0127 30.5367,22.6618 29.7898,23.3203 29.0511,23.988 28.3208,24.6649 27.5989,25.3508 26.8857,26.0457 26.1812,26.7494 25.4854,27.4617 24.7986,28.1827 24.1208,28.9122 23.4522,29.6501 22.7928,30.3962 22.1427,31.1505 21.5021,31.9128 20.871,32.683 20.2495,33.461 19.6378,34.2467 19.0359,35.04 18.4439,35.8406 17.8619,36.6486 17.2901,37.4638 16.7284,38.286 16.177,39.1152 15.6359,39.9511 15.1053,40.7937 14.5853,41.6429 14.0758,42.4984 13.5771,43.3603 13.0891,44.2282 12.6119,45.1022 12.1457,45.9821 11.6904,46.8677 11.2462,47.7589 10.8131,48.6555 10.3913,49.5575 9.9806,50.4646 9.5813,51.3768 9.1934,52.2939 8.817,53.2158 8.452,54.1422 8.0986,55.0732 7.7568,56.0084 7.4267,56.9479 7.1083,57.8913 6.8017,58.8387 6.5068,59.7898 6.2239,60.7445 5.9528,61.7027 5.6937,62.6641 5.4466,63.6287 5.2115,64.5963 4.9885,65.5668 4.7775,66.5399 4.5787,67.5156 4.3921,68.4938 4.2176,69.4741 4.0554,70.4566 3.9054,71.4409 3.7676,72.4271 3.6422,73.4149 3.529,74.4043 3.4282,75.3949 3.3397,76.3867 3.2636,77.3795" stroke="red"/>
  <polyline fill="none" points="3.2636,77.3795 3.203,78.3151 3.1526,79.2512 3.1112,80.1878 3.0781,81.1247 3.0523,82.0619 3.033,82.9992 3.0191,83.9366 3.0098,84.874 3.0041,85.8115 3.0012,86.749 3.0002,87.6865 3.0,88.624" stroke="red"/>
  <polyline fill="none" points="222.6224,93.5719 222.4104,94.5242 222.1522,95.465 221.8485,96.392 221.4999,97.3032 221.1073,98.1963 220.6717,99.0692 220.1939,99.9198 219.6753,100.7461 219.117,101.5461 218.5204,102.3179 217.8868,103.0597 217.2178,103.7698 216.5149,104.4464 215.78,105.0879 215.0146,105.6928 214.2206,106.2596 213.3999,106.7871 212.5545,107.2739 211.6863,107.7189 210.7975,108.1211 209.8901,108.4794 208.9664,108.793 208.0284,109.0613 207.0785,109.2835" stroke="red"/>
  <polyline fill="none" points="207.0785,109.2835 206.2045,109.4453 205.3242,109.5682 204.4394,109.6519 203.5516,109.6961 202.6628,109.7009 201.7747,109.6661 200.889,109.592 200.0074,109.4786 199.1318,109.3261" stroke="red"/>
  <polyline fill="none" points="229.1135,115.819 226.67,113.3754" stroke="red"/>
  <polyline fill="none" points="226.67,113.3754 226.1383,112.8464 225.5984,112.3258 225.0426,111.8224" stroke="red"/>
  <polyline fill="none" points="225.0426,111.8224 224.295,111.2117 223.5118,110.6471 222.6961,110.1309 221.8508,109.6647 220.9788,109.2504 220.0835,108.8895 219.168,108.5832 218.2357,108.3326 217.29,108.1387 216.3343,108.0023 215.3721,107.9237 214.407,107.9033 213.4424,107.9411 212.4818,108.037 211.5287,108.1907" stroke="red"/>
  <polyline fill="none" points="211.5287,108.1907 210.7954,108.3477 210.0673,108.5275 209.342,108.7187" stroke="red"/>
  <polyline fill="none" points="209.342,108.7187 209.02,108.8045" stroke="red"/>
  <polyline fill="none" points="209.02,108.8045 208.1495,109.0329 207.2741,109.2417" stroke="red"/>
  <polyline fill="none" points="207.2741,109.2417 207.0785,109.2835" stroke="red"/>
  <polyline fill="none" points="226.2034,94.2779 226.1638,94.4739" stroke="red"/>
  <polyline fill="none" points="226.1638,94.4739 225.9644,95.3515 225.7453,96.2244" stroke="red"/>
  <polyline fill="none" points="225.7453,96.2244 225.0526,98.9414" stroke="red"/>
  <polyline fill="none" points="225.0526,98.9414 224.8505,99.7499 224.6709,100.5636" stroke="red"/>
  <polyline fill="none" points="224.6709,100.5636 224.5121,101.5405 224.4182,102.5258 224.3894,103.5152 224.4259,104.5043 224.5276,105.4888 224.694,106.4645 224.9243,107.4271 225.2177,108.3724 225.5727,109.2963 225.9879,110.1947 226.4615,111.0639 226.9913,111.8999 227.5751,112.6991 228.2104,113.4581" stroke="red"/>
  <polyline fill="none" points="228.2104,113.4581 228.7802,114.0661 229.3667,114.6581" stroke="red"/>
  <polyline fill="none" points="229.3667,114.6581 229.8206,115.1119" stroke="red"/>
  <polyline fill="none" points="183.4203,93.7822 183.2584,92.9082 183.1355,92.0279 183.0519,91.1431 183.0076,90.2554 183.0028,89.3666 183.0376,88.4784 183.1117,87.5927 183.2252,86.7112 183.3776,85.8355" stroke="red"/>
  <polyline fill="none" points="176.8847,115.8172 179.3283,113.3737" stroke="red"/>
  <polyline fill="none" points="179.3283,113.3737 179.8573,112.842 180.3779,112.3022 180.8813,111.7463" stroke="red"/>
  <polyline fill="none" points="180.8813,111.7463 181.4921,110.9987 182.0566,110.2156 182.5729,109.3998 183.039,108.5545 183.4533,107.6825 183.8143,106.7872 184.1206,105.8717 184.3711,104.9394 184.565,103.9937 184.7014,103.038 184.78,102.0759 184.8005,101.1107 184.7626,100.1461 184.6667,99.1855 184.513,98.2324" stroke="red"/>
  <polyline fill="none" points="184.513,98.2324 184.356,97.4991 184.1762,96.771 183.985,96.0458" stroke="red"/>
  <polyline fill="none" points="183.985,96.0458 183.8992,95.7237" stroke="red"/>
  <polyline fill="none" points="183.8992,95.7237 183.6708,94.8532 183.462,93.9778" stroke="red"/>
  <polyline fill="none" points="183.462,93.9778 183.4203,93.7822" stroke="red"/>
  <polyline fill="none" points="199.1318,109.3261 198.1795,109.1141 197.2388,108.8559 196.3117,108.5522 195.4005,108.2036 194.5074,107.8111 193.6345,107.3754 192.7839,106.8977 191.9576,106.379 191.1576,105.8207 190.3858,105.2241 189.644,104.5905 188.9339,103.9215 188.2573,103.2187 187.6158,102.4837 187.0109,101.7183 186.4441,100.9243 185.9166,100.1036 185.4298,99.2582 184.9848,98.39 184.5826,97.5012 184.2243,96.5938 183.9107,95.6701 183.6424,94.7321 183.4203,93.7822" stroke="red"/>
  <polyline fill="none" points="198.4258,112.9072 198.2298,112.8675" stroke="red"/>
  <polyline fill="none" points="198.2298,112.8675 197.3522,112.6681 196.4793,112.4491" stroke="red"/>
  <polyline fill="none" points="196.4793,112.4491 193.7623,111.7563" stroke="red"/>
  <polyline fill="none" points="193.7623,111.7563 192.9538,111.5542 192.1402,111.3746" stroke="red"/>
  <polyline fill="none" points="192.1402,111.3746 191.1632,111.2159 190.1779,111.1219 189.1886,111.0931 188.1995,111.1296 187.2149,111.2313 186.2392,111.3977 185.2767,111.628 184.3314,111.9214 183.4075,112.2764 182.509,112.6916 181.6399,113.1652 180.8039,113.695 180.0046,114.2788 179.2456,114.9141" stroke="red"/>
  <polyline fill="none" points="179.2456,114.9141 178.6376,115.4839 178.0457,116.0704" stroke="red"/>
  <polyline fill="none" points="178.0457,116.0704 177.5918,116.5243" stroke="red"/>
  <polyline fill="none" points="179.7966,85.1296 179.8362,84.9335" stroke="red"/>
  <polyline fill="none" points="179.8362,84.9335 180.0356,84.0559 180.2547,83.183" stroke="red"/>
  <polyline fill="none" points="180.2547,83.183 180.9474,80.466" stroke="red"/>
  <polyline fill="none" points="180.9474,80.466 181.1495,79.6576 181.3291,78.8439" stroke="red"/>
  <polyline fill="none" points="181.3291,78.8439 181.4879,77.8669 181.5818,76.8816 181.6106,75.8923 181.5741,74.9032 181.4724,73.9186 181.306,72.943 181.0757,71.9804 180.7823,71.0351 180.4273,70.1112 180.0121,69.2127 179.5385,68.3436 179.0087,67.5076 178.4249,66.7083 177.7896,65.9493" stroke="red"/>
  <polyline fill="none" points="177.7896,65.9493 177.2198,65.3413 176.6333,64.7494" stroke="red"/>
  <polyline fill="none" points="176.6333,64.7494 176.1794,64.2955" stroke="red"/>
  <polyline fill="none" points="183.3776,85.8355 183.5896,84.8833 183.8478,83.9425 184.1515,83.0154 184.5001,82.1042 184.8927,81.2111 185.3283,80.3383 185.8061,79.4877 186.3247,78.6614 186.883,77.8613 187.4796,77.0895 188.1132,76.3477 188.7822,75.6376 189.4851,74.9611 190.22,74.3196 190.9854,73.7147 191.7794,73.1478 192.6001,72.6203 193.4455,72.1335 194.3137,71.6885 195.2025,71.2864 196.1099,70.928 197.0336,70.6144 197.9716,70.3462 198.9215,70.124" stroke="red"/>
  <polyline fill="none" points="176.8865,63.5884 179.33,66.0321" stroke="red"/>
  <polyline fill="none" points="179.33,66.0321 179.8617,66.561 180.4016,67.0816 180.9574,67.5851" stroke="red"/>
  <polyline fill="none" points="180.9574,67.5851 181.705,68.1958 182.4882,68.7603 183.3039,69.2766 184.1492,69.7427 185.0212,70.157 185.9165,70.518 186.832,70.8243 187.7643,71.0748 188.71,71.2687 189.6657,71.4052 190.6279,71.4837 191.593,71.5042 192.5576,71.4663 193.5182,71.3704 194.4713,71.2167" stroke="red"/>
  <polyline fill="none" points="194.4713,71.2167 195.2046,71.0598 195.9327,70.8799 196.658,70.6887" stroke="red"/>
  <polyline fill="none" points="196.658,70.6887 196.98,70.6029" stroke="red"/>
  <polyline fill="none" points="196.98,70.6029 197.8505,70.3745 198.7259,70.1657" stroke="red"/>
  <polyline fill="none" points="198.7259,70.1657 198.9215,70.124" stroke="red"/>
  <polyline fill="none" points="198.9215,70.124 199.7955,69.9621 200.6758,69.8392 201.5606,69.7556 202.4484,69.7113 203.3372,69.7066 204.2253,69.7413 205.111,69.8154 205.9926,69.9289 206.8682,70.0814" stroke="red"/>
  <polyline fill="none" points="207.5742,66.5003 207.7702,66.5399" stroke="red"/>
  <polyline fill="none" points="207.7702,66.5399 208.6478,66.7393 209.5207,66.9584" stroke="red"/>
  <polyline fill="none" points="209.5207,66.9584 212.2377,67.6511" stroke="red"/>
  <polyline fill="none" points="212.2377,67.6511 213.0462,67.8532 213.8598,68.0328" stroke="red"/>
  <polyline fill="none" points="213.8598,68.0328 214.8368,68.1916 215.8221,68.2855 216.8114,68.3143 217.8005,68.2778 218.7851,68.1761 219.7608,68.0098 220.7233,67.7794 221.6686,67.4861 222.5925,67.131 223.491,66.7158 224.3601,66.2423 225.1961,65.7124 225.9954,65.1286 226.7544,64.4934" stroke="red"/>
  <polyline fill="none" points="226.7544,64.4934 227.3624,63.9235 227.9543,63.337" stroke="red"/>
  <polyline fill="none" points="227.9543,63.337 228.4082,62.8831" stroke="red"/>
  <polyline fill="none" points="229.1153,63.5902 226.6717,66.0337" stroke="red"/>
  <polyline fill="none" points="226.6717,66.0337 226.1427,66.5654 225.6221,67.1053 225.1187,67.6611" stroke="red"/>
  <polyline fill="none" points="225.1187,67.6611 224.5079,68.4088 223.9434,69.1919 223.4271,70.0076 222.961,70.853 222.5467,71.7249 222.1857,72.6203 221.8794,73.5357 221.6289,74.468 221.435,75.4137 221.2986,76.3694 221.22,77.3316 221.1995,78.2967 221.2374,79.2614 221.3333,80.222 221.487,81.175" stroke="red"/>
  <polyline fill="none" points="221.487,81.175 221.644,81.9083 221.8238,82.6365 222.015,83.3617" stroke="red"/>
  <polyline fill="none" points="222.015,83.3617 222.1008,83.6837" stroke="red"/>
  <polyline fill="none" points="222.1008,83.6837 222.3292,84.5543 222.538,85.4297" stroke="red"/>
  <polyline fill="none" points="222.538,85.4297 222.5797,85.6253" stroke="red"/>
  <polyline fill="none" points="206.8682,70.0814 207.8205,70.2933 208.7612,70.5515 209.6883,70.8552 210.5995,71.2038 211.4926,71.5964 212.3655,72.032 213.2161,72.5098 214.0424,73.0284 214.8424,73.5867 215.6142,74.1834 216.356,74.8169 217.0661,75.4859 217.7427,76.1888 218.3842,76.9238 218.9891,77.6891 219.5559,78.4831 220.0834,79.3038 220.5702,80.1492 221.0152,81.0174 221.4174,81.9062 221.7757,82.8136 222.0893,83.7374 222.3576,84.6753 222.5797,85.6253" stroke="red"/>
  <polyline fill="none" points="222.5797,85.6253 222.7416,86.4992 222.8645,87.3795 222.9481,88.2644 222.9924,89.1521 222.9972,90.0409 222.9624,90.929 222.8883,91.8147 222.7748,92.6963 222.6224,93.5719" stroke="red"/>
  <polyline fill="none" points="229.1153,63.5902 262.3421,30.3616" stroke="red"/>
  <polyline fill="none" points="262.3421,30.3616 263.0051,29.6988 263.6688,29.0366 264.3338,28.3758 265.0007,27.7169 265.6701,27.0606 266.3428,26.4075 267.0193,25.7585 267.7001,25.114 268.3861,24.475 269.0776,23.8419 269.7752,23.2157 270.4795,22.5969" stroke="red"/>
  <polyline fill="none" points="270.4795,22.5969 271.2354,21.9487 271.9993,21.31 272.7711,20.6808 273.5506,20.0613 274.3378,19.4515 275.1326,18.8515 275.9347,18.2615 276.7441,17.6816 277.5607,17.1117 278.3843,16.5521 279.2148,16.0027 280.0521,15.4637 280.896,14.9352 281.7465,14.4173 282.6033,13.9099 283.4663,13.4133 284.3355,12.9274 285.2107,12.4525 286.0917,11.9884 286.9784,11.5353 287.8707,11.0933 288.7684,10.6625 289.6714,10.2428 290.5796,9.8345 291.4927,9.4374 292.4108,9.0518 293.3336,8.6776 294.2609,8.3149 295.1927,7.9638 296.1288,7.6243 297.0691,7.2965 298.0133,6.9805 298.9615,6.6762 299.9133,6.3837 300.8687,6.1031 301.8275,5.8344 302.7896,5.5777 303.7548,5.333 304.723,5.1003 305.694,4.8796 306.6677,4.6711 307.6439,4.4747 308.6224,4.2905 309.6032,4.1184 310.5861,3.9586 311.5708,3.811 312.5574,3.6757 313.5455,3.5527 314.5351,3.442 315.5259,3.3437 316.518,3.2576 317.511,3.1839 318.5049,3.1226 319.4994,3.0737 320.4945,3.0371 321.49,3.0129 322.4857,3.0012 323.4814,3.0018 324.4771,3.0148 325.4725,3.0402 326.4675,3.078 327.462,3.1282 328.4558,3.1907 329.4488,3.2656 330.4407,3.3529 331.4314,3.4525 332.4209,3.5644 333.4089,3.6886 334.3952,3.8252 335.3798,3.9739 336.3624,4.135 337.343,4.3082 338.3213,4.4937 339.2973,4.6913 340.2707,4.901 341.2414,5.1228 342.2093,5.3567 343.1742,5.6027 344.136,5.8606 345.0945,6.1304 346.0496,6.4122 347.001,6.7059 347.9488,7.0113 348.8926,7.3286 349.8325,7.6575 350.7682,7.9982 351.6995,8.3504 352.6265,8.7142 353.5488,9.0896 354.4663,9.4763 355.379,9.8745 356.2867,10.284 357.1892,10.7048 358.0863,11.1367 358.9781,11.5798 359.8642,12.034 360.7447,12.4991 361.6192,12.9752 362.4878,13.4621 363.3503,13.9598 364.2065,14.4682 365.0563,14.9872 365.8995,15.5168 366.7361,16.0568 367.566,16.6072 368.3889,17.1678 369.2048,17.7387 370.0135,18.3197 370.8149,18.9107 371.6089,19.5116 372.3953,20.1223 373.1741,20.7428 373.9451,21.373 374.7082,22.0127 375.4633,22.6618 376.2102,23.3203 376.9489,23.988 377.6792,24.6649 378.4011,25.3508 379.1143,26.0457 379.8188,26.7494 380.5146,27.4617 381.2014,28.1827 381.8792,28.9122 382.5478,29.6501 383.2072,30.3962 383.8573,31.1505 384.4979,31.9128 385.129,32.683 385.7505,33.461 386.3622,34.2467 386.9641,35.04 387.5561,35.8406 388.1381,36.6486 388.7099,37.4638 389.2716,38.286 389.823,39.1152 390.3641,39.9511 390.8947,40.7937 391.4147,41.6429 391.9242,42.4984 392.4229,43.3603 392.9109,44.2282 393.3881,45.1022 393.8543,45.9821 394.3096,46.8677 394.7538,47.7589 395.1869,48.6555 395.6087,49.5575 396.0194,50.4646 396.4187,51.3768 396.8066,52.2939 397.183,53.2158 397.548,54.1422 397.9014,55.0732 398.2432,56.0084 398.5733,56.9479 398.8917,57.8913 399.1983,58.8387 399.4932,59.7898 399.7761,60.7445 400.0472,61.7027 400.3063,62.6641 400.5534,63.6287 400.7885,64.5963 401.0115,65.5668 401.2225,66.5399 401.4213,67.5156 401.6079,68.4938 401.7824,69.4741 401.9446,70.4566 402.0946,71.4409 402.2324,72.4271 402.3578,73.4149 402.471,74.4043 402.5718,75.3949 402.6603,76.3867 402.7364,77.3795" stroke="red"/>
  <polyline fill="none" points="402.7364,77.3795 402.797,78.3151 402.8474,79.2512 402.8888,80.1878 402.9219,81.1247 402.9477,82.0619 402.967,82.9992 402.9809,83.9366 402.9902,84.874 402.9959,85.8115 402.9988,86.749 402.9998,87.6865 403.0,88.624" stroke="red"/>
</svg>
