<?xml version="1.0" encoding="utf-8" ?>
<svg xmlns="http://www.w3.org/2000/svg" xmlns:ev="http://www.w3.org/2001/xml-events" xmlns:xlink="http://www.w3.org/1999/xlink" baseProfile="tiny" height="334.66" version="1.2" width="400.441">
  <defs/>
  <polyline fill="none" points="3.0299,321.65 3.0,243.9969" stroke="red"/>
  <polyline fill="none" points="3.0,243.9969 3.0001,243.5431" stroke="red"/>
  <polyline fill="none" points="3.0001,243.5431 3.0399,167.185" stroke="red"/>
  <polyline fill="none" points="3.0399,167.185 3.0799,90.7632" stroke="red"/>
  <polyline fill="none" points="3.0799,90.7632 3.0799,90.4368" stroke="red"/>
  <polyline fill="none" points="3.0799,90.4368 3.0699,14.01" stroke="red"/>
  <polyline fill="none" points="397.41,13.07 397.3799,90.2856" stroke="red"/>
  <polyline fill="none" points="397.3799,90.2856 397.3799,90.3744" stroke="red"/>
  <polyline fill="none" points="397.3799,90.3744 397.3636,167.4675" stroke="red"/>
  <polyline fill="none" points="397.3636,167.4675 397.3474,244.2522" stroke="red"/>
  <polyline fill="none" points="397.3474,244.2522 397.3478,244.9577" stroke="red"/>
  <polyline fill="none" points="397.3478,244.9577 397.44,321.76" stroke="red"/>
  <polyline fill="none" points="93.4616,123.2847 93.4782,14.3073" stroke="red"/>
  <polyline fill="none" points="148.0158,331.6555 106.2481,331.66" stroke="red"/>
  <polyline fill="none" points="106.2481,331.66 106.0318,331.66" stroke="red"/>
  <polyline fill="none" points="106.0318,331.66 105.7558,331.6599" stroke="red"/>
  <polyline fill="none" points="13.0699,3.07 12.4185,3.0704" stroke="red"/>
  <polyline fill="none" points="12.4185,3.0704 11.4567,3.1242 10.5067,3.284 9.5801,3.5479 8.6884,3.9125 7.8425,4.3735 7.0527,4.9251 6.3287,5.5607 5.6794,6.2724" stroke="red"/>
  <polyline fill="none" points="5.6793,6.2725 5.0861,7.0669 4.5629,7.9091 4.1136,8.7928 3.7415,9.7117 3.4492,10.6591 3.2389,11.6279 3.1122,12.6112 3.0699,13.6017" stroke="red"/>
  <polyline fill="none" points="3.0699,13.6019 3.0699,14.0096" stroke="red"/>
  <polyline fill="none" points="397.41,13.07 397.4104,11.9021" stroke="red"/>
  <polyline fill="none" points="397.4104,11.9021 397.3629,11.003 397.2203,10.1139 396.9841,9.2451 396.6571,8.4062 396.2429,7.6067 395.7462,6.8558 395.1727,6.1617 394.5287,5.5324" stroke="red"/>
  <polyline fill="none" points="394.5285,5.5323 393.8129,4.9587 393.0485,4.4519 392.2416,4.0158 391.3988,3.6541 390.5269,3.3697 389.6329,3.1649 388.7241,3.0413 387.8079,3.0" stroke="red"/>
  <polyline fill="none" points="387.8077,3.0 387.1399,3.0" stroke="red"/>
  <polyline fill="none" points="93.4316,320.943 93.437,285.4563" stroke="red"/>
  <polyline fill="none" points="93.4403,263.4563 93.4482,211.7763" stroke="red"/>
  <polyline fill="none" points="339.8731,187.9438 339.8477,145.9576" stroke="red"/>
  <polyline fill="none" points="104.4503,274.1113 148.048,274.1166" stroke="red"/>
  <polyline fill="none" points="328.6876,331.6213 293.6361,331.6399" stroke="red"/>
  <polyline fill="none" points="293.6361,331.6399 293.4238,331.64" stroke="red"/>
  <polyline fill="none" points="293.4238,331.64 171.1476,331.653" stroke="red"/>
  <polyline fill="none" points="13.0699,3.07 82.4699,3.0328" stroke="red"/>
  <polyline fill="none" points="387.6499,331.59 351.2899,331.6093" stroke="red"/>
  <polyline fill="none" points="104.4797,200.1951 328.6956,200.0949" stroke="red"/>
  <polyline fill="none" points="339.9534,320.8162 339.9318,285.1962" stroke="red"/>
  <polyline fill="none" points="82.4362,331.6523 14.0899,331.63" stroke="red"/>
  <polyline fill="none" points="339.9182,262.578 339.887,211.033" stroke="red"/>
  <polyline fill="none" points="350.791,3.0 387.1399,3.0" stroke="red"/>
  <polyline fill="none" points="387.6499,331.59 388.6824,331.5894" stroke="red"/>
  <polyline fill="none" points="388.6824,331.5894 389.6713,331.5322 390.6471,331.3622 391.5971,331.0817 392.5088,330.6944 393.3702,330.2053 394.17,329.6209 394.8977,328.9489" stroke="red"/>
  <polyline fill="none" points="394.8978,328.9488 395.5487,328.1959 396.1132,327.3762 396.5844,326.4996 396.9566,325.5765 397.2254,324.6182 397.3875,323.6363 397.441,322.6425" stroke="red"/>
  <polyline fill="none" points="397.441,322.6423 397.44,321.76" stroke="red"/>
  <polyline fill="none" points="159.1269,320.9003 159.0838,285.4128" stroke="red"/>
  <polyline fill="none" points="170.2325,274.1193 328.6825,274.1386" stroke="red"/>
  <polyline fill="none" points="104.4849,134.4691 328.7249,134.4509" stroke="red"/>
  <polyline fill="none" points="3.0299,321.65 3.0305,323.0326" stroke="red"/>
  <polyline fill="none" points="3.0305,323.0326 3.091,324.0235 3.2707,324.9998 3.5672,325.9472 3.9759,326.8518 4.491,327.7005 5.1049,328.4806 5.8086,329.1809" stroke="red"/>
  <polyline fill="none" points="5.8087,329.181 6.498,329.7353 7.2344,330.2251 8.0119,330.6466 8.8243,330.9963 9.6649,331.2714 10.5268,331.4695 11.4031,331.5892 12.2866,331.6294" stroke="red"/>
  <polyline fill="none" points="12.2868,331.6294 14.0899,331.63" stroke="red"/>
  <polyline fill="none" points="93.4515,189.7745 93.4583,145.2848" stroke="red"/>
  <polyline fill="none" points="339.8335,122.453 339.7681,14.163" stroke="red"/>
  <polyline fill="none" points="104.6791,3.0209 106.3327,3.02" stroke="red"/>
  <polyline fill="none" points="106.3327,3.02 106.5472,3.02" stroke="red"/>
  <polyline fill="none" points="106.5472,3.02 200.03,3.01" stroke="red"/>
  <polyline fill="none" points="200.0299,3.01 293.5932,3.0" stroke="red"/>
  <polyline fill="none" points="293.5932,3.0 293.6466,3.0" stroke="red"/>
  <polyline fill="none" points="293.6466,3.0 328.7791,3.0" stroke="red"/>
  <polyline fill="none" points="328.7791,3.0 350.791,3.0" stroke="red"/>
  <polyline fill="none" points="328.7791,3.0 350.791,3.0" stroke="red"/>
  <polyline fill="none" points="339.7681,14.163 339.767,12.3305" stroke="red"/>
  <polyline fill="none" points="339.767,12.3304 339.8089,11.4291 339.9351,10.5358 340.1447,9.6583 340.4357,8.8043 340.8055,7.9813 341.251,7.1968 341.7681,6.4575 342.3524,5.77" stroke="red"/>
  <polyline fill="none" points="342.3525,5.7698 342.9951,5.1489 343.6979,4.597 344.4534,4.1198 345.2538,3.7223 346.0906,3.4088 346.955,3.1825 347.8381,3.0457 348.7306,3.0" stroke="red"/>
  <polyline fill="none" points="348.7306,3.0 350.791,3.0" stroke="red"/>
  <polyline fill="none" points="339.7681,14.163 339.7669,12.1326" stroke="red"/>
  <polyline fill="none" points="339.7669,12.1326 339.8072,11.2536 339.929,10.3822 340.131,9.5257 340.4117,8.6918 340.7686,7.8874 341.1985,7.1197 341.6978,6.3951 342.2622,5.7201" stroke="red"/>
  <polyline fill="none" points="342.2623,5.7199 342.9764,5.0292 343.7669,4.4275 344.623,3.9233 345.5325,3.5236 346.4829,3.2341 347.4608,3.0587 348.4526,3.0" stroke="red"/>
  <polyline fill="none" points="348.4527,3.0 350.791,3.0" stroke="red"/>
  <polyline fill="none" points="328.7791,3.0 331.7468,3.0" stroke="red"/>
  <polyline fill="none" points="331.747,3.0 332.6572,3.0532 333.5551,3.2118 334.4284,3.4739 335.2653,3.8358 336.0544,4.2926 336.785,4.8381 337.4471,5.4649" stroke="red"/>
  <polyline fill="none" points="337.4472,5.465 338.0403,6.1682 338.5544,6.9311 338.9835,7.7448 339.3226,8.5999 339.5678,9.4866 339.7163,10.3944 339.7664,11.313" stroke="red"/>
  <polyline fill="none" points="339.7664,11.313 339.7681,14.163" stroke="red"/>
  <polyline fill="none" points="339.7681,14.163 339.7667,11.8081" stroke="red"/>
  <polyline fill="none" points="339.7667,11.8081 339.7135,10.8341 339.5556,9.8715 339.295,8.9316 338.9346,8.0252 338.4786,7.1628 337.9324,6.3547 337.3023,5.6101" stroke="red"/>
  <polyline fill="none" points="337.3022,5.61 336.5986,4.9461 335.8227,4.3685 334.985,3.8848 334.0968,3.5017 333.1701,3.2243 332.2175,3.0563 331.2518,3.0" stroke="red"/>
  <polyline fill="none" points="331.2516,3.0 328.7791,3.0" stroke="red"/>
  <polyline fill="none" points="339.887,211.033 339.8731,187.9438" stroke="red"/>
  <polyline fill="none" points="339.887,211.033 339.8731,187.9438" stroke="red"/>
  <polyline fill="none" points="328.6956,200.0949 331.4182,200.0937" stroke="red"/>
  <polyline fill="none" points="331.4182,200.0937 332.3772,200.1489 333.3233,200.3148 334.2439,200.5891 335.1266,200.9681 335.9594,201.4468 336.7312,202.0186 337.4317,202.6759" stroke="red"/>
  <polyline fill="none" points="337.4318,202.676 338.0591,203.4133 338.6029,204.214 339.0569,205.0688 339.4159,205.9678 339.6755,206.9002 339.8327,207.8553 339.8857,208.8218" stroke="red"/>
  <polyline fill="none" points="339.8857,208.822 339.887,211.033" stroke="red"/>
  <polyline fill="none" points="339.887,211.033 339.8855,208.5156" stroke="red"/>
  <polyline fill="none" points="339.8855,208.5156 339.8249,207.5388 339.645,206.5768 339.3486,205.6441 338.9402,204.7548 338.4258,203.9222 337.8134,203.1588 337.112,202.4763" stroke="red"/>
  <polyline fill="none" points="337.1118,202.4762 336.4239,201.9357 335.6908,201.4585 334.9182,201.0482 334.1123,200.708 333.2793,200.4407 332.4259,200.2483 331.5588,200.1325 330.6849,200.094" stroke="red"/>
  <polyline fill="none" points="330.6847,200.094 328.6956,200.0949" stroke="red"/>
  <polyline fill="none" points="328.6956,200.0949 331.0543,200.0938" stroke="red"/>
  <polyline fill="none" points="331.0543,200.0938 331.9283,200.0493 332.7932,199.9168 333.6405,199.6977 334.4613,199.3942 335.2473,199.0096 335.9905,198.5476 336.6833,198.013 337.3186,197.4112" stroke="red"/>
  <polyline fill="none" points="337.3187,197.4111 337.8957,196.7456 338.4068,196.0282 338.8473,195.2655 339.2131,194.4643 339.5011,193.6319 339.7085,192.7758 339.8335,191.9039 339.875,191.0241" stroke="red"/>
  <polyline fill="none" points="339.875,191.024 339.8731,187.9438" stroke="red"/>
  <polyline fill="none" points="328.6956,200.0949 331.3131,200.0937" stroke="red"/>
  <polyline fill="none" points="331.3131,200.0937 332.2819,200.0373 333.2378,199.8697 334.1681,199.5931 335.0603,199.2112 335.9026,198.7291 336.6837,198.1532 337.3933,197.4911" stroke="red"/>
  <polyline fill="none" points="337.3935,197.491 338.0285,196.7489 338.5791,195.9421 339.0387,195.0802 339.4018,194.1735 339.6641,193.2326 339.8225,192.2688 339.8751,191.2935" stroke="red"/>
  <polyline fill="none" points="339.8751,191.2933 339.8731,187.9438" stroke="red"/>
  <polyline fill="none" points="328.6825,274.1386 331.3748,274.139" stroke="red"/>
  <polyline fill="none" points="331.3749,274.139 332.3105,274.0901 333.2359,273.9439 334.141,273.702 335.0158,273.367 335.851,272.9425 336.6373,272.4331 337.3662,271.8446" stroke="red"/>
  <polyline fill="none" points="337.3663,271.8444 338.0146,271.1881 338.5797,270.4589 339.0534,269.6673 339.429,268.8247 339.701,267.9432 339.8656,267.0354 339.9203,266.1145" stroke="red"/>
  <polyline fill="none" points="339.9203,266.1145 339.9185,263.1942" stroke="red"/>
  <polyline fill="none" points="339.9185,263.1942 339.9182,262.578" stroke="red"/>
  <polyline fill="none" points="328.6825,274.1386 330.8383,274.1389" stroke="red"/>
  <polyline fill="none" points="330.8385,274.1389 331.8308,274.0874 332.8126,273.9334 333.773,273.6784 334.7019,273.3252 335.5891,272.8776 336.4251,272.3405 337.201,271.7196" stroke="red"/>
  <polyline fill="none" points="337.2012,271.7195 337.8909,271.0272 338.4923,270.257 338.9967,269.42 339.3967,268.5284 339.6864,267.5952 339.8617,266.6338 339.92,265.6583" stroke="red"/>
  <polyline fill="none" points="339.92,265.6583 339.9185,263.1939" stroke="red"/>
  <polyline fill="none" points="339.9185,263.1939 339.9182,262.578" stroke="red"/>
  <polyline fill="none" points="339.9318,285.1962 339.9315,284.693" stroke="red"/>
  <polyline fill="none" points="339.9315,284.693 339.9249,273.6355" stroke="red"/>
  <polyline fill="none" points="339.9249,273.6355 339.9185,263.1939" stroke="red"/>
  <polyline fill="none" points="339.9185,263.1939 339.9182,262.578" stroke="red"/>
  <polyline fill="none" points="339.9318,285.1962 339.9315,284.693" stroke="red"/>
  <polyline fill="none" points="339.9315,284.693 339.9249,273.6355" stroke="red"/>
  <polyline fill="none" points="339.9249,273.6355 339.9185,263.1939" stroke="red"/>
  <polyline fill="none" points="339.9185,263.1939 339.9182,262.578" stroke="red"/>
  <polyline fill="none" points="328.6825,274.1386 330.614,274.1389" stroke="red"/>
  <polyline fill="none" points="330.614,274.1389 331.5319,274.1848 332.4406,274.3217 333.3312,274.5484 334.1948,274.8626 335.0229,275.2612 335.8072,275.7401 336.54,276.2947 337.214,276.9195" stroke="red"/>
  <polyline fill="none" points="337.2141,276.9196 337.8257,277.6098 338.3679,278.3558 338.8356,279.1506 339.2245,279.9868 339.5309,280.8566 339.752,281.7519 339.8858,282.6643 339.9309,283.5854" stroke="red"/>
  <polyline fill="none" points="339.9309,283.5856 339.9318,285.1962" stroke="red"/>
  <polyline fill="none" points="339.9318,285.1962 339.9306,283.1024" stroke="red"/>
  <polyline fill="none" points="339.9306,283.1024 339.8866,282.2221 339.7561,281.3504 339.5404,280.4958 339.2415,279.6666 338.8624,278.8709 338.4068,278.1163 337.8791,277.4104 337.2844,276.7598" stroke="red"/>
  <polyline fill="none" points="337.2843,276.7597 336.6279,276.1698 335.9172,275.6467 335.1589,275.1953 334.3602,274.82 333.5288,274.5242 332.6724,274.3109 331.7994,274.1821 330.918,274.1389" stroke="red"/>
  <polyline fill="none" points="330.9178,274.1389 328.6825,274.1386" stroke="red"/>
  <polyline fill="none" points="339.9534,320.8162 339.9551,323.7639" stroke="red"/>
  <polyline fill="none" points="339.9551,323.7641 339.9052,324.648 339.7551,325.5205 339.5068,326.3703 339.1634,327.1863 338.7294,327.9579 338.2105,328.6752 337.6134,329.3289" stroke="red"/>
  <polyline fill="none" points="337.6133,329.329 336.9444,329.9137 336.2151,330.4211 335.4343,330.8451 334.6116,331.1805 333.7569,331.4231 332.8807,331.57 331.9937,331.6196" stroke="red"/>
  <polyline fill="none" points="331.9937,331.6196 328.6876,331.6213" stroke="red"/>
  <polyline fill="none" points="328.6876,331.6213 331.0807,331.62" stroke="red"/>
  <polyline fill="none" points="331.0808,331.62 332.0385,331.572 332.9867,331.4295 333.9161,331.1938 334.8177,330.8672 335.6825,330.4531 336.5021,329.9554 337.2684,329.3791" stroke="red"/>
  <polyline fill="none" points="337.2686,329.379 337.9476,328.7374 338.5411,328.016 339.0398,327.2261 339.4359,326.3801 339.7232,325.4912 339.8971,324.5734 339.9551,323.641" stroke="red"/>
  <polyline fill="none" points="339.9551,323.641 339.9534,320.8162" stroke="red"/>
  <polyline fill="none" points="351.2899,331.6093 328.6876,331.6213" stroke="red"/>
  <polyline fill="none" points="351.2899,331.6093 328.6876,331.6213" stroke="red"/>
  <polyline fill="none" points="351.29,331.6093 348.1181,331.611" stroke="red"/>
  <polyline fill="none" points="348.1179,331.611 347.2434,331.5691 346.377,331.443 345.5268,331.2338 344.7008,330.9434 343.9067,330.5747 343.152,330.1309 342.4436,329.6164" stroke="red"/>
  <polyline fill="none" points="342.4434,329.6163 341.7196,328.9406 341.1041,328.165 340.6105,327.3066 340.2497,326.3845 340.0298,325.4191 339.9555,324.4317" stroke="red"/>
  <polyline fill="none" points="339.9555,324.4317 339.9534,320.8162" stroke="red"/>
  <polyline fill="none" points="351.29,331.6093 348.0511,331.611" stroke="red"/>
  <polyline fill="none" points="348.051,331.611 347.1572,331.5633 346.2737,331.4198 345.4108,331.1822 344.5784,330.8533 343.7861,330.4368 343.0432,329.9375 342.3583,329.3613" stroke="red"/>
  <polyline fill="none" points="342.3582,329.3612 341.7476,328.7178 341.2161,328.0076 340.7709,327.2404 340.4181,326.4265 340.1624,325.5771 340.0074,324.7038 339.9552,323.8183" stroke="red"/>
  <polyline fill="none" points="339.9552,323.8183 339.9534,320.8162" stroke="red"/>
  <polyline fill="none" points="93.4482,211.7763 93.4486,209.1029" stroke="red"/>
  <polyline fill="none" points="93.4486,209.1027 93.4975,208.1374 93.6435,207.1819 93.8851,206.246 94.2198,205.3392 94.6442,204.4708 95.154,203.6496 95.744,202.884" stroke="red"/>
  <polyline fill="none" points="95.7441,202.8838 96.4013,202.2044 97.1371,201.6109 97.9403,201.1124 98.7987,200.7166 99.6993,200.4293 100.6283,200.2551 101.5718,200.1964" stroke="red"/>
  <polyline fill="none" points="101.5718,200.1964 104.4797,200.1951" stroke="red"/>
  <polyline fill="none" points="93.4482,211.7763 93.4485,209.5132" stroke="red"/>
  <polyline fill="none" points="93.4485,209.5132 93.4895,208.6207 93.6117,207.7357 93.8142,206.8655 94.0952,206.0175 94.4525,205.1986 94.883,204.4158 95.3832,203.6755 95.9488,202.984" stroke="red"/>
  <polyline fill="none" points="95.9489,202.9839 96.57,202.3607 97.2529,201.806 97.9902,201.3258 98.7736,200.9255 99.5947,200.6093 100.4443,200.3809 101.3132,200.2426 102.1918,200.1961" stroke="red"/>
  <polyline fill="none" points="102.192,200.1961 104.4797,200.1951" stroke="red"/>
  <polyline fill="none" points="93.4515,189.7745 93.451,192.842" stroke="red"/>
  <polyline fill="none" points="93.451,192.8422 93.5175,193.8167 93.7158,194.773 94.0424,195.6935 94.4911,196.561 95.0537,197.3595 95.7196,198.074" stroke="red"/>
  <polyline fill="none" points="95.7197,198.0741 96.4803,198.7014 97.3135,199.2286 98.206,199.6474 99.144,199.9512 100.1126,200.1352 101.0966,200.1966" stroke="red"/>
  <polyline fill="none" points="101.0966,200.1966 104.4797,200.1951" stroke="red"/>
  <polyline fill="none" points="104.4797,200.1951 101.4032,200.1965" stroke="red"/>
  <polyline fill="none" points="101.4031,200.1965 100.5288,200.1504 99.6643,200.012 98.8193,199.7827 98.0033,199.4653 97.2256,199.0631 96.4949,198.5809 95.8193,198.0239" stroke="red"/>
  <polyline fill="none" points="95.8192,198.0238 95.2177,197.4023 94.6937,196.7141 94.2547,195.9689 93.9067,195.1771 93.6547,194.3497 93.5021,193.4983 93.4511,192.6349" stroke="red"/>
  <polyline fill="none" points="93.4511,192.6349 93.4515,189.7745" stroke="red"/>
  <polyline fill="none" points="93.4482,211.7763 93.4515,189.7745" stroke="red"/>
  <polyline fill="none" points="93.4482,211.7763 93.4515,189.7745" stroke="red"/>
  <polyline fill="none" points="93.437,285.4563 93.4374,282.6168" stroke="red"/>
  <polyline fill="none" points="93.4374,282.6168 93.4866,281.684 93.6334,280.7616 93.8763,279.8596 94.2124,278.9881 94.6381,278.1567 95.1487,277.3746 95.7386,276.6503" stroke="red"/>
  <polyline fill="none" points="95.7387,276.6502 96.3966,276.0057 97.1265,275.4441 97.9181,274.9733 98.7601,274.6 99.6405,274.3295 100.5468,274.1658 101.4661,274.111" stroke="red"/>
  <polyline fill="none" points="101.4663,274.111 104.4503,274.1113" stroke="red"/>
  <polyline fill="none" points="93.437,285.4563 93.4374,282.3599" stroke="red"/>
  <polyline fill="none" points="93.4374,282.3597 93.4977,281.3971 93.6772,280.4495 93.9731,279.5316 94.3809,278.6577 94.8942,277.8412 95.5051,277.0949 96.204,276.4303" stroke="red"/>
  <polyline fill="none" points="96.2041,276.4302 96.9924,275.8334 97.8363,275.3181 98.7272,274.8893 99.6564,274.5513 100.6146,274.3075 101.5924,274.1602 102.5799,274.1111" stroke="red"/>
  <polyline fill="none" points="102.5799,274.1111 104.4503,274.1113" stroke="red"/>
  <polyline fill="none" points="93.437,285.4563 93.4386,274.4563" stroke="red"/>
  <polyline fill="none" points="93.4386,274.4563 93.4403,263.4563" stroke="red"/>
  <polyline fill="none" points="93.437,285.4563 93.4386,274.4563" stroke="red"/>
  <polyline fill="none" points="93.4386,274.4563 93.4403,263.4563" stroke="red"/>
  <polyline fill="none" points="104.4503,274.1113 100.9966,274.1109" stroke="red"/>
  <polyline fill="none" points="100.9965,274.1109 100.0415,274.0545 99.0998,273.8864 98.1844,273.6088 97.3078,273.2257 96.4824,272.7423 95.7194,272.1653" stroke="red"/>
  <polyline fill="none" points="95.7192,272.1652 95.0533,271.5085 94.4887,270.7631 94.0369,269.9443 93.7073,269.0691 93.5069,268.1556 93.4397,267.2229" stroke="red"/>
  <polyline fill="none" points="93.4397,267.2229 93.4403,263.4563" stroke="red"/>
  <polyline fill="none" points="93.4403,263.4563 93.4399,265.9872" stroke="red"/>
  <polyline fill="none" points="93.4399,265.9874 93.4943,266.9126 93.6569,267.8251 93.9254,268.7122 94.2963,269.5617 94.7642,270.3617 95.3228,271.1013 95.9644,271.7703" stroke="red"/>
  <polyline fill="none" points="95.9645,271.7704 96.6847,272.3697 97.4647,272.8889 98.2955,273.322 99.1678,273.6642 100.0715,273.9114 100.9965,274.0609 101.9321,274.111" stroke="red"/>
  <polyline fill="none" points="101.9321,274.111 104.4503,274.1113" stroke="red"/>
  <polyline fill="none" points="171.1476,331.653 148.0158,331.6555" stroke="red"/>
  <polyline fill="none" points="171.1476,331.653 148.0158,331.6555" stroke="red"/>
  <polyline fill="none" points="171.1476,331.653 166.0666,331.6536" stroke="red"/>
  <polyline fill="none" points="166.0665,331.6536 165.1534,331.5922 164.2568,331.4092 163.3928,331.1077 162.577,330.6931 161.824,330.1731 161.1475,329.5569" stroke="red"/>
  <polyline fill="none" points="161.1474,329.5568 160.5534,328.8533 160.0535,328.0802 159.6558,327.2498 159.3668,326.3757 159.191,325.472 159.1313,324.5533" stroke="red"/>
  <polyline fill="none" points="159.1313,324.5533 159.1269,320.9003" stroke="red"/>
  <polyline fill="none" points="171.1476,331.653 166.2726,331.6536" stroke="red"/>
  <polyline fill="none" points="166.2724,331.6536 165.3229,331.5881 164.3914,331.3927 163.4957,331.0711 162.6526,330.6295 161.8782,330.0762 161.1872,329.4217" stroke="red"/>
  <polyline fill="none" points="161.1872,329.4216 160.5802,328.6735 160.0701,327.8562 159.6648,326.9823 159.3705,326.065 159.1915,325.1183 159.1308,324.1569" stroke="red"/>
  <polyline fill="none" points="159.1308,324.1569 159.1269,320.9003" stroke="red"/>
  <polyline fill="none" points="159.1269,320.9003 159.1315,324.6985" stroke="red"/>
  <polyline fill="none" points="159.1315,324.6986 159.0689,325.6228 158.88,326.5297 158.5685,327.402 158.1401,328.2234 157.6031,328.9782 156.9676,329.6521" stroke="red"/>
  <polyline fill="none" points="156.9675,329.6522 156.2411,330.2441 155.447,330.7414 154.5973,331.1364 153.7051,331.423 152.7844,331.5968 151.8492,331.6551" stroke="red"/>
  <polyline fill="none" points="151.8492,331.6551 148.0158,331.6555" stroke="red"/>
  <polyline fill="none" points="148.0158,331.6555 151.1145,331.6552" stroke="red"/>
  <polyline fill="none" points="151.1147,331.6552 151.991,331.6095 152.8578,331.4733 153.7059,331.2479 154.526,330.9358 155.3094,330.5403 156.0475,330.0658 156.7324,329.5173" stroke="red"/>
  <polyline fill="none" points="156.7326,329.5171 157.3414,328.9057 157.8722,328.2254 158.3173,327.4861 158.6701,326.6986 158.9255,325.8744 159.0798,325.0255 159.1308,324.1641" stroke="red"/>
  <polyline fill="none" points="159.1308,324.1641 159.1269,320.9003" stroke="red"/>
  <polyline fill="none" points="148.048,274.1166 170.2325,274.1193" stroke="red"/>
  <polyline fill="none" points="148.048,274.1166 170.2325,274.1193" stroke="red"/>
  <polyline fill="none" points="159.0838,285.4128 159.08,282.3337" stroke="red"/>
  <polyline fill="none" points="159.08,282.3337 159.0273,281.4135 158.8719,280.505 158.616,279.6196 158.2626,278.7684 157.8162,277.962 157.2824,277.2106 156.668,276.5236" stroke="red"/>
  <polyline fill="none" points="156.6679,276.5235 155.9804,275.9096 155.2286,275.3765 154.4219,274.9308 153.5703,274.5783 152.6847,274.3232 151.7761,274.1687 150.8559,274.117" stroke="red"/>
  <polyline fill="none" points="150.8557,274.117 148.048,274.1166" stroke="red"/>
  <polyline fill="none" points="148.048,274.1166 150.7313,274.117" stroke="red"/>
  <polyline fill="none" points="150.7313,274.117 151.6497,274.166 152.5578,274.3123 153.4451,274.5543 154.3017,274.8892 155.1179,275.3132 155.8844,275.8215 156.5926,276.4083" stroke="red"/>
  <polyline fill="none" points="156.5927,276.4084 157.2236,277.0634 157.7732,277.7879 158.2338,278.572 158.5992,279.4049 158.8641,280.2748 159.0251,281.1699 159.0797,282.0777" stroke="red"/>
  <polyline fill="none" points="159.0797,282.0778 159.0838,285.4128" stroke="red"/>
  <polyline fill="none" points="159.0838,285.4128 159.0801,282.4413" stroke="red"/>
  <polyline fill="none" points="159.0801,282.4413 159.1359,281.4885 159.3048,280.549 159.5844,279.6364 159.9707,278.7635 160.4582,277.9429 161.0399,277.1861 161.7077,276.5041" stroke="red"/>
  <polyline fill="none" points="161.7078,276.504 162.4584,275.8924 163.269,275.3631 164.1307,274.9218 165.0339,274.5735 165.9688,274.3219 166.9249,274.1699 167.8917,274.1191" stroke="red"/>
  <polyline fill="none" points="167.8919,274.1191 170.2325,274.1193" stroke="red"/>
  <polyline fill="none" points="159.0838,285.4128 159.0804,282.6716" stroke="red"/>
  <polyline fill="none" points="159.0804,282.6716 159.137,281.6961 159.3082,280.734 159.5918,279.7988 159.9837,278.9036 160.4785,278.0609 161.0692,277.2825 161.7477,276.5792" stroke="red"/>
  <polyline fill="none" points="161.7478,276.5791 162.5098,275.9488 163.3344,275.4029 164.2123,274.9477 165.1335,274.5882 166.0877,274.3285 167.0641,274.1715 168.0516,274.1191" stroke="red"/>
  <polyline fill="none" points="168.0518,274.1191 170.2325,274.1193" stroke="red"/>
  <polyline fill="none" points="93.4316,320.943 93.431,324.4849" stroke="red"/>
  <polyline fill="none" points="93.431,324.485 93.3611,325.4549 93.153,326.4047 92.811,327.315 92.3422,328.1669 91.7563,328.943 91.0654,329.6271" stroke="red"/>
  <polyline fill="none" points="91.0653,329.6272 90.2737,330.2283 89.4169,330.7319 88.5066,331.131 87.5557,331.42 86.5773,331.5949 85.5851,331.6533" stroke="red"/>
  <polyline fill="none" points="85.5851,331.6533 82.4362,331.6523" stroke="red"/>
  <polyline fill="none" points="82.4362,331.6523 85.9242,331.6534" stroke="red"/>
  <polyline fill="none" points="85.9244,331.6534 86.9033,331.5897 87.8656,331.3989 88.7949,331.0845 89.6753,330.6516 90.4917,330.1078 91.2304,329.4622" stroke="red"/>
  <polyline fill="none" points="91.2305,329.4621 91.8783,328.7259 92.4242,327.9113 92.8588,327.0324 93.1748,326.1041 93.3667,325.1425 93.4311,324.164" stroke="red"/>
  <polyline fill="none" points="93.4311,324.164 93.4316,320.943" stroke="red"/>
  <polyline fill="none" points="105.7558,331.6599 82.4362,331.6523" stroke="red"/>
  <polyline fill="none" points="105.7558,331.6599 82.4362,331.6523" stroke="red"/>
  <polyline fill="none" points="105.7558,331.6599 100.313,331.6581" stroke="red"/>
  <polyline fill="none" points="100.313,331.6581 99.4118,331.5982 98.5264,331.4202 97.6721,331.1273 96.8638,330.7244 96.1156,330.2186 95.4405,329.6187" stroke="red"/>
  <polyline fill="none" points="95.4404,329.6186 94.8482,328.9344 94.3495,328.1793 93.9527,327.3661 93.6644,326.5083 93.4895,325.6205 93.431,324.7175" stroke="red"/>
  <polyline fill="none" points="93.431,324.7174 93.4316,320.943" stroke="red"/>
  <polyline fill="none" points="105.7558,331.6599 101.4989,331.6585" stroke="red"/>
  <polyline fill="none" points="101.4989,331.6585 100.6145,331.6117 99.7398,331.4726 98.8846,331.2426 98.0582,330.9242 97.2696,330.521 96.5277,330.0374 95.8405,329.4788" stroke="red"/>
  <polyline fill="none" points="95.8404,329.4787 95.2289,328.8556 94.696,328.1641 94.2493,327.4141 93.8951,326.6162 93.6385,325.7819 93.4831,324.9228 93.4311,324.0514" stroke="red"/>
  <polyline fill="none" points="93.4311,324.0512 93.4316,320.943" stroke="red"/>
  <polyline fill="none" points="82.4699,3.0328 104.6791,3.0209" stroke="red"/>
  <polyline fill="none" points="82.4699,3.0328 104.6791,3.0209" stroke="red"/>
  <polyline fill="none" points="82.4699,3.0328 84.9564,3.0315" stroke="red"/>
  <polyline fill="none" points="84.9564,3.0315 85.9295,3.0887 86.889,3.2604 87.8214,3.5443 88.7138,3.9363 89.5537,4.4311 90.3291,5.0216 91.0294,5.6996" stroke="red"/>
  <polyline fill="none" points="91.0296,5.6998 91.6572,6.4613 92.2006,7.285 92.6538,8.1616 93.0117,9.0812 93.2702,10.0336 93.4264,11.008 93.4785,11.9934" stroke="red"/>
  <polyline fill="none" points="93.4785,11.9936 93.4782,14.3073" stroke="red"/>
  <polyline fill="none" points="93.4782,14.3073 93.4785,12.1299" stroke="red"/>
  <polyline fill="none" points="93.4785,12.1299 93.4369,11.2485 93.3121,10.3751 93.1052,9.5174 92.8182,8.683 92.4535,7.8796 92.0145,7.1143 91.505,6.3939 90.9297,5.7249" stroke="red"/>
  <polyline fill="none" points="90.9296,5.7248 90.2965,5.1203 89.6054,4.5832 88.8632,4.1191 88.0778,3.7327 87.2572,3.428 86.4099,3.2083 85.5446,3.0757 84.6704,3.0317" stroke="red"/>
  <polyline fill="none" points="84.6702,3.0317 82.4699,3.0328" stroke="red"/>
  <polyline fill="none" points="93.4782,14.3073 93.4785,12.3239" stroke="red"/>
  <polyline fill="none" points="93.4785,12.3239 93.5214,11.4227 93.6494,10.5297 93.8615,9.6528 94.1556,8.7999 94.5291,7.9787 94.9788,7.1965 95.5005,6.4605 96.0895,5.7772" stroke="red"/>
  <polyline fill="none" points="96.0896,5.7771 96.7379,5.1594 97.4454,4.6105 98.2049,4.1361 99.0084,3.741 99.8479,3.4293 100.7146,3.2042 101.5996,3.068 102.4939,3.0221" stroke="red"/>
  <polyline fill="none" points="102.4941,3.0221 104.6791,3.0209" stroke="red"/>
  <polyline fill="none" points="93.4782,14.3073 93.4785,12.0624" stroke="red"/>
  <polyline fill="none" points="93.4785,12.0624 93.5295,11.0772 93.6815,10.1024 93.9329,9.1484 94.2811,8.2254 94.7224,7.343 95.252,6.5107 95.8645,5.7373" stroke="red"/>
  <polyline fill="none" points="95.8646,5.7372 96.5472,5.0498 97.308,4.45 98.1358,3.9467 99.0183,3.5473 99.9427,3.2575 100.8954,3.0817 101.8624,3.0224" stroke="red"/>
  <polyline fill="none" points="101.8626,3.0224 104.6791,3.0209" stroke="red"/>
  <polyline fill="none" points="328.7249,134.4509 331.1454,134.4507" stroke="red"/>
  <polyline fill="none" points="331.1454,134.4507 332.0233,134.4972 332.8913,134.6364 333.7396,134.8666 334.5589,135.1854 335.3398,135.5891 336.0735,136.0732 336.752,136.6322 337.3674,137.2599" stroke="red"/>
  <polyline fill="none" points="337.3675,137.2601 337.9285,137.9575 338.4243,138.7027 338.8509,139.4894 339.205,140.3115 339.4835,141.162 339.6842,142.0343 339.8055,142.921 339.8464,143.8151" stroke="red"/>
  <polyline fill="none" points="339.8464,143.8153 339.8477,145.9576" stroke="red"/>
  <polyline fill="none" points="339.8477,145.9576 339.8461,143.2329" stroke="red"/>
  <polyline fill="none" points="339.8461,143.2329 339.7896,142.2464 339.6222,141.2726 339.3459,140.324 338.9643,139.4126 338.4822,138.5501 337.9058,137.7476 337.2426,137.0152" stroke="red"/>
  <polyline fill="none" points="337.2425,137.0151 336.4999,136.3603 335.6894,135.792 334.8207,135.3171 333.9048,134.9415 332.9528,134.6699 331.9765,134.5056 330.9881,134.4507" stroke="red"/>
  <polyline fill="none" points="330.9879,134.4507 328.7249,134.4509" stroke="red"/>
  <polyline fill="none" points="328.7249,134.4509 331.3424,134.4507" stroke="red"/>
  <polyline fill="none" points="331.3424,134.4507 332.263,134.4041 333.1742,134.2652 334.0668,134.0352 334.9317,133.7166 335.7602,133.3125 336.5437,132.8271 337.2745,132.2652" stroke="red"/>
  <polyline fill="none" points="337.2746,132.2651 337.9228,131.6394 338.489,130.9385 338.9644,130.1731 339.3417,129.3549 339.6153,128.4965 339.781,127.6108 339.8361,126.7115" stroke="red"/>
  <polyline fill="none" points="339.8361,126.7113 339.8335,122.453" stroke="red"/>
  <polyline fill="none" points="328.7249,134.4509 331.2003,134.4507" stroke="red"/>
  <polyline fill="none" points="331.2003,134.4507 332.1395,134.4026 333.0689,134.2591 333.9789,134.0216 334.8598,133.6925 335.7027,133.2754 336.4987,132.7746 337.2394,132.1952" stroke="red"/>
  <polyline fill="none" points="337.2395,132.1952 337.8973,131.5497 338.4714,130.8287 338.9532,130.0431 339.3354,129.2045 339.6125,128.3255 339.7802,127.4193 339.836,126.4994" stroke="red"/>
  <polyline fill="none" points="339.836,126.4992 339.8335,122.453" stroke="red"/>
  <polyline fill="none" points="339.8477,145.9576 339.8469,144.5679" stroke="red"/>
  <polyline fill="none" points="339.8469,144.5679 339.8402,133.5105" stroke="red"/>
  <polyline fill="none" points="339.8402,133.5105 339.8344,123.9575" stroke="red"/>
  <polyline fill="none" points="339.8344,123.9575 339.8335,122.453" stroke="red"/>
  <polyline fill="none" points="339.8477,145.9576 339.8469,144.5679" stroke="red"/>
  <polyline fill="none" points="339.8469,144.5679 339.8402,133.5105" stroke="red"/>
  <polyline fill="none" points="339.8402,133.5105 339.8344,123.9575" stroke="red"/>
  <polyline fill="none" points="339.8344,123.9575 339.8335,122.453" stroke="red"/>
  <polyline fill="none" points="93.4583,145.2848 93.4587,142.5103" stroke="red"/>
  <polyline fill="none" points="93.4587,142.5103 93.5089,141.6121 93.6587,140.7251 93.9062,139.8602 94.2483,139.0282 94.6809,138.2394 95.1984,137.5036 95.7946,136.8299" stroke="red"/>
  <polyline fill="none" points="95.7947,136.8298 96.4615,136.228 97.1919,135.7051 97.9766,135.268 98.8055,134.922 99.6682,134.6717 100.5535,134.5201 101.4504,134.4693" stroke="red"/>
  <polyline fill="none" points="101.4505,134.4693 104.4849,134.4691" stroke="red"/>
  <polyline fill="none" points="93.4583,145.2848 93.4588,142.0267" stroke="red"/>
  <polyline fill="none" points="93.4588,142.0265 93.5164,141.1327 93.688,140.2537 93.9708,139.4039 94.3601,138.5973 94.8494,137.8472 95.4309,137.1659 96.0947,136.5647" stroke="red"/>
  <polyline fill="none" points="96.0948,136.5647 96.8458,136.0243 97.645,135.5584 98.4852,135.1713 99.3587,134.8663 100.2573,134.6465 101.1729,134.5137 102.0969,134.4693" stroke="red"/>
  <polyline fill="none" points="102.0969,134.4693 104.4849,134.4691" stroke="red"/>
  <polyline fill="none" points="93.4583,145.2848 93.4599,134.2847" stroke="red"/>
  <polyline fill="none" points="93.4599,134.2847 93.4616,123.2847" stroke="red"/>
  <polyline fill="none" points="93.4583,145.2848 93.4599,134.2847" stroke="red"/>
  <polyline fill="none" points="93.4599,134.2847 93.4616,123.2847" stroke="red"/>
  <polyline fill="none" points="93.4616,123.2847 93.4613,125.5125" stroke="red"/>
  <polyline fill="none" points="93.4613,125.5127 93.5066,126.4026 93.6422,127.2832 93.8667,128.1455 94.1778,128.9804 94.5722,129.7794 95.0459,130.5341 95.5939,131.2366 96.2106,131.8798" stroke="red"/>
  <polyline fill="none" points="96.2107,131.8799 96.8933,132.4644 97.6279,132.982 98.4081,133.428 99.2268,133.7984 100.0769,134.09 100.9506,134.3001 101.8403,134.4269 102.7379,134.4692" stroke="red"/>
  <polyline fill="none" points="102.7379,134.4692 104.4849,134.4691" stroke="red"/>
  <polyline fill="none" points="104.4849,134.4691 101.8848,134.4693" stroke="red"/>
  <polyline fill="none" points="101.8846,134.4693 100.9364,134.4153 100.0005,134.2538 99.089,133.987 98.2137,133.6183 97.386,133.1525 96.6166,132.5956 95.9156,131.9548" stroke="red"/>
  <polyline fill="none" points="95.9155,131.9547 95.2884,131.237 94.7444,130.4545 94.2899,129.6168 93.9306,128.7342 93.6708,127.8172 93.5137,126.8772 93.4612,125.9257" stroke="red"/>
  <polyline fill="none" points="93.4612,125.9257 93.4616,123.2847" stroke="red"/>
</svg>
