<?xml version="1.0" encoding="utf-8" ?>
<svg xmlns="http://www.w3.org/2000/svg" xmlns:ev="http://www.w3.org/2001/xml-events" xmlns:xlink="http://www.w3.org/1999/xlink" baseProfile="tiny" height="328.66" version="1.2" width="394.441">
  <defs/>
  <polyline fill="none" points="0.0299,318.65 0.0,240.9969" stroke="red"/>
  <polyline fill="none" points="0.0,240.9969 0.0,240.5431" stroke="red"/>
  <polyline fill="none" points="0.0,240.5431 0.0399,164.185" stroke="red"/>
  <polyline fill="none" points="0.0399,164.185 0.0798,87.7632" stroke="red"/>
  <polyline fill="none" points="0.0798,87.7632 0.0799,87.4368" stroke="red"/>
  <polyline fill="none" points="0.0799,87.4368 0.0699,11.01" stroke="red"/>
  <polyline fill="none" points="394.4099,10.07 394.3799,87.2856" stroke="red"/>
  <polyline fill="none" points="394.3799,87.2856 394.3799,87.3744" stroke="red"/>
  <polyline fill="none" points="394.3799,87.3744 394.3636,164.4675" stroke="red"/>
  <polyline fill="none" points="394.3636,164.4675 394.3474,241.2522" stroke="red"/>
  <polyline fill="none" points="394.3474,241.2522 394.3478,241.9577" stroke="red"/>
  <polyline fill="none" points="394.3478,241.9577 394.4399,318.76" stroke="red"/>
  <polyline fill="none" points="90.4616,120.2847 90.4781,11.3073" stroke="red"/>
  <polyline fill="none" points="145.0157,328.6555 103.2481,328.66" stroke="red"/>
  <polyline fill="none" points="103.2481,328.66 103.0317,328.66" stroke="red"/>
  <polyline fill="none" points="103.0317,328.66 102.7557,328.6599" stroke="red"/>
  <polyline fill="none" points="10.0699,0.07 9.4185,0.0704" stroke="red"/>
  <polyline fill="none" points="9.4185,0.0704 8.4566,0.1242 7.5066,0.284 6.5801,0.5479 5.6884,0.9125 4.8425,1.3735 4.0527,1.9251 3.3287,2.5607 2.6794,3.2724" stroke="red"/>
  <polyline fill="none" points="2.6792,3.2725 2.086,4.0669 1.5629,4.9091 1.1136,5.7928 0.7414,6.7117 0.4492,7.6591 0.2389,8.6279 0.1121,9.6112 0.0699,10.6017" stroke="red"/>
  <polyline fill="none" points="0.0699,10.6019 0.0699,11.0096" stroke="red"/>
  <polyline fill="none" points="394.4099,10.07 394.4104,8.9021" stroke="red"/>
  <polyline fill="none" points="394.4104,8.9021 394.3629,8.003 394.2203,7.1139 393.9841,6.2451 393.6571,5.4062 393.2429,4.6067 392.7462,3.8558 392.1726,3.1617 391.5287,2.5324" stroke="red"/>
  <polyline fill="none" points="391.5285,2.5323 390.8128,1.9587 390.0485,1.4519 389.2416,1.0158 388.3988,0.6541 387.5268,0.3697 386.6328,0.1649 385.724,0.0413 384.8078,0.0" stroke="red"/>
  <polyline fill="none" points="384.8077,0.0 384.1399,0.0" stroke="red"/>
  <polyline fill="none" points="90.4315,317.943 90.4369,282.4563" stroke="red"/>
  <polyline fill="none" points="90.4403,260.4563 90.4481,208.7763" stroke="red"/>
  <polyline fill="none" points="336.8731,184.9438 336.8477,142.9576" stroke="red"/>
  <polyline fill="none" points="101.4503,271.1113 145.0479,271.1166" stroke="red"/>
  <polyline fill="none" points="325.6876,328.6213 290.636,328.6399" stroke="red"/>
  <polyline fill="none" points="290.636,328.6399 290.4238,328.64" stroke="red"/>
  <polyline fill="none" points="290.4238,328.64 168.1476,328.653" stroke="red"/>
  <polyline fill="none" points="10.0699,0.07 79.4699,0.0328" stroke="red"/>
  <polyline fill="none" points="384.6499,328.59 348.2899,328.6093" stroke="red"/>
  <polyline fill="none" points="101.4796,197.1951 325.6955,197.0949" stroke="red"/>
  <polyline fill="none" points="336.9533,317.8162 336.9318,282.1962" stroke="red"/>
  <polyline fill="none" points="79.4361,328.6523 11.0899,328.63" stroke="red"/>
  <polyline fill="none" points="336.9181,259.578 336.887,208.033" stroke="red"/>
  <polyline fill="none" points="347.791,0.0 384.1399,0.0" stroke="red"/>
  <polyline fill="none" points="384.6499,328.59 385.6823,328.5894" stroke="red"/>
  <polyline fill="none" points="385.6823,328.5894 386.6712,328.5322 387.6471,328.3622 388.5971,328.0817 389.5087,327.6944 390.3701,327.2053 391.1699,326.6209 391.8976,325.9489" stroke="red"/>
  <polyline fill="none" points="391.8978,325.9488 392.5487,325.1959 393.1132,324.3762 393.5844,323.4996 393.9566,322.5765 394.2254,321.6182 394.3875,320.6363 394.441,319.6425" stroke="red"/>
  <polyline fill="none" points="394.441,319.6423 394.4399,318.76" stroke="red"/>
  <polyline fill="none" points="156.1268,317.9003 156.0837,282.4128" stroke="red"/>
  <polyline fill="none" points="167.2325,271.1193 325.6825,271.1386" stroke="red"/>
  <polyline fill="none" points="101.4848,131.4691 325.7248,131.4509" stroke="red"/>
  <polyline fill="none" points="0.0299,318.65 0.0304,320.0326" stroke="red"/>
  <polyline fill="none" points="0.0304,320.0326 0.0909,321.0235 0.2707,321.9998 0.5671,322.9472 0.9759,323.8518 1.491,324.7005 2.1049,325.4806 2.8085,326.1809" stroke="red"/>
  <polyline fill="none" points="2.8087,326.181 3.4979,326.7353 4.2343,327.2251 5.0119,327.6466 5.8242,327.9963 6.6648,328.2714 7.5268,328.4695 8.4031,328.5892 9.2866,328.6294" stroke="red"/>
  <polyline fill="none" points="9.2868,328.6294 11.0899,328.63" stroke="red"/>
  <polyline fill="none" points="90.4515,186.7745 90.4582,142.2848" stroke="red"/>
  <polyline fill="none" points="336.8335,119.453 336.7681,11.163" stroke="red"/>
  <polyline fill="none" points="101.6791,0.0209 103.3327,0.02" stroke="red"/>
  <polyline fill="none" points="103.3327,0.02 103.5471,0.02" stroke="red"/>
  <polyline fill="none" points="103.5471,0.02 197.0299,0.01" stroke="red"/>
  <polyline fill="none" points="197.0299,0.01 290.5932,0.0" stroke="red"/>
  <polyline fill="none" points="290.5932,0.0 290.6466,0.0" stroke="red"/>
  <polyline fill="none" points="290.6466,0.0 325.7791,0.0" stroke="red"/>
  <polyline fill="none" points="325.7791,0.0 347.791,0.0" stroke="red"/>
  <polyline fill="none" points="325.7791,0.0 347.791,0.0" stroke="red"/>
  <polyline fill="none" points="336.7681,11.163 336.767,9.3305" stroke="red"/>
  <polyline fill="none" points="336.767,9.3304 336.8088,8.4291 336.9351,7.5358 337.1447,6.6583 337.4356,5.8043 337.8055,4.9813 338.251,4.1968 338.7681,3.4575 339.3523,2.77" stroke="red"/>
  <polyline fill="none" points="339.3525,2.7698 339.9951,2.1489 340.6979,1.597 341.4534,1.1198 342.2538,0.7223 343.0905,0.4088 343.955,0.1825 344.8381,0.0457 345.7305,0.0" stroke="red"/>
  <polyline fill="none" points="345.7305,0.0 347.791,0.0" stroke="red"/>
  <polyline fill="none" points="336.7681,11.163 336.7669,9.1326" stroke="red"/>
  <polyline fill="none" points="336.7669,9.1326 336.8072,8.2536 336.9289,7.3822 337.131,6.5257 337.4117,5.6918 337.7685,4.8874 338.1985,4.1197 338.6978,3.3951 339.2622,2.7201" stroke="red"/>
  <polyline fill="none" points="339.2623,2.7199 339.9763,2.0292 340.7669,1.4275 341.6229,0.9233 342.5325,0.5236 343.4829,0.2341 344.4608,0.0587 345.4525,0.0" stroke="red"/>
  <polyline fill="none" points="345.4527,0.0 347.791,0.0" stroke="red"/>
  <polyline fill="none" points="325.7791,0.0 328.7468,0.0" stroke="red"/>
  <polyline fill="none" points="328.7469,0.0 329.6572,0.0532 330.555,0.2118 331.4283,0.4739 332.2652,0.8358 333.0543,1.2926 333.7849,1.8381 334.4471,2.4649" stroke="red"/>
  <polyline fill="none" points="334.4472,2.465 335.0403,3.1682 335.5543,3.9311 335.9834,4.7448 336.3225,5.5999 336.5678,6.4866 336.7163,7.3944 336.7664,8.313" stroke="red"/>
  <polyline fill="none" points="336.7664,8.313 336.7681,11.163" stroke="red"/>
  <polyline fill="none" points="336.7681,11.163 336.7667,8.8081" stroke="red"/>
  <polyline fill="none" points="336.7667,8.8081 336.7135,7.8341 336.5556,6.8715 336.295,5.9316 335.9346,5.0252 335.4786,4.1628 334.9324,3.3547 334.3023,2.6101" stroke="red"/>
  <polyline fill="none" points="334.3021,2.61 333.5986,1.9461 332.8227,1.3685 331.9849,0.8848 331.0967,0.5017 330.1701,0.2243 329.2175,0.0563 328.2518,0.0" stroke="red"/>
  <polyline fill="none" points="328.2516,0.0 325.7791,0.0" stroke="red"/>
  <polyline fill="none" points="336.887,208.033 336.8731,184.9438" stroke="red"/>
  <polyline fill="none" points="336.887,208.033 336.8731,184.9438" stroke="red"/>
  <polyline fill="none" points="325.6955,197.0949 328.4181,197.0937" stroke="red"/>
  <polyline fill="none" points="328.4181,197.0937 329.3771,197.1489 330.3233,197.3148 331.2439,197.5891 332.1265,197.9681 332.9594,198.4468 333.7312,199.0186 334.4317,199.6759" stroke="red"/>
  <polyline fill="none" points="334.4318,199.676 335.059,200.4133 335.6029,201.214 336.0569,202.0688 336.4158,202.9678 336.6754,203.9002 336.8327,204.8553 336.8857,205.8218" stroke="red"/>
  <polyline fill="none" points="336.8857,205.822 336.887,208.033" stroke="red"/>
  <polyline fill="none" points="336.887,208.033 336.8855,205.5156" stroke="red"/>
  <polyline fill="none" points="336.8855,205.5156 336.8248,204.5388 336.6449,203.5768 336.3486,202.6441 335.9401,201.7548 335.4258,200.9222 334.8133,200.1588 334.112,199.4763" stroke="red"/>
  <polyline fill="none" points="334.1118,199.4762 333.4239,198.9357 332.6908,198.4585 331.9182,198.0482 331.1122,197.708 330.2793,197.4407 329.4259,197.2483 328.5588,197.1325 327.6848,197.094" stroke="red"/>
  <polyline fill="none" points="327.6847,197.094 325.6955,197.0949" stroke="red"/>
  <polyline fill="none" points="325.6955,197.0949 328.0543,197.0938" stroke="red"/>
  <polyline fill="none" points="328.0543,197.0938 328.9282,197.0493 329.7932,196.9168 330.6404,196.6977 331.4612,196.3942 332.2472,196.0096 332.9904,195.5476 333.6832,195.013 334.3186,194.4112" stroke="red"/>
  <polyline fill="none" points="334.3187,194.4111 334.8957,193.7456 335.4068,193.0282 335.8472,192.2655 336.2131,191.4643 336.5011,190.6319 336.7085,189.7758 336.8335,188.9039 336.8749,188.0241" stroke="red"/>
  <polyline fill="none" points="336.8749,188.024 336.8731,184.9438" stroke="red"/>
  <polyline fill="none" points="325.6955,197.0949 328.313,197.0937" stroke="red"/>
  <polyline fill="none" points="328.313,197.0937 329.2819,197.0373 330.2378,196.8697 331.1681,196.5931 332.0603,196.2112 332.9025,195.7291 333.6837,195.1532 334.3933,194.4911" stroke="red"/>
  <polyline fill="none" points="334.3934,194.491 335.0285,193.7489 335.5791,192.9421 336.0387,192.0802 336.4017,191.1735 336.664,190.2326 336.8225,189.2688 336.8751,188.2935" stroke="red"/>
  <polyline fill="none" points="336.8751,188.2933 336.8731,184.9438" stroke="red"/>
  <polyline fill="none" points="325.6825,271.1386 328.3748,271.139" stroke="red"/>
  <polyline fill="none" points="328.3749,271.139 329.3105,271.0901 330.2358,270.9439 331.1409,270.702 332.0158,270.367 332.851,269.9425 333.6373,269.4331 334.3661,268.8446" stroke="red"/>
  <polyline fill="none" points="334.3663,268.8444 335.0146,268.1881 335.5796,267.4589 336.0533,266.6673 336.4289,265.8247 336.701,264.9432 336.8655,264.0354 336.9203,263.1145" stroke="red"/>
  <polyline fill="none" points="336.9203,263.1145 336.9185,260.1942" stroke="red"/>
  <polyline fill="none" points="336.9185,260.1942 336.9181,259.578" stroke="red"/>
  <polyline fill="none" points="325.6825,271.1386 327.8383,271.1389" stroke="red"/>
  <polyline fill="none" points="327.8384,271.1389 328.8308,271.0874 329.8125,270.9334 330.773,270.6784 331.7018,270.3252 332.589,269.8776 333.4251,269.3405 334.201,268.7196" stroke="red"/>
  <polyline fill="none" points="334.2011,268.7195 334.8909,268.0272 335.4923,267.257 335.9967,266.42 336.3966,265.5284 336.6864,264.5952 336.8617,263.6338 336.92,262.6583" stroke="red"/>
  <polyline fill="none" points="336.92,262.6583 336.9185,260.1939" stroke="red"/>
  <polyline fill="none" points="336.9185,260.1939 336.9181,259.578" stroke="red"/>
  <polyline fill="none" points="336.9318,282.1962 336.9315,281.693" stroke="red"/>
  <polyline fill="none" points="336.9315,281.693 336.9248,270.6355" stroke="red"/>
  <polyline fill="none" points="336.9248,270.6355 336.9185,260.1939" stroke="red"/>
  <polyline fill="none" points="336.9185,260.1939 336.9181,259.578" stroke="red"/>
  <polyline fill="none" points="336.9318,282.1962 336.9315,281.693" stroke="red"/>
  <polyline fill="none" points="336.9315,281.693 336.9248,270.6355" stroke="red"/>
  <polyline fill="none" points="336.9248,270.6355 336.9185,260.1939" stroke="red"/>
  <polyline fill="none" points="336.9185,260.1939 336.9181,259.578" stroke="red"/>
  <polyline fill="none" points="325.6825,271.1386 327.614,271.1389" stroke="red"/>
  <polyline fill="none" points="327.614,271.1389 328.5319,271.1848 329.4406,271.3217 330.3312,271.5484 331.1948,271.8626 332.0229,272.2612 332.8072,272.7401 333.54,273.2947 334.2139,273.9195" stroke="red"/>
  <polyline fill="none" points="334.2141,273.9196 334.8257,274.6098 335.3679,275.3558 335.8356,276.1506 336.2245,276.9868 336.5309,277.8566 336.752,278.7519 336.8857,279.6643 336.9308,280.5854" stroke="red"/>
  <polyline fill="none" points="336.9308,280.5856 336.9318,282.1962" stroke="red"/>
  <polyline fill="none" points="336.9318,282.1962 336.9305,280.1024" stroke="red"/>
  <polyline fill="none" points="336.9305,280.1024 336.8865,279.2221 336.756,278.3504 336.5403,277.4958 336.2415,276.6666 335.8624,275.8709 335.4068,275.1163 334.8791,274.4104 334.2844,273.7598" stroke="red"/>
  <polyline fill="none" points="334.2843,273.7597 333.6279,273.1698 332.9172,272.6467 332.1589,272.1953 331.3602,271.82 330.5287,271.5242 329.6724,271.3109 328.7994,271.1821 327.918,271.1389" stroke="red"/>
  <polyline fill="none" points="327.9178,271.1389 325.6825,271.1386" stroke="red"/>
  <polyline fill="none" points="336.9533,317.8162 336.9551,320.7639" stroke="red"/>
  <polyline fill="none" points="336.9551,320.7641 336.9052,321.648 336.7551,322.5205 336.5067,323.3703 336.1633,324.1863 335.7294,324.9579 335.2105,325.6752 334.6134,326.3289" stroke="red"/>
  <polyline fill="none" points="334.6133,326.329 333.9443,326.9137 333.2151,327.4211 332.4343,327.8451 331.6116,328.1805 330.7569,328.4231 329.8807,328.57 328.9936,328.6196" stroke="red"/>
  <polyline fill="none" points="328.9936,328.6196 325.6876,328.6213" stroke="red"/>
  <polyline fill="none" points="325.6876,328.6213 328.0806,328.62" stroke="red"/>
  <polyline fill="none" points="328.0808,328.62 329.0384,328.572 329.9866,328.4295 330.9161,328.1938 331.8176,327.8672 332.6825,327.4531 333.5021,326.9554 334.2684,326.3791" stroke="red"/>
  <polyline fill="none" points="334.2685,326.379 334.9475,325.7374 335.541,325.016 336.0398,324.2261 336.4359,323.3801 336.7231,322.4912 336.8971,321.5734 336.955,320.641" stroke="red"/>
  <polyline fill="none" points="336.955,320.641 336.9533,317.8162" stroke="red"/>
  <polyline fill="none" points="348.2899,328.6093 325.6876,328.6213" stroke="red"/>
  <polyline fill="none" points="348.2899,328.6093 325.6876,328.6213" stroke="red"/>
  <polyline fill="none" points="348.2899,328.6093 345.118,328.611" stroke="red"/>
  <polyline fill="none" points="345.1179,328.611 344.2434,328.5691 343.377,328.443 342.5268,328.2338 341.7008,327.9434 340.9067,327.5747 340.1519,327.1309 339.4435,326.6164" stroke="red"/>
  <polyline fill="none" points="339.4434,326.6163 338.7196,325.9406 338.1041,325.165 337.6105,324.3066 337.2497,323.3845 337.0298,322.4191 336.9555,321.4317" stroke="red"/>
  <polyline fill="none" points="336.9555,321.4317 336.9533,317.8162" stroke="red"/>
  <polyline fill="none" points="348.2899,328.6093 345.0511,328.611" stroke="red"/>
  <polyline fill="none" points="345.0509,328.611 344.1571,328.5633 343.2737,328.4198 342.4107,328.1822 341.5783,327.8533 340.7861,327.4368 340.0432,326.9375 339.3583,326.3613" stroke="red"/>
  <polyline fill="none" points="339.3582,326.3612 338.7476,325.7178 338.2161,325.0076 337.7709,324.2404 337.4181,323.4265 337.1624,322.5771 337.0074,321.7038 336.9551,320.8183" stroke="red"/>
  <polyline fill="none" points="336.9551,320.8183 336.9533,317.8162" stroke="red"/>
  <polyline fill="none" points="90.4481,208.7763 90.4485,206.1029" stroke="red"/>
  <polyline fill="none" points="90.4485,206.1027 90.4975,205.1374 90.6435,204.1819 90.8851,203.246 91.2198,202.3392 91.6442,201.4708 92.154,200.6496 92.744,199.884" stroke="red"/>
  <polyline fill="none" points="92.7441,199.8838 93.4013,199.2044 94.1371,198.6109 94.9403,198.1124 95.7987,197.7166 96.6992,197.4293 97.6283,197.2551 98.5718,197.1964" stroke="red"/>
  <polyline fill="none" points="98.5718,197.1964 101.4796,197.1951" stroke="red"/>
  <polyline fill="none" points="90.4481,208.7763 90.4485,206.5132" stroke="red"/>
  <polyline fill="none" points="90.4485,206.5132 90.4894,205.6207 90.6116,204.7357 90.8141,203.8655 91.0952,203.0175 91.4525,202.1986 91.883,201.4158 92.3832,200.6755 92.9488,199.984" stroke="red"/>
  <polyline fill="none" points="92.9489,199.9839 93.57,199.3607 94.2529,198.806 94.9901,198.3258 95.7736,197.9255 96.5946,197.6093 97.4443,197.3809 98.3132,197.2426 99.1918,197.1961" stroke="red"/>
  <polyline fill="none" points="99.192,197.1961 101.4796,197.1951" stroke="red"/>
  <polyline fill="none" points="90.4515,186.7745 90.451,189.842" stroke="red"/>
  <polyline fill="none" points="90.451,189.8422 90.5175,190.8167 90.7158,191.773 91.0424,192.6935 91.4911,193.561 92.0536,194.3595 92.7196,195.074" stroke="red"/>
  <polyline fill="none" points="92.7197,195.0741 93.4803,195.7014 94.3134,196.2286 95.206,196.6474 96.1439,196.9512 97.1125,197.1352 98.0966,197.1966" stroke="red"/>
  <polyline fill="none" points="98.0966,197.1966 101.4796,197.1951" stroke="red"/>
  <polyline fill="none" points="101.4796,197.1951 98.4032,197.1965" stroke="red"/>
  <polyline fill="none" points="98.4031,197.1965 97.5287,197.1504 96.6642,197.012 95.8193,196.7827 95.0033,196.4653 94.2256,196.0631 93.4949,195.5809 92.8193,195.0239" stroke="red"/>
  <polyline fill="none" points="92.8192,195.0238 92.2177,194.4023 91.6937,193.7141 91.2547,192.9689 90.9067,192.1771 90.6547,191.3497 90.5021,190.4983 90.451,189.6349" stroke="red"/>
  <polyline fill="none" points="90.451,189.6349 90.4515,186.7745" stroke="red"/>
  <polyline fill="none" points="90.4481,208.7763 90.4515,186.7745" stroke="red"/>
  <polyline fill="none" points="90.4481,208.7763 90.4515,186.7745" stroke="red"/>
  <polyline fill="none" points="90.4369,282.4563 90.4374,279.6168" stroke="red"/>
  <polyline fill="none" points="90.4374,279.6168 90.4866,278.684 90.6334,277.7616 90.8762,276.8596 91.2123,275.9881 91.6381,275.1567 92.1487,274.3746 92.7385,273.6503" stroke="red"/>
  <polyline fill="none" points="92.7386,273.6502 93.3966,273.0057 94.1265,272.4441 94.9181,271.9733 95.76,271.6 96.6404,271.3295 97.5467,271.1658 98.4661,271.111" stroke="red"/>
  <polyline fill="none" points="98.4663,271.111 101.4503,271.1113" stroke="red"/>
  <polyline fill="none" points="90.4369,282.4563 90.4374,279.3599" stroke="red"/>
  <polyline fill="none" points="90.4374,279.3597 90.4977,278.3971 90.6771,277.4495 90.9731,276.5316 91.3809,275.6577 91.8942,274.8412 92.505,274.0949 93.2039,273.4303" stroke="red"/>
  <polyline fill="none" points="93.2041,273.4302 93.9924,272.8334 94.8362,272.3181 95.7272,271.8893 96.6564,271.5513 97.6146,271.3075 98.5923,271.1602 99.5799,271.1111" stroke="red"/>
  <polyline fill="none" points="99.5799,271.1111 101.4503,271.1113" stroke="red"/>
  <polyline fill="none" points="90.4369,282.4563 90.4386,271.4563" stroke="red"/>
  <polyline fill="none" points="90.4386,271.4563 90.4403,260.4563" stroke="red"/>
  <polyline fill="none" points="90.4369,282.4563 90.4386,271.4563" stroke="red"/>
  <polyline fill="none" points="90.4386,271.4563 90.4403,260.4563" stroke="red"/>
  <polyline fill="none" points="101.4503,271.1113 97.9965,271.1109" stroke="red"/>
  <polyline fill="none" points="97.9964,271.1109 97.0415,271.0545 96.0998,270.8864 95.1843,270.6088 94.3078,270.2257 93.4823,269.7423 92.7193,269.1653" stroke="red"/>
  <polyline fill="none" points="92.7192,269.1652 92.0533,268.5085 91.4886,267.7631 91.0368,266.9443 90.7073,266.0691 90.5069,265.1556 90.4397,264.2229" stroke="red"/>
  <polyline fill="none" points="90.4397,264.2229 90.4403,260.4563" stroke="red"/>
  <polyline fill="none" points="90.4403,260.4563 90.4399,262.9872" stroke="red"/>
  <polyline fill="none" points="90.4399,262.9874 90.4943,263.9126 90.6568,264.8251 90.9254,265.7122 91.2962,266.5617 91.7642,267.3617 92.3228,268.1013 92.9643,268.7703" stroke="red"/>
  <polyline fill="none" points="92.9645,268.7704 93.6847,269.3697 94.4646,269.8889 95.2955,270.322 96.1677,270.6642 97.0715,270.9114 97.9964,271.0609 98.9321,271.111" stroke="red"/>
  <polyline fill="none" points="98.9321,271.111 101.4503,271.1113" stroke="red"/>
  <polyline fill="none" points="168.1476,328.653 145.0157,328.6555" stroke="red"/>
  <polyline fill="none" points="168.1476,328.653 145.0157,328.6555" stroke="red"/>
  <polyline fill="none" points="168.1476,328.653 163.0666,328.6536" stroke="red"/>
  <polyline fill="none" points="163.0665,328.6536 162.1534,328.5922 161.2568,328.4092 160.3928,328.1077 159.5769,327.6931 158.824,327.1731 158.1474,326.5569" stroke="red"/>
  <polyline fill="none" points="158.1473,326.5568 157.5534,325.8533 157.0535,325.0802 156.6558,324.2498 156.3667,323.3757 156.1909,322.472 156.1313,321.5533" stroke="red"/>
  <polyline fill="none" points="156.1313,321.5533 156.1268,317.9003" stroke="red"/>
  <polyline fill="none" points="168.1476,328.653 163.2725,328.6536" stroke="red"/>
  <polyline fill="none" points="163.2724,328.6536 162.3229,328.5881 161.3914,328.3927 160.4956,328.0711 159.6526,327.6295 158.8782,327.0762 158.1872,326.4217" stroke="red"/>
  <polyline fill="none" points="158.1871,326.4216 157.5801,325.6735 157.0701,324.8562 156.6648,323.9823 156.3704,323.065 156.1915,322.1183 156.1308,321.1569" stroke="red"/>
  <polyline fill="none" points="156.1308,321.1569 156.1268,317.9003" stroke="red"/>
  <polyline fill="none" points="156.1268,317.9003 156.1314,321.6985" stroke="red"/>
  <polyline fill="none" points="156.1314,321.6986 156.0688,322.6228 155.88,323.5297 155.5684,324.402 155.1401,325.2234 154.6031,325.9782 153.9676,326.6521" stroke="red"/>
  <polyline fill="none" points="153.9675,326.6522 153.2411,327.2441 152.4469,327.7414 151.5972,328.1364 150.7051,328.423 149.7843,328.5968 148.8491,328.6551" stroke="red"/>
  <polyline fill="none" points="148.8491,328.6551 145.0157,328.6555" stroke="red"/>
  <polyline fill="none" points="145.0157,328.6555 148.1145,328.6552" stroke="red"/>
  <polyline fill="none" points="148.1146,328.6552 148.9909,328.6095 149.8578,328.4733 150.7059,328.2479 151.526,327.9358 152.3093,327.5403 153.0475,327.0658 153.7324,326.5173" stroke="red"/>
  <polyline fill="none" points="153.7325,326.5171 154.3414,325.9057 154.8722,325.2254 155.3173,324.4861 155.6701,323.6986 155.9255,322.8744 156.0798,322.0255 156.1308,321.1641" stroke="red"/>
  <polyline fill="none" points="156.1308,321.1641 156.1268,317.9003" stroke="red"/>
  <polyline fill="none" points="145.0479,271.1166 167.2325,271.1193" stroke="red"/>
  <polyline fill="none" points="145.0479,271.1166 167.2325,271.1193" stroke="red"/>
  <polyline fill="none" points="156.0837,282.4128 156.08,279.3337" stroke="red"/>
  <polyline fill="none" points="156.08,279.3337 156.0272,278.4135 155.8719,277.505 155.6159,276.6196 155.2626,275.7684 154.8162,274.962 154.2824,274.2106 153.6679,273.5236" stroke="red"/>
  <polyline fill="none" points="153.6678,273.5235 152.9804,272.9096 152.2286,272.3765 151.4218,271.9308 150.5703,271.5783 149.6847,271.3232 148.776,271.1687 147.8558,271.117" stroke="red"/>
  <polyline fill="none" points="147.8557,271.117 145.0479,271.1166" stroke="red"/>
  <polyline fill="none" points="145.0479,271.1166 147.7313,271.117" stroke="red"/>
  <polyline fill="none" points="147.7313,271.117 148.6497,271.166 149.5577,271.3123 150.4451,271.5543 151.3017,271.8892 152.1178,272.3132 152.8843,272.8215 153.5925,273.4083" stroke="red"/>
  <polyline fill="none" points="153.5926,273.4084 154.2236,274.0634 154.7731,274.7879 155.2338,275.572 155.5991,276.4049 155.8641,277.2748 156.025,278.1699 156.0797,279.0777" stroke="red"/>
  <polyline fill="none" points="156.0797,279.0778 156.0837,282.4128" stroke="red"/>
  <polyline fill="none" points="156.0837,282.4128 156.0801,279.4413" stroke="red"/>
  <polyline fill="none" points="156.0801,279.4413 156.1359,278.4885 156.3048,277.549 156.5844,276.6364 156.9706,275.7635 157.4581,274.9429 158.0399,274.1861 158.7076,273.5041" stroke="red"/>
  <polyline fill="none" points="158.7078,273.504 159.4583,272.8924 160.2689,272.3631 161.1306,271.9218 162.0339,271.5735 162.9688,271.3219 163.9249,271.1699 164.8917,271.1191" stroke="red"/>
  <polyline fill="none" points="164.8918,271.1191 167.2325,271.1193" stroke="red"/>
  <polyline fill="none" points="156.0837,282.4128 156.0804,279.6716" stroke="red"/>
  <polyline fill="none" points="156.0804,279.6716 156.137,278.6961 156.3082,277.734 156.5918,276.7988 156.9837,275.9036 157.4785,275.0609 158.0692,274.2825 158.7476,273.5792" stroke="red"/>
  <polyline fill="none" points="158.7478,273.5791 159.5098,272.9488 160.3344,272.4029 161.2123,271.9477 162.1335,271.5882 163.0877,271.3285 164.0641,271.1715 165.0516,271.1191" stroke="red"/>
  <polyline fill="none" points="165.0517,271.1191 167.2325,271.1193" stroke="red"/>
  <polyline fill="none" points="90.4315,317.943 90.431,321.4849" stroke="red"/>
  <polyline fill="none" points="90.431,321.485 90.361,322.4549 90.1529,323.4047 89.811,324.315 89.3422,325.1669 88.7563,325.943 88.0653,326.6271" stroke="red"/>
  <polyline fill="none" points="88.0652,326.6272 87.2737,327.2283 86.4168,327.7319 85.5066,328.131 84.5556,328.42 83.5772,328.5949 82.585,328.6533" stroke="red"/>
  <polyline fill="none" points="82.585,328.6533 79.4361,328.6523" stroke="red"/>
  <polyline fill="none" points="79.4361,328.6523 82.9242,328.6534" stroke="red"/>
  <polyline fill="none" points="82.9243,328.6534 83.9033,328.5897 84.8656,328.3989 85.7949,328.0845 86.6752,327.6516 87.4917,327.1078 88.2304,326.4622" stroke="red"/>
  <polyline fill="none" points="88.2305,326.4621 88.8782,325.7259 89.4241,324.9113 89.8588,324.0324 90.1748,323.1041 90.3666,322.1425 90.431,321.164" stroke="red"/>
  <polyline fill="none" points="90.431,321.164 90.4315,317.943" stroke="red"/>
  <polyline fill="none" points="102.7557,328.6599 79.4361,328.6523" stroke="red"/>
  <polyline fill="none" points="102.7557,328.6599 79.4361,328.6523" stroke="red"/>
  <polyline fill="none" points="102.7557,328.6599 97.3129,328.6581" stroke="red"/>
  <polyline fill="none" points="97.3129,328.6581 96.4118,328.5982 95.5264,328.4202 94.6721,328.1273 93.8638,327.7244 93.1156,327.2186 92.4405,326.6187" stroke="red"/>
  <polyline fill="none" points="92.4404,326.6186 91.8482,325.9344 91.3495,325.1793 90.9526,324.3661 90.6644,323.5083 90.4895,322.6205 90.431,321.7175" stroke="red"/>
  <polyline fill="none" points="90.431,321.7174 90.4315,317.943" stroke="red"/>
  <polyline fill="none" points="102.7557,328.6599 98.4988,328.6585" stroke="red"/>
  <polyline fill="none" points="98.4988,328.6585 97.6144,328.6117 96.7398,328.4726 95.8846,328.2426 95.0581,327.9242 94.2696,327.521 93.5277,327.0374 92.8405,326.4788" stroke="red"/>
  <polyline fill="none" points="92.8404,326.4787 92.2289,325.8556 91.696,325.1641 91.2493,324.4141 90.8951,323.6162 90.6385,322.7819 90.483,321.9228 90.4311,321.0514" stroke="red"/>
  <polyline fill="none" points="90.4311,321.0512 90.4315,317.943" stroke="red"/>
  <polyline fill="none" points="79.4699,0.0328 101.6791,0.0209" stroke="red"/>
  <polyline fill="none" points="79.4699,0.0328 101.6791,0.0209" stroke="red"/>
  <polyline fill="none" points="79.4699,0.0328 81.9564,0.0315" stroke="red"/>
  <polyline fill="none" points="81.9564,0.0315 82.9295,0.0887 83.8889,0.2604 84.8214,0.5443 85.7138,0.9363 86.5536,1.4311 87.3291,2.0216 88.0294,2.6996" stroke="red"/>
  <polyline fill="none" points="88.0295,2.6998 88.6571,3.4613 89.2006,4.285 89.6538,5.1616 90.0116,6.0812 90.2701,7.0336 90.4263,8.008 90.4785,8.9934" stroke="red"/>
  <polyline fill="none" points="90.4785,8.9936 90.4781,11.3073" stroke="red"/>
  <polyline fill="none" points="90.4781,11.3073 90.4785,9.1299" stroke="red"/>
  <polyline fill="none" points="90.4785,9.1299 90.4368,8.2485 90.312,7.3751 90.1052,6.5174 89.8181,5.683 89.4535,4.8796 89.0144,4.1143 88.505,3.3939 87.9297,2.7249" stroke="red"/>
  <polyline fill="none" points="87.9296,2.7248 87.2965,2.1203 86.6053,1.5832 85.8632,1.1191 85.0777,0.7327 84.2571,0.428 83.4098,0.2083 82.5446,0.0757 81.6704,0.0317" stroke="red"/>
  <polyline fill="none" points="81.6702,0.0317 79.4699,0.0328" stroke="red"/>
  <polyline fill="none" points="90.4781,11.3073 90.4785,9.3239" stroke="red"/>
  <polyline fill="none" points="90.4785,9.3239 90.5214,8.4227 90.6494,7.5297 90.8614,6.6528 91.1555,5.7999 91.5291,4.9787 91.9787,4.1965 92.5004,3.4605 93.0895,2.7772" stroke="red"/>
  <polyline fill="none" points="93.0896,2.7771 93.7379,2.1594 94.4454,1.6105 95.2048,1.1361 96.0084,0.741 96.8478,0.4293 97.7145,0.2042 98.5996,0.068 99.4938,0.0221" stroke="red"/>
  <polyline fill="none" points="99.494,0.0221 101.6791,0.0209" stroke="red"/>
  <polyline fill="none" points="90.4781,11.3073 90.4785,9.0624" stroke="red"/>
  <polyline fill="none" points="90.4785,9.0624 90.5294,8.0772 90.6814,7.1024 90.9329,6.1484 91.281,5.2254 91.7223,4.343 92.252,3.5107 92.8644,2.7373" stroke="red"/>
  <polyline fill="none" points="92.8645,2.7372 93.5472,2.0498 94.308,1.45 95.1357,0.9467 96.0183,0.5473 96.9427,0.2575 97.8954,0.0817 98.8623,0.0224" stroke="red"/>
  <polyline fill="none" points="98.8625,0.0224 101.6791,0.0209" stroke="red"/>
  <polyline fill="none" points="325.7248,131.4509 328.1454,131.4507" stroke="red"/>
  <polyline fill="none" points="328.1454,131.4507 329.0232,131.4972 329.8912,131.6364 330.7396,131.8666 331.5588,132.1854 332.3397,132.5891 333.0735,133.0732 333.7519,133.6322 334.3674,134.2599" stroke="red"/>
  <polyline fill="none" points="334.3675,134.2601 334.9284,134.9575 335.4242,135.7027 335.8509,136.4894 336.2049,137.3115 336.4834,138.162 336.6842,139.0343 336.8055,139.921 336.8464,140.8151" stroke="red"/>
  <polyline fill="none" points="336.8464,140.8153 336.8477,142.9576" stroke="red"/>
  <polyline fill="none" points="336.8477,142.9576 336.8461,140.2329" stroke="red"/>
  <polyline fill="none" points="336.8461,140.2329 336.7896,139.2464 336.6221,138.2726 336.3458,137.324 335.9642,136.4126 335.4822,135.5501 334.9058,134.7476 334.2425,134.0152" stroke="red"/>
  <polyline fill="none" points="334.2424,134.0151 333.4999,133.3603 332.6893,132.792 331.8207,132.3171 330.9047,131.9415 329.9528,131.6699 328.9765,131.5056 327.9881,131.4507" stroke="red"/>
  <polyline fill="none" points="327.9879,131.4507 325.7248,131.4509" stroke="red"/>
  <polyline fill="none" points="325.7248,131.4509 328.3424,131.4507" stroke="red"/>
  <polyline fill="none" points="328.3424,131.4507 329.2629,131.4041 330.1742,131.2652 331.0668,131.0352 331.9317,130.7166 332.7601,130.3125 333.5437,129.8271 334.2744,129.2652" stroke="red"/>
  <polyline fill="none" points="334.2745,129.2651 334.9228,128.6394 335.4889,127.9385 335.9643,127.1731 336.3417,126.3549 336.6153,125.4965 336.7809,124.6108 336.8361,123.7115" stroke="red"/>
  <polyline fill="none" points="336.8361,123.7113 336.8335,119.453" stroke="red"/>
  <polyline fill="none" points="325.7248,131.4509 328.2003,131.4507" stroke="red"/>
  <polyline fill="none" points="328.2003,131.4507 329.1395,131.4026 330.0689,131.2591 330.9788,131.0216 331.8598,130.6925 332.7027,130.2754 333.4986,129.7746 334.2394,129.1952" stroke="red"/>
  <polyline fill="none" points="334.2395,129.1952 334.8973,128.5497 335.4713,127.8287 335.9531,127.0431 336.3354,126.2045 336.6124,125.3255 336.7801,124.4193 336.8359,123.4994" stroke="red"/>
  <polyline fill="none" points="336.8359,123.4992 336.8335,119.453" stroke="red"/>
  <polyline fill="none" points="336.8477,142.9576 336.8469,141.5679" stroke="red"/>
  <polyline fill="none" points="336.8469,141.5679 336.8402,130.5105" stroke="red"/>
  <polyline fill="none" points="336.8402,130.5105 336.8344,120.9575" stroke="red"/>
  <polyline fill="none" points="336.8344,120.9575 336.8335,119.453" stroke="red"/>
  <polyline fill="none" points="336.8477,142.9576 336.8469,141.5679" stroke="red"/>
  <polyline fill="none" points="336.8469,141.5679 336.8402,130.5105" stroke="red"/>
  <polyline fill="none" points="336.8402,130.5105 336.8344,120.9575" stroke="red"/>
  <polyline fill="none" points="336.8344,120.9575 336.8335,119.453" stroke="red"/>
  <polyline fill="none" points="90.4582,142.2848 90.4587,139.5103" stroke="red"/>
  <polyline fill="none" points="90.4587,139.5103 90.5089,138.6121 90.6587,137.7251 90.9062,136.8602 91.2483,136.0282 91.6808,135.2394 92.1984,134.5036 92.7945,133.8299" stroke="red"/>
  <polyline fill="none" points="92.7946,133.8298 93.4615,133.228 94.1919,132.7051 94.9766,132.268 95.8055,131.922 96.6681,131.6717 97.5535,131.5201 98.4503,131.4693" stroke="red"/>
  <polyline fill="none" points="98.4505,131.4693 101.4848,131.4691" stroke="red"/>
  <polyline fill="none" points="90.4582,142.2848 90.4587,139.0267" stroke="red"/>
  <polyline fill="none" points="90.4587,139.0265 90.5164,138.1327 90.688,137.2537 90.9708,136.4039 91.36,135.5973 91.8494,134.8472 92.4308,134.1659 93.0947,133.5647" stroke="red"/>
  <polyline fill="none" points="93.0948,133.5647 93.8457,133.0243 94.645,132.5584 95.4852,132.1713 96.3586,131.8663 97.2573,131.6465 98.1728,131.5137 99.0969,131.4693" stroke="red"/>
  <polyline fill="none" points="99.0969,131.4693 101.4848,131.4691" stroke="red"/>
  <polyline fill="none" points="90.4582,142.2848 90.4599,131.2847" stroke="red"/>
  <polyline fill="none" points="90.4599,131.2847 90.4616,120.2847" stroke="red"/>
  <polyline fill="none" points="90.4582,142.2848 90.4599,131.2847" stroke="red"/>
  <polyline fill="none" points="90.4599,131.2847 90.4616,120.2847" stroke="red"/>
  <polyline fill="none" points="90.4616,120.2847 90.4612,122.5125" stroke="red"/>
  <polyline fill="none" points="90.4612,122.5127 90.5065,123.4026 90.6421,124.2832 90.8666,125.1455 91.1777,125.9804 91.5722,126.7794 92.0459,127.5341 92.5939,128.2366 93.2106,128.8798" stroke="red"/>
  <polyline fill="none" points="93.2107,128.8799 93.8933,129.4644 94.6279,129.982 95.4081,130.428 96.2268,130.7984 97.0768,131.09 97.9506,131.3001 98.8402,131.4269 99.7379,131.4692" stroke="red"/>
  <polyline fill="none" points="99.7379,131.4692 101.4848,131.4691" stroke="red"/>
  <polyline fill="none" points="101.4848,131.4691 98.8848,131.4693" stroke="red"/>
  <polyline fill="none" points="98.8846,131.4693 97.9364,131.4153 97.0004,131.2538 96.0889,130.987 95.2136,130.6183 94.386,130.1525 93.6166,129.5956 92.9155,128.9548" stroke="red"/>
  <polyline fill="none" points="92.9154,128.9547 92.2884,128.237 91.7443,127.4545 91.2899,126.6168 90.9305,125.7342 90.6708,124.8172 90.5137,123.8772 90.4612,122.9257" stroke="red"/>
  <polyline fill="none" points="90.4612,122.9257 90.4616,120.2847" stroke="red"/>
</svg>
